<svg width="280" height="280" viewBox="0 0 280 280" fill="none" xmlns="http://www.w3.org/2000/svg">
<path fill-rule="evenodd" clip-rule="evenodd" d="M28 0C28 4.97056 23.9706 9 19 9C14.0294 9 10 4.97056 10 0H0V11C3.62804e-06 11 7.25609e-06 11 1.08841e-05 11C4.97057 11 9.00001 15.0294 9.00001 20C9.00001 24.9706 4.97057 29 9.93046e-06 29V41C4.97057 41 9.00001 45.0294 9.00001 50C9.00001 54.9706 4.97057 59 8.97679e-06 59L8.02311e-06 71C4.97057 71 9.00001 75.0294 9.00001 80C9.00001 84.9706 4.97057 89 7.06944e-06 89V101C4.97057 101 9.00001 105.029 9.00001 110C9.00001 114.971 4.97057 119 6.11576e-06 119L5.16209e-06 131C4.97057 131 9 135.029 9 140C9 144.971 4.97057 149 5.16209e-06 149L4.20842e-06 161C4.97057 161 9 165.029 9 170C9 174.971 4.97057 179 3.25474e-06 179V191C4.97057 191 9 195.029 9 200C9 204.971 4.97057 209 2.30107e-06 209L0 221C4.97056 221 9 225.029 9 230C9 234.971 4.97056 239 0 239V251C4.97056 251 9 255.029 9 260C9 264.971 4.97056 269 0 269V280H10C10 275.029 14.0294 271 19 271C23.9706 271 28 275.029 28 280H40C40 275.029 44.0294 271 49 271C53.9706 271 58 275.029 58 280H70C70 275.029 74.0294 271 79 271C83.9706 271 88 275.029 88 280H100C100 275.029 104.029 271 109 271C113.971 271 118 275.029 118 280H130C130 275.029 134.029 271 139 271C143.971 271 148 275.029 148 280H160C160 275.029 164.029 271 169 271C173.971 271 178 275.029 178 280H190C190 275.029 194.029 271 199 271C203.971 271 208 275.029 208 280H220C220 275.029 224.029 271 229 271C233.971 271 238 275.029 238 280H250C250 275.029 254.029 271 259 271C263.971 271 268 275.029 268 280H280V269C275.029 269 271 264.971 271 260C271 255.029 275.029 251 280 251V239C275.029 239 271 234.971 271 230C271 225.029 275.029 221 280 221V209C275.029 209 271 204.971 271 200C271 195.029 275.029 191 280 191V179C275.029 179 271 174.971 271 170C271 165.029 275.029 161 280 161V149C275.029 149 271 144.971 271 140C271 135.029 275.029 131 280 131V119C275.029 119 271 114.971 271 110C271 105.029 275.029 101 280 101V89C275.029 89 271 84.9706 271 80C271 75.0294 275.029 71 280 71V59C275.029 59 271 54.9706 271 50C271 45.0294 275.029 41 280 41V29C275.029 29 271 24.9706 271 20C271 15.0294 275.029 11 280 11V0H268C268 4.97056 263.971 9 259 9C254.029 9 250 4.97056 250 0H238C238 4.97056 233.971 9 229 9C224.029 9 220 4.97056 220 0H208C208 4.97056 203.971 9 199 9C194.029 9 190 4.97056 190 0H178C178 4.97056 173.971 9 169 9C164.029 9 160 4.97056 160 0H148C148 4.97056 143.971 9 139 9C134.029 9 130 4.97056 130 0H118C118 4.97056 113.971 9 109 9C104.029 9 100 4.97056 100 0H88C88 4.97056 83.9706 9 79 9C74.0294 9 70 4.97056 70 0H58C58 4.97056 53.9706 9 49 9C44.0294 9 40 4.97056 40 0H28Z" fill="#FCFCFC"/>
</svg>
