<svg width="168" height="140" viewBox="0 0 168 140" fill="none" xmlns="http://www.w3.org/2000/svg">
<path d="M83.9358 128.838C128.083 128.838 163.872 120.304 163.872 109.777C163.872 99.2494 128.083 90.7152 83.9358 90.7152C39.7885 90.7152 4 99.2494 4 109.777C4 120.304 39.7885 128.838 83.9358 128.838Z" fill="url(#paint0_linear_583_9365)"/>
<path fill-rule="evenodd" clip-rule="evenodd" d="M37 19.0001C30.8673 21.1029 28.6287 27.7696 30.9712 39.0001C34.9438 38.7733 47.9535 38.7733 70 39.0001L55 19.0001H37Z" fill="#D8DADD"/>
<path fill-rule="evenodd" clip-rule="evenodd" d="M44.1787 38.8075C42.8154 53.9931 40.8615 91.9276 54.5849 88.82C63.7339 86.7483 79.2056 85.7108 101 85.7077C101 85.7077 101 43.325 101 32.6625C101 22 94 19 94 19L37 18.9999C43 19.4999 45.0876 28.6838 44.1787 38.8075Z" fill="url(#paint1_linear_583_9365)"/>
<path fill-rule="evenodd" clip-rule="evenodd" d="M73 86.4998C58.6701 88.7055 51.4459 89.4568 53.3276 88.7296C56.15 87.6389 56.425 84.9854 60.4666 79.5702C64.5082 74.1551 69.2897 74.9255 72 81.9999C72.3269 82.8531 72.8194 84.3048 73 86.4998Z" fill="#D8DADD"/>
<path fill-rule="evenodd" clip-rule="evenodd" d="M66 76.0001C70.6626 77.7404 72.9939 82.029 72.9939 88.8658C72.9939 95.7025 72.9939 99.7473 72.9939 105H127.484C128.988 89.2592 127.204 80.9258 122.131 76.0001" fill="url(#paint2_linear_583_9365)"/>
<path d="M112.643 54.1409C114.91 50.9008 125.977 31.2097 127.252 22.679L123.979 23.9762L127.343 21.8942C127.453 20.6163 127.297 19.6811 126.8 19.1964L101.32 55.9426C104.419 58.033 108.228 57.9685 110.924 55.9264L105.679 54.999L111.904 55.0477C112.166 54.7668 112.411 54.4723 112.643 54.1409Z" fill="url(#paint3_linear_583_9365)"/>
<path d="M92.3269 67.6829L87.1928 71.9632L89.9413 65.6095L126.245 18.8798L92.3269 67.6829Z" fill="url(#paint4_linear_583_9365)"/>
<path d="M63 50C63 52.2091 61.6569 54 60 54C58.3431 54 57 52.2091 57 50C57 47.7909 58.3431 46 60 46C61.6569 46 63 47.7909 63 50Z" fill="#FDFDFD"/>
<path d="M76 49.5C76 51.7091 74.6569 53.5 73 53.5C71.3431 53.5 70 51.7091 70 49.5C70 47.2909 71.3431 45.5 73 45.5C74.6569 45.5 76 47.2909 76 49.5Z" fill="#FDFDFD"/>
<ellipse cx="86" cy="49" rx="3" ry="4" fill="#FDFDFD"/>
<defs>
<linearGradient id="paint0_linear_583_9365" x1="87.2045" y1="128.838" x2="87.2045" y2="87.7167" gradientUnits="userSpaceOnUse">
<stop stop-color="#EAEFF8" stop-opacity="0"/>
<stop offset="1" stop-color="#EBEEF1"/>
</linearGradient>
<linearGradient id="paint1_linear_583_9365" x1="69" y1="18.0001" x2="69" y2="89.0001" gradientUnits="userSpaceOnUse">
<stop stop-color="#F3F4F6"/>
<stop offset="1" stop-color="#E4E6E9"/>
</linearGradient>
<linearGradient id="paint2_linear_583_9365" x1="98" y1="80.9999" x2="96.4145" y2="102.041" gradientUnits="userSpaceOnUse">
<stop stop-color="#F3F4F6"/>
<stop offset="1" stop-color="#E4E6E9"/>
</linearGradient>
<linearGradient id="paint3_linear_583_9365" x1="127.144" y1="22.1145" x2="98.4896" y2="26.8498" gradientUnits="userSpaceOnUse">
<stop stop-color="#E4E6E9"/>
<stop offset="1" stop-color="#E7E9EB"/>
</linearGradient>
<linearGradient id="paint4_linear_583_9365" x1="126.425" y1="19.0367" x2="83.3369" y2="68.6118" gradientUnits="userSpaceOnUse">
<stop stop-color="#E4E6E9"/>
<stop offset="1" stop-color="white"/>
</linearGradient>
</defs>
</svg>
