<svg width="36" height="36" viewBox="0 0 36 36" fill="none" xmlns="http://www.w3.org/2000/svg">
<circle cx="18" cy="18" r="18" fill="#5C6BEF"/>
<path fill-rule="evenodd" clip-rule="evenodd" d="M30.4583 18C30.4583 20.2641 29.8193 22.3817 28.7087 24.1887L33 28.1207H30.5273L12.5604 11.6938C11.2655 12.1386 9.98368 12.9053 8.96603 13.7452C8.59758 14.0492 8.59632 14.5979 8.93533 14.9339L20.289 25.3407C20.6119 25.6608 21.0499 25.8406 21.5065 25.8406H26.2697L26.9293 26.4331C24.7122 28.6353 21.6331 30 18.2291 30C11.4752 30 6 24.6274 6 18C6 11.3726 11.4752 6 18.2291 6C24.9831 6 30.4583 11.3726 30.4583 18ZM27.6986 18.955V23.2888L14.5172 11.228C15.0219 11.1572 15.5377 11.1206 16.0621 11.1206C18.5515 11.1206 20.4764 11.9461 22.3134 13.3359L27.202 17.7558C27.5202 18.0752 27.6986 18.5061 27.6986 18.955Z" fill="white"/>
</svg>
