<svg width="43" height="34" viewBox="0 0 43 34" fill="none" xmlns="http://www.w3.org/2000/svg">
<path fill-rule="evenodd" clip-rule="evenodd" d="M30.5182 27.2635C34.9584 26.9435 38.6992 23.7199 39.6283 19.3068L42.7813 4.33047C43.2511 2.09866 41.5483 0 39.2675 0H21.6885C17.5129 0 13.8386 2.56877 12.3423 6.34588C12.5831 6.32853 12.826 6.31971 13.0706 6.31971H24.4541C29.9279 6.31971 34.0147 11.3565 32.8871 16.7128L31.0105 25.6265C30.8912 26.193 30.7256 26.7398 30.5182 27.2635Z" fill="white"/>
<path d="M30.5206 27.2631C30.2797 27.2805 30.0368 27.2893 29.7922 27.2893H18.4087C12.9349 27.2893 8.84811 22.2525 9.97577 16.8962L11.8523 7.98246C11.9716 7.41601 12.1372 6.86915 12.3446 6.34551C12.5855 6.32815 12.8284 6.31934 13.073 6.31934H24.4565C29.9303 6.31934 34.0171 11.3561 32.8894 16.7125L31.0129 25.6262C30.8936 26.1926 30.728 26.7395 30.5206 27.2631Z" fill="white" fill-opacity="0.62"/>
<path fill-rule="evenodd" clip-rule="evenodd" d="M30.5183 27.2631C30.7257 26.7395 30.8913 26.1926 31.0105 25.6262L32.8871 16.7125C34.0139 11.3602 29.9342 6.327 24.4667 6.31934H25.0073C32.3057 6.31934 37.7548 13.035 36.2512 20.1769L35.104 25.6262C35.0923 25.682 35.08 25.7377 35.0674 25.7932C33.7196 26.6251 32.1671 27.1443 30.5183 27.2631ZM13.0573 6.31934H12.3527C12.3492 6.32805 12.3457 6.33677 12.3423 6.3455C12.5788 6.32846 12.8172 6.31965 13.0573 6.31934Z" fill="black" fill-opacity="0.05"/>
<path fill-rule="evenodd" clip-rule="evenodd" d="M12.3414 6.34668C7.90118 6.66669 4.16036 9.89023 3.23127 14.3033L0.0783556 29.2797C-0.39151 31.5115 1.31134 33.6102 3.59208 33.6102H21.1711C25.3467 33.6102 29.021 31.0414 30.5173 27.2643C30.2764 27.2816 30.0336 27.2904 29.789 27.2904H18.4055C12.9317 27.2904 8.84489 22.2537 9.97254 16.8973L11.8491 7.98362C11.9684 7.41717 12.1339 6.87032 12.3414 6.34668Z" fill="white"/>
</svg>
