<svg width="160" height="80" viewBox="0 0 160 80" fill="none" xmlns="http://www.w3.org/2000/svg">
<path fill-rule="evenodd" clip-rule="evenodd" d="M63.8844 54.4379C66.421 50.2221 67.8804 45.2818 67.8804 40C67.8804 24.536 55.3711 12 39.9402 12C24.5092 12 12 24.536 12 40C12 55.464 24.5092 68 39.9402 68C47.7182 68 54.7539 64.815 59.8195 59.6754L58.3129 58.2933H47.4302C46.387 58.2933 45.3864 57.8737 44.6487 57.1269L18.7086 32.8444C17.934 32.0603 17.9369 30.7801 18.7787 30.0706C21.1038 28.111 24.0323 26.322 26.9908 25.2842L61.6296 57.6523L61.647 57.6308L68.0407 63.6138H73.6902L63.8844 54.4379ZM61.5775 52.3391V42.2269C61.5775 41.1794 61.1698 40.1742 60.4428 39.4288L49.2737 29.1157C45.0768 25.8727 40.6788 23.9466 34.9913 23.9466C33.7931 23.9466 32.6146 24.0321 31.4615 24.1974L61.5775 52.3391Z" fill="#5C6BEF"/>
<path d="M127.873 26.5V63.3286H134.07V25.5001L127.873 26.5Z" fill="#5C6BEF"/>
<path d="M91.7042 63.3286C89.8629 63.3286 88.0216 62.9529 86.4258 62.3267C84.83 61.5753 83.3569 60.5734 82.1293 59.321C80.9018 58.0686 79.9198 56.5657 79.306 54.8124C78.5695 53.0591 78.3239 51.1805 78.3239 49.0514V26.9259H84.5844V48.1747C84.5844 49.1767 84.7072 50.1786 84.9527 51.3057C85.1982 52.3076 85.5665 53.3095 86.1803 54.1862C86.794 55.0629 87.5306 55.6891 88.3898 56.3153C89.2491 56.8162 90.3539 57.0667 91.7042 57.0667C93.0545 57.0667 94.1593 56.8162 95.0186 56.3153C95.8779 55.8143 96.6144 55.0629 97.2282 54.1862C97.842 53.3095 98.2102 52.3076 98.4557 51.3057C98.7013 50.3038 98.824 49.1767 98.824 48.1747V26.9259H105.085V48.9262C105.085 51.0552 104.716 52.9338 104.102 54.6872C103.366 56.4405 102.507 57.9434 101.279 59.1958C100.052 60.4481 98.5785 61.4501 96.9827 62.2015C95.3869 62.9529 93.6683 63.3286 91.7042 63.3286Z" fill="#5C6BEF"/>
<path d="M113.521 63.3286V38.2818H119.56V63.3286H113.521Z" fill="#5C6BEF"/>
<path d="M116.479 35.1353C115.37 35.1353 114.384 34.7577 113.644 33.8766C112.905 32.9956 112.535 32.1145 112.535 30.9818C112.535 29.849 112.905 28.8421 113.644 28.0869C114.384 27.2059 115.37 26.8283 116.479 26.8283C117.588 26.8283 118.574 27.2059 119.313 28.0869C120.053 28.968 120.423 29.849 120.423 30.9818C120.423 32.1145 120.053 33.1214 119.313 33.8766C118.574 34.7577 117.588 35.1353 116.479 35.1353Z" fill="#5C6BEF"/>
<path d="M142.085 63.3286V26.5L148 25.5001V63.3286H142.085Z" fill="#5C6BEF"/>
</svg>
