<svg width="418" height="137" viewBox="0 0 418 137" fill="none" xmlns="http://www.w3.org/2000/svg">
<path fill-rule="evenodd" clip-rule="evenodd" d="M20.598 55.1656C20.0826 54.9832 19.4241 54.7524 18.792 54.6058L17.2103 61.4247C17.4004 61.4689 17.6987 61.565 18.2627 61.7646C18.3357 61.7904 18.4125 61.8177 18.4925 61.8462C18.9654 62.0144 19.5538 62.2237 20.182 62.4203C21.6758 62.8879 23.6019 63.3552 25.821 63.3324C30.5048 63.2843 35.5546 61.0791 40.513 54.7778L35.0118 50.4491C31.0898 55.4334 27.9036 56.3106 25.7491 56.3328C24.5491 56.3451 23.4055 56.0944 22.2732 55.74C21.7834 55.5866 21.3342 55.427 20.859 55.2582C20.773 55.2277 20.6861 55.1968 20.598 55.1656Z" fill="#2B2B4C"/>
<path d="M29.5454 35.4653C28.2509 34.7762 26.6741 34.6588 25.3033 35.1628C23.3821 35.9466 21.0501 38.2497 20.5488 40.2109C20.2877 41.2172 20.3173 42.1367 20.3463 43.0398C20.3822 44.1498 20.4171 45.2355 19.9105 46.426C19.4635 47.0644 18.6618 46.4304 17.7524 45.7111C17.4713 45.4888 17.1798 45.2584 16.8854 45.0549C14.989 43.7537 13.047 42.6396 10.7471 42.0563C9.20129 41.6358 7.41092 41.4671 6.04457 42.4672C5.08388 43.2051 4.04836 44.2494 3.7859 45.6989C3.49744 47.291 4.65807 48.8647 5.76271 49.7697C7.6969 51.4427 9.6508 52.9532 12.1427 53.6379C13.1765 53.88 14.7752 53.457 15.6742 52.772C16.9291 51.8036 17.3758 50.0167 16.8856 48.5429C16.4522 47.3503 15.5706 46.3821 14.5869 45.6077C14.8734 45.3925 15.1312 45.5943 15.3789 45.7883L15.3802 45.7893C15.4806 45.8679 15.5793 45.9451 15.6775 45.9927C17.1495 47.0935 18.7352 48.6182 18.6892 50.6151C18.4775 51.9879 17.9503 53.5033 16.6457 54.1739C16.5113 54.2628 16.3578 54.3378 16.2033 54.4132C15.7935 54.6133 15.3762 54.817 15.2865 55.2956C14.5596 57.8331 15.1486 60.5944 16.5301 62.7834C16.5917 62.8909 16.6605 62.9955 16.7294 63.1002C16.9121 63.3779 17.0959 63.6574 17.1507 63.9965C15.579 63.13 14.636 61.5229 14.1745 59.8438C14.0036 60.038 13.8369 60.234 13.6702 60.4299C15.0667 62.8439 15.2865 65.5 13.5 67.5C13.6641 67.5242 14.2776 67.6074 14.4409 67.6334C14.5288 67.6474 14.6166 67.6615 14.7045 67.6752C20.89 68.6424 25.6486 62.0411 25.5655 56.2888C25.5593 55.8035 25.586 55.3161 25.6129 54.8272C25.6455 54.2347 25.6782 53.64 25.6526 53.0442C25.6456 52.5007 25.5975 51.9585 25.5494 51.4153L25.549 51.4107C25.4862 50.7038 25.4232 49.9954 25.4504 49.2812C25.6111 45.7713 27.9506 42.8525 30.3113 40.4369C30.3511 40.3915 30.3918 40.3456 30.433 40.2993C30.9785 39.685 31.6005 38.9843 31.5194 38.1042C31.5058 36.8925 30.6146 35.9005 29.5454 35.4653Z" fill="#DB5E73"/>
<path fill-rule="evenodd" clip-rule="evenodd" d="M4.22779 49.3646C6.64055 51.8936 9.63449 53.9781 13.063 54.7647C15.6742 56 13.1944 62.7834 7.12853 60.3145C5.51771 59.6589 3.71529 58.8983 2.28826 57.876C0.636417 56.6316 0.110192 54.3269 0.648483 52.4271C1.10109 50.8297 2.3063 49.5185 4.22779 49.3646Z" fill="#DB5E73"/>
<path fill-rule="evenodd" clip-rule="evenodd" d="M8.84694 61.4911C6.51138 61.13 4.08387 60.0448 2 59C0.368881 59.7912 0.242569 62.1563 1 63.5C2.06152 65.1971 4.03742 66.5238 5.83211 67.3269C7.58172 68.19 9.63106 68.7072 11.5 68C14.4409 67 14.504 63.2487 12.9946 61.0023C12 61.5 10.1098 61.6936 8.84694 61.4911Z" fill="#DB5E73"/>
<path d="M71.0005 11.3278C76.5004 6.82786 81.501 2.82805 87.001 2.82801C105.501 2.82789 115.88 47.221 107.824 79.2826C98.4382 116.633 67.8557 129.098 53.8621 131.454C44.0846 133.1 38.3071 132.141 35.3809 129.318C31.0448 125.134 32.9907 119.262 33.4599 113.593C34.187 104.807 30.6784 95.6196 29.04 87.0985C26.7578 75.2288 26.8269 62.2684 31.1794 51.1375C42.0536 23.3279 60.3255 20.0619 71.0005 11.3278Z" fill="#D65A6E"/>
<path fill-rule="evenodd" clip-rule="evenodd" d="M116.546 71.9978C116.544 71.9981 116.542 71.9984 117.138 75.4474C117.733 78.8964 117.731 78.8967 117.729 78.897L117.725 78.8977L117.717 78.8992L117.697 78.9024L117.651 78.9097C117.616 78.9151 117.574 78.9212 117.526 78.9278C117.428 78.9409 117.303 78.9559 117.153 78.9701C116.853 78.9984 116.448 79.0236 115.96 79.0235C114.989 79.0232 113.657 78.9222 112.145 78.5261C109.051 77.7161 105.342 75.6993 102.529 71.176L108.473 67.4796C110.225 70.2968 112.334 71.3398 113.918 71.7544C114.744 71.9708 115.465 72.0233 115.962 72.0235C116.209 72.0235 116.392 72.0108 116.497 72.0009C116.548 71.9961 116.58 71.992 116.588 71.9908C116.593 71.9903 116.591 71.9904 116.583 71.9916L116.567 71.9942L116.556 71.9961L116.549 71.9972L116.546 71.9978Z" fill="#2B2B4C"/>
<path d="M58.0324 120.86C51.4245 133.321 41.1136 131.65 35.6533 129.279C38.5538 132.083 44.2626 133.047 53.904 131.446C67.9168 129.073 98.4476 116.595 107.824 79.2825C113.966 54.8393 109.393 23.2287 98.6748 9.58643C101.199 15.1116 102.529 21.3709 103.001 26.3279C106.002 57.8279 104.759 88.8016 71.297 107.756C65.2974 112.011 60.4192 117.533 58.0324 120.86Z" fill="#C03148"/>
<path fill-rule="evenodd" clip-rule="evenodd" d="M91.4103 13.766C91.5931 13.7623 91.4488 13.3295 91.1938 13.1168C89.9051 11.7921 84.6486 8.06402 84.1627 10.4704C84.5972 10.6142 85.0266 10.6599 85.4561 10.7057C85.8856 10.7515 86.315 10.7972 86.7495 10.941C88.298 11.3889 90.0697 12.6167 91.4103 13.766ZM75.2921 14.8242C75.1881 15.1749 74.6915 15.0107 74.2537 14.8017C72.328 13.8168 70.4243 13.2585 68.591 13.1903C68.9099 12.9681 69.2238 12.7437 69.5325 12.5167C69.7714 12.5496 69.9883 12.5845 70.1751 12.6184C71.8342 12.8463 73.6377 13.5069 75.2921 14.8242ZM32.1651 99.8661C32.4346 99.858 33.0415 99.7405 33.7516 99.6031L33.7519 99.6031L33.752 99.6031C34.7444 99.411 35.9385 99.1799 36.6956 99.1536C37.1648 99.1372 37.6774 99.1504 38.1484 99.1626H38.1484C39.0511 99.1859 39.8011 99.2052 39.8011 99.005C39.4284 98.4003 37.8964 98.2642 36.1459 98.3958C34.5903 98.5128 33.2417 99.0574 32.2839 99.6309C32.222 99.6639 32.1715 99.693 32.1318 99.7185C32.1429 99.7677 32.154 99.8169 32.1651 99.8661ZM28.7458 84.8483C29.03 84.7708 29.3204 84.7084 29.6035 84.6516C30.0867 84.5547 30.5663 84.453 31.0459 84.3512C32.4846 84.0461 33.9233 83.7409 35.4602 83.5645C36.621 83.4313 37.8455 83.5205 39.0531 83.6085H39.0532H39.0533H39.0534H39.0534H39.0535H39.0536H39.0537H39.0537H39.0538C39.9778 83.6759 40.892 83.7425 41.7602 83.7081C40.5743 82.8023 39.2036 82.5202 38.0596 82.4271C34.5851 81.9839 31.3297 82.5045 28.5859 83.8493C28.6373 84.183 28.6906 84.516 28.7458 84.8483ZM102.828 30.1294C101.682 29.3755 100.442 28.7236 99.2366 28.4685C98.2072 28.3288 97.0192 27.8624 95.9998 27.2107C96.2609 26.9237 96.7521 26.9991 97.2181 27.0707L97.2183 27.0707C97.2842 27.0809 97.3496 27.0909 97.4138 27.0998L97.5584 27.1333C98.8444 27.4312 100.242 27.7551 101.53 28.3492C102.995 28.9838 104.342 29.9093 105.261 31.1446C104.662 31.3833 103.879 30.847 103.146 30.3448L103.145 30.3446C103.038 30.2713 102.933 30.1987 102.828 30.1294ZM108.77 47.4164C108.79 47.8069 108.135 47.4944 107.754 47.1764C104.89 44.6938 101.86 42.5403 98.8497 40.7773C98.0631 40.2986 97.136 39.8978 96.1937 39.4905C94.6539 38.825 93.0735 38.1419 91.9998 37.0725C97.4972 37.5475 103.81 41.4585 108.456 46.6411C108.652 46.8977 108.848 47.1543 108.77 47.4164ZM97.0065 61.2958C96.8217 61.2153 96.6359 61.1363 96.4501 61.0572C95.5211 60.662 94.592 60.2669 93.7803 59.6876C93.4702 59.49 93.1939 59.2394 93.174 58.9285C96.7619 59.798 100.443 61.5471 103.564 63.8338L103.643 63.892C104.425 64.4679 106.099 65.7005 106.115 66.5026C106.144 67.4504 104.992 66.3593 104.24 65.6468C104.086 65.5015 103.949 65.3719 103.843 65.2786C101.773 63.7365 99.3799 62.3607 97.0065 61.2958ZM73.0137 81.9523C71.6234 81.0931 70.2858 80.1103 69.0877 79.0211C70.4264 79.8624 71.8635 80.4727 73.2915 81.0792L73.2916 81.0792C74.4234 81.5599 75.5494 82.0381 76.616 82.6268C79.0685 84.0112 81.4648 86.1895 81.8843 88.9573C80.9344 88.3266 80.2461 87.5527 79.5444 86.7637L79.5444 86.7636L79.5443 86.7636C79.036 86.192 78.5207 85.6125 77.8938 85.0739C76.8214 84.166 75.5681 83.4416 74.3237 82.7223C73.8831 82.4676 73.4437 82.2136 73.0137 81.9523ZM28.6775 68.6988C30.274 67.743 32.2521 67.3461 34.3822 67.6178C35.002 67.6682 35.7447 67.8211 36.3872 68.3118C35.9167 68.3305 35.4213 68.2944 34.9205 68.2579C34.2662 68.2102 33.6028 68.1618 32.9739 68.234C32.1412 68.3296 31.3617 68.4949 30.5822 68.6603C30.3224 68.7154 30.0625 68.7705 29.8007 68.823C29.2189 68.9398 28.5806 69.0996 28.2825 69.5884C28.1119 69.1301 28.3914 68.8516 28.6775 68.6988ZM60.4236 29.276C60.5206 28.9581 56.5842 27.776 52.4228 28.1002C49.8757 28.2986 44.7945 29.5602 44.502 30.4397C44.3357 30.94 45.6863 30.6864 47.6301 30.3215C49.1039 30.0448 50.9187 29.7041 52.6719 29.5794C54.2491 29.4672 55.9988 29.4615 57.4363 29.4569C59.1172 29.4515 60.3713 29.4475 60.4236 29.276ZM71.5704 104.662C72.1709 104.476 73.1189 105.11 73.7598 105.707C75.8655 107.495 79.7381 111.599 79.8142 114.256C79.6126 114.018 79.1515 113.399 78.5433 112.582C76.4078 109.712 72.4595 104.407 71.5704 104.662ZM60.4378 120.425C59.3146 119.463 58.1185 118.746 56.9451 118.043C56.7179 117.906 56.4916 117.771 56.2668 117.634C56.2059 117.6 56.1446 117.565 56.0831 117.529L56.0395 117.504C55.2884 117.075 54.4999 116.624 53.8359 116.637C55.1562 117.395 56.366 118.373 57.4063 119.615C57.6647 119.893 57.8937 120.194 58.1228 120.494C58.3518 120.795 58.5809 121.095 58.8393 121.373C59.8729 122.485 62.3443 124.265 63.2903 123.679C62.6811 122.515 61.5233 121.362 60.4378 120.425ZM44.7697 123.29C42.1542 121.029 38.588 119.67 35.7266 119.64L35.3973 119.222C36.3342 118.611 37.795 118.727 39.2419 119.135C40.6889 119.543 42.0476 120.335 43.4064 121.128C43.8841 121.361 44.2875 121.687 44.6167 122.104C44.946 122.521 45.1268 123.123 44.7697 123.29ZM99.4502 51.4739C99.8294 51.7277 100.188 51.5897 100.168 51.1979C100.148 50.8062 99.6965 50.336 99.3963 50.4292C99.0306 50.4366 98.9334 50.9179 99.2606 51.347L99.4502 51.4739ZM35.252 56.5194C35.2722 56.9112 34.9132 57.0492 34.5341 56.7954L34.3445 56.6685C34.0173 56.2394 34.1145 55.7581 34.4802 55.7507C34.7804 55.6575 35.2318 56.1277 35.252 56.5194ZM96.605 22.055C96.8668 22.3983 97.2979 22.4767 97.4673 22.2118C97.6367 21.9469 97.4923 21.5141 97.296 21.2566C97.0342 20.9133 96.6031 20.8349 96.427 20.9692C96.2509 21.1035 96.1402 21.3236 96.2124 21.54C96.35 21.8423 96.6637 22.0102 96.8398 21.8759L96.605 22.055ZM96.9128 46.3799C96.9263 46.6411 96.6914 46.8202 96.4364 46.6075L96.3642 46.391C96.2401 46.35 96.1746 46.2642 96.1092 46.1783C96.037 45.9619 96.2718 45.7829 96.4547 45.7792C96.6375 45.7755 96.8993 46.1188 96.9128 46.3799ZM88.1565 64.8195L87.9217 64.9985C87.9487 65.5208 88.4655 66.0769 88.9553 66.1105C89.3797 66.0583 89.5943 65.4875 89.2017 64.9726C88.9332 64.4987 88.2537 64.3382 88.0256 64.6478L88.1565 64.8195ZM88.4252 80.1374C88.1182 80.1 87.6736 79.7604 87.7188 79.4545L87.4186 79.5477C87.3329 79.0702 87.3127 78.6784 87.4166 78.3277C87.5793 77.9322 88.0037 77.8801 88.3828 78.1338C88.8862 78.4287 88.9786 79.0368 88.8814 79.5181C88.8361 79.8241 88.6668 80.0889 88.4252 80.1374ZM65.9343 97.3949C66.462 97.8992 67.1258 98.2287 67.4529 98.2026C67.78 98.1765 67.5339 97.7044 67.0062 97.2001C66.0963 96.3984 65.1055 96.0949 64.3056 95.9402C64.4012 96.0145 64.4853 96.1034 64.5695 96.1923C64.6537 96.2812 64.7379 96.3701 64.8334 96.4445L65.9343 97.3949ZM80.8011 99.1159C80.6115 98.989 80.4151 98.7316 80.2843 98.5599L80.0812 98.1719C79.8262 97.9592 79.806 97.5674 80.0475 97.5189C80.2891 97.4705 80.6028 97.6384 80.7991 97.8959C81.1263 98.325 81.2255 99.0638 80.8011 99.1159ZM81.5489 108.861C81.1318 108.786 80.8056 108.259 80.8789 107.908C80.8031 107.823 80.7683 107.662 80.8088 107.526C80.9262 107.436 80.9849 107.391 81.1677 107.388C81.4747 107.425 81.9193 107.765 82.0637 108.197C82.2081 108.63 81.9213 108.985 81.5489 108.861ZM69.2794 120.744C69.1225 120.592 68.9655 120.441 68.7563 120.329L68.8015 120.023C69.1018 119.929 69.4675 119.922 69.7812 120.09C70.1604 120.344 70.4289 120.818 70.2596 121.083C70.0834 121.217 69.7764 121.179 69.5214 120.967C69.4364 120.896 69.3579 120.82 69.2794 120.744ZM72.565 35.803C72.8025 36.068 73.2868 36.0381 73.4051 35.7676C73.5234 35.497 73.187 35.1887 72.8904 35.059C72.5641 34.9969 72.1787 35.0701 72.09 35.273C72.0308 35.4083 72.1399 35.6977 72.3968 35.6489L72.565 35.803ZM89.6574 92.7725C89.5786 92.7727 89.5423 92.9271 89.6397 93.0548C89.7051 93.1406 89.7835 93.1826 89.862 93.2246C89.9404 93.2666 90.0188 93.3085 90.0843 93.3944C90.2536 93.1295 90.3576 92.7788 90.2132 92.346C90.1343 91.999 89.6242 91.5736 89.3894 91.7526C89.1546 91.9317 89.3577 92.3197 89.5607 92.7078L89.6574 92.7725ZM53.2017 106.995C53.2738 107.212 53.346 107.428 53.4769 107.6C53.8041 108.029 54.4046 107.842 54.319 107.365C54.2333 106.887 53.4817 106.51 53.2536 106.82L53.2017 106.995ZM38.4642 91.7975C38.3333 91.6259 38.2611 91.4095 38.189 91.1931L38.2409 91.0177C38.469 90.7081 39.2206 91.085 39.3063 91.5626C39.3919 92.0402 38.7914 92.2267 38.4642 91.7975ZM50.676 90.655C50.9428 90.623 51.1225 90.362 50.8982 90.1059C50.3773 89.5114 48.3579 89.5727 48.0819 89.9027C47.5301 90.5625 49.913 90.6642 50.676 90.655ZM39.1815 68.2466C38.9974 68.4402 38.5996 68.443 38.287 68.4024L38.2227 68.2854L37.91 68.2448C38.009 68.0946 38.0298 67.9342 38.0506 67.7738C38.2277 67.6336 38.5473 67.6207 38.853 67.7147C39.1588 67.8087 39.2804 68.0963 39.1815 68.2466ZM62.7938 24.9097C62.5385 24.6501 61.4632 24.6427 61.182 24.8741C60.2191 25.6666 63.8829 25.799 62.7938 24.9097ZM73.5134 24.8246C73.3795 24.7665 73.2517 24.7206 73.1345 24.7064L73.134 24.7067C73.1616 24.685 73.4298 24.4749 73.6156 24.279C73.6059 24.3822 73.6117 24.4958 73.6176 24.6094C73.624 24.7338 73.5578 24.7904 73.5134 24.8246ZM73.5889 24.8582C73.5836 24.8771 73.578 24.8962 73.5724 24.9154C73.4482 24.8743 73.4629 24.8631 73.5069 24.8296L73.5134 24.8246C73.5384 24.8354 73.5636 24.8466 73.5889 24.8582ZM73.5889 24.8582L73.6101 24.7832C73.6921 24.4898 73.76 24.2468 74.0218 24.1655C74.322 24.0723 74.8253 24.3671 74.9043 24.7141C74.9832 25.0611 74.5655 25.2439 74.1931 25.1207C74.0399 25.07 73.8856 24.9973 73.7356 24.9266L73.7353 24.9264L73.7343 24.9259C73.6853 24.9029 73.6368 24.88 73.5889 24.8582ZM73.7667 23.9528C73.6672 24.0287 73.6283 24.145 73.6156 24.279C73.7501 24.1372 73.8414 24.0028 73.7667 23.9528ZM35.2248 107.403C35.6627 107.612 35.936 106.996 35.6675 106.522C35.3402 106.093 34.6676 106.063 34.6945 106.586C34.708 106.847 34.8456 107.149 35.0352 107.276L35.2248 107.403ZM41.8844 111.192C42.52 111.854 42.3195 112.963 41.6297 112.916L41.4454 112.674C40.921 112.5 40.4507 111.712 40.5971 111.218C40.7434 110.725 41.4332 110.772 41.8844 111.192ZM45.6552 75.6561C46.1518 75.8203 46.6416 75.854 46.9284 75.4996C47.1565 75.1899 46.9332 74.4101 46.4298 74.1153C46.3678 74.0947 46.291 74.0854 46.2143 74.0761C46.1375 74.0667 46.0608 74.0574 45.9987 74.0368C45.4569 74.1785 45.1182 74.7083 45.2173 75.447L45.6552 75.6561ZM83.4717 32.9987C83.8576 33.3831 84.5303 33.413 84.6275 32.9317C84.7247 32.4504 84.1425 31.8086 83.6593 31.9056C83.3591 31.9988 83.3206 32.4353 83.3995 32.7823L83.4717 32.9987ZM78.213 15.9999C78.2919 16.3469 77.9984 16.5707 77.6846 16.4027L77.5018 16.4065C77.4691 16.3635 77.4053 16.3104 77.3415 16.2572L77.3415 16.2571L77.3415 16.2571C77.2778 16.204 77.214 16.1508 77.1813 16.1079C77.0437 15.8057 77.2063 15.4102 77.4479 15.3618C77.7481 15.2685 78.1341 15.6529 78.213 15.9999Z" fill="#AA3751"/>
<path d="M57.5095 66.8279C57.498 66.8755 57.4868 66.9226 57.4758 66.9691C57.4531 67.0656 57.4299 67.1625 57.4067 67.2599C57.103 68.5306 56.7835 69.8674 57.2005 71.0924C57.6669 72.4627 58.9022 73.58 60.5379 73.9205C62.2243 74.2716 63.8897 73.704 64.9134 72.5785C65.6765 71.7396 65.9305 70.5929 66.1789 69.4717C66.2197 69.2872 66.2605 69.1033 66.3033 68.9217C66.3284 68.8151 66.3545 68.7046 66.3814 68.5911L57.5095 66.8279Z" fill="url(#paint0_linear_343_8026)"/>
<circle cx="54.418" cy="48.2447" r="13.8267" transform="rotate(17.9625 54.418 48.2447)" fill="#F1F3F3"/>
<circle cx="78.2419" cy="54.5653" r="13.6606" transform="rotate(17.9625 78.2419 54.5653)" fill="#F1F3F3"/>
<ellipse cx="54.2332" cy="48.4026" rx="8.2935" ry="8.52387" transform="rotate(17.9625 54.2332 48.4026)" fill="#2B2B4D"/>
<ellipse cx="78.0659" cy="54.7209" rx="8.22832" ry="8.45688" transform="rotate(17.9625 78.0659 54.7209)" fill="#2B2B4D"/>
<path d="M96.9454 132.738C103.825 132.979 112.174 129.124 114.773 123.387C125.188 100.397 109.326 77.6636 90.9359 73.5406C90.0145 73.3563 89.1444 73.1822 88.2034 73.0927C79.8849 72.3222 72.8139 77.2312 68.3373 83.777C60.09 97.1317 66.7928 131.889 96.9454 132.738Z" fill="#A82A3E"/>
<path d="M113.631 125.885C112.957 126.512 112.282 127.139 111.528 127.703C102.731 133.846 85.6922 128.69 79.1177 121.808C76.8771 119.401 75.5049 116.6 73.756 113.743C71.3787 109.942 68.9041 104.069 69.133 99.4884C69.2152 97.6873 69.66 95.9785 69.7531 94.2502C69.9178 92.0637 69.4579 89.9001 69.759 87.6923C70.8919 79.3191 80.1817 73.2488 87.4873 72.6297C93.8954 72.0763 100.315 74.427 105.747 78.124C109.158 80.4229 112.451 83.3364 114.979 86.7418C117.507 90.1472 118.545 95.2754 120.262 99.329C124.188 108.403 120.186 119.72 113.631 125.885Z" fill="#FDDF96"/>
<path d="M104.238 127.319C94.4797 128.843 84.3104 124.723 78.3286 116.825C74.6461 111.75 70.6338 104.919 71.5269 98.2255C71.8137 95.9207 72.4524 93.6363 72.5346 91.3635C72.6358 89.6904 72.4423 87.9126 72.9064 86.3335C73.6952 83.649 76.3721 80.5191 78.2003 78.727C81.2618 75.8383 84.7131 76.0527 88.4455 74.8673C88.9803 74.7085 89.5042 74.476 90.118 74.3802C93.1083 73.8379 95.8171 76.579 98.4907 77.6682C99.8957 78.2022 101.393 78.4203 102.788 78.8806C106.233 80 109.136 82.6354 111.411 85.7455C113.617 88.8663 115.254 92.3774 116.822 95.8992C118.178 98.9269 119.656 102.312 119.533 105.721C119.42 109.204 118.473 113.011 117.084 116.252C114.768 121.345 109.754 126.458 104.238 127.319Z" fill="#FF9500"/>
<path d="M100.53 86.2602C100.232 86.0881 100.3 85.643 100.39 85.3395C101.005 83.5793 101.643 81.9607 102.479 80.3119L103.199 80.13C102.648 82.3151 101.743 84.4091 100.53 86.2602ZM102.779 85.411C103.326 84.0959 104.312 81.1926 105.992 81.5168C105.725 81.9922 105.777 82.7814 106.473 82.8929C106.959 82.9638 107.459 82.6706 107.891 82.3874C107.92 83.4699 107.108 84.3904 106.331 85.0882C105.265 86.1199 104.265 87.1414 103.199 88.1731C103.98 86.6051 104.771 85.108 105.552 83.5401C104.391 83.4993 103.929 85.381 102.779 85.411ZM105.845 90.3793C104.093 91.3703 105.629 88.9629 106.162 88.447C106.396 88.1942 109.548 85.686 109.636 85.8176C109.91 86.283 109.454 86.8596 108.955 87.1528C108.523 87.436 107.957 87.7393 107.9 88.2553C108.898 87.6688 109.984 87.2138 111.158 86.8904C109.505 88.0838 107.627 90.0358 105.744 90.612C105.678 90.6221 105.845 90.3793 105.845 90.3793ZM85.9606 115.575C84.9032 117.113 83.8352 118.58 82.7779 120.117C82.6181 118.62 83.7078 117.295 84.7633 116.192C85.23 115.687 85.6644 114.968 85.2462 114.452C83.8909 115.818 82.5248 117.112 81.1696 118.478C81.6273 117.466 82.1623 116.515 82.62 115.504C81.7548 116.07 80.8124 116.576 79.9472 117.142C81.8894 115.615 82.9934 113.491 85.2552 112.277C84.81 112.924 84.3648 113.572 83.9196 114.219C84.8405 113.572 85.8493 113.056 86.9461 112.672C87.2297 113.643 86.5727 114.685 85.9606 115.575ZM90.5682 122.193C90.4228 122.578 90.211 122.972 89.9112 123.235C89.9185 121.495 90.0585 119.735 90.475 118.005L90.484 118.511C90.8412 117.732 91.3528 117.074 92.0295 116.609C92.4728 119.078 92.3076 121.567 91.446 123.944C91.2539 122.234 91.2719 120.565 91.5556 118.855C90.7227 119.634 90.9488 121.121 90.5682 122.193ZM87.9009 117.164C87.506 119.036 86.6246 120.837 85.4129 122.253C85.465 120.361 86.7108 118.722 87.8453 117.245L87.9009 117.164ZM111.33 98.7477C110.809 98.8993 110.267 98.9092 109.781 98.8383C110.126 98.4236 110.625 98.1303 111.145 97.9787L110.901 98.1608C112.132 97.3214 113.551 96.8159 115.055 96.877C114.123 97.4535 113.202 98.1007 112.281 98.7479C113.012 98.6368 113.676 98.5359 114.417 98.4956C114.75 98.4451 115.236 98.516 115.29 98.8702C113.55 99.4969 111.768 99.8404 109.932 99.8298C110.354 99.4758 110.842 99.1117 111.33 98.7477ZM114.249 104.535C113.586 104.201 112.746 104.039 111.994 104.009C111.795 104.039 111.518 104.009 111.364 103.887C111.122 103.634 111.267 103.25 111.511 103.068C111.755 102.886 112.098 102.906 112.441 102.926L112.432 102.42C113.97 102.259 115.618 102.371 117.176 102.786C117.53 102.877 117.905 103.11 117.815 103.413C116.763 103.646 115.591 103.534 114.575 103.109C114.539 103.767 115.279 104.161 115.909 104.283C116.55 104.475 117.268 104.728 117.309 105.447C116.223 105.902 115.209 105.042 114.249 104.535ZM111.549 107.337L111.68 107.752C111.68 107.752 111.613 107.762 111.603 107.691C111.448 107.57 111.416 107.357 111.549 107.337ZM110.369 108.966C110.967 108.875 111.642 108.845 112.24 108.754C112.075 108.561 111.987 108.43 111.822 108.238L111.658 107.61C112.883 108.511 114.564 108.4 115.9 109.139C116.044 109.19 116.198 109.311 116.23 109.524C116.361 109.939 115.708 110.11 115.299 110.1C113.64 109.918 111.96 109.593 110.369 108.966ZM111.278 111.364L111.168 111.09C112.373 111.415 113.599 111.88 114.703 112.437C115.221 112.72 115.751 113.075 115.704 113.661C114.046 113.479 112.423 112.639 111.278 111.364ZM79.829 105.639C78.2762 106.599 76.4704 107.236 74.6664 107.438C74.4007 107.479 73.9807 107.398 73.8712 107.124C75.5783 106.285 77.4057 105.79 79.2976 105.72L79.829 105.639ZM100.375 118.311C100.409 118.088 100.454 117.937 100.554 117.704C101.398 119.677 101.864 121.852 101.922 124.018C101.909 124.382 101.775 124.837 101.432 124.817C101.222 124.776 101.046 124.513 101.013 124.301C100.468 122.5 100.121 120.668 99.9635 118.736L100.375 118.311ZM103.026 119.212L103.457 119.364C103.446 119.293 103.446 119.293 103.501 119.212C103.634 119.192 103.722 119.324 103.744 119.465C104.27 120.69 104.729 121.924 105.122 123.169C105.363 123.857 105.569 124.767 105.113 125.344C103.76 123.593 103.017 121.387 103.026 119.212ZM97.9189 120.931C97.9458 122.448 97.5742 124.026 96.9046 125.433C96.5133 123.753 96.9191 121.952 97.9423 120.637L97.9189 120.931ZM81.1146 86.3863L81.5544 87.0441C81.2995 87.1553 81.0015 86.9832 80.8364 86.7909C79.5691 85.6069 78.3018 84.4228 77.0238 83.168C76.8694 83.0465 76.7043 82.8543 76.7384 82.6317C76.8174 82.2574 77.3038 82.3283 77.6018 82.5004C79.1689 83.4215 80.3912 84.7573 81.1146 86.3863ZM83.8072 82.6438C83.9472 83.5645 84.1644 84.5459 83.8951 85.4563C83.073 83.6249 82.3174 81.7834 81.4953 79.952C81.5061 80.0228 81.5061 80.0228 81.4504 80.1037L81.5635 79.5069C81.4756 79.3753 81.454 79.2337 81.3768 79.1729C82.1289 79.2035 82.7572 79.7601 83.1413 80.4988C83.5039 81.0958 83.6224 81.8748 83.8072 82.6438ZM86.3508 82.8367C85.8697 81.4606 85.4551 80.0745 85.1069 78.6782L85.5611 78.5367C85.5503 78.4659 85.4623 78.3344 85.4516 78.2635C86.3957 80.0039 87.0293 81.9365 87.1872 83.8689C86.7672 83.7878 86.4818 83.2515 86.3508 82.8367ZM93.0894 77.1022C93.942 79.5811 93.8307 82.424 92.8362 84.8214C92.7105 83.1015 92.6513 81.3715 92.5365 79.7224C91.2494 80.6427 92.0248 83.0608 90.9137 84.2442C90.6894 82.3219 90.3466 79.6206 91.1616 77.8301C91.2387 77.8908 92.1847 79.1962 92.1183 79.2063C92.6299 78.5488 92.9314 77.8508 93.0894 77.1022ZM96.4083 85.0754C96.4819 83.3251 96.7655 81.6154 97.1928 79.9563L97.6362 79.744C97.6146 79.6024 97.6487 79.3798 97.6272 79.2381C97.8049 79.0662 98.0921 79.1675 98.1244 79.3799C98.2232 79.5823 98.1226 79.815 98.0885 80.0375C97.6954 81.474 97.3022 82.9106 96.9755 84.337C96.8965 84.7113 96.7511 85.0957 96.4083 85.0754ZM75.0437 91.1498C76.0741 90.7758 77.3234 90.9481 78.2945 91.525C79.113 91.5455 79.9854 91.9201 80.6137 92.4767C80.0823 92.5575 79.4954 92.7192 79.0071 93.0833C79.5366 93.4375 80.0105 93.8727 80.3623 94.3989C79.8974 94.4695 79.411 94.3986 78.9245 94.3276C77.2444 94.0034 75.6306 93.6691 73.9397 93.2741C73.6633 93.2437 73.333 92.8591 73.5215 92.758C75.0706 92.6674 76.6628 92.86 78.2101 93.2044C77.5514 92.0003 76.3487 91.2412 75.0437 91.1498ZM79.1309 97.9193C79.7053 98.1218 80.1684 98.4861 80.5202 99.0123C80.5974 99.073 80.6189 99.2147 80.6297 99.2855C80.6063 99.5789 80.285 99.7002 80.0193 99.7406C78.9567 99.9022 77.894 100.064 76.765 100.235C77.815 100.438 78.8651 100.641 79.9044 100.772C80.2581 100.864 80.6889 101.016 80.6763 101.38C80.6637 101.744 80.276 101.875 79.9439 101.926C78.0286 102.29 76.0918 102.512 74.1442 102.663C75.7292 101.915 77.5009 101.5 79.26 101.45C77.325 101.237 75.4007 101.095 73.4657 100.882C74.0222 100.073 75.1297 99.7595 76.0703 99.6889C77.0773 99.6082 78.1059 99.6692 79.0034 99.3154C77.4794 98.6776 75.7993 98.3534 74.173 98.3833C75.7472 97.5642 77.6177 97.3523 79.3965 97.8789C79.3193 97.8181 79.1865 97.8383 79.1309 97.9193ZM77.6443 112.275C78.6998 111.173 79.6888 110.08 80.7443 108.978C79.1719 109.362 77.6317 109.958 76.1796 110.686C77.4253 109.048 79.233 107.976 81.2147 107.602C81.0818 107.622 80.9382 107.571 80.7946 107.521L81.6024 107.47C81.8681 107.43 82.1337 107.39 82.3994 107.349C82.5197 107.693 82.2414 108.098 81.9416 108.361C80.4751 109.888 78.9313 111.355 77.4647 112.882C77.3319 112.902 77.4773 112.518 77.6443 112.275ZM107.5 94.113C107.611 93.9511 107.799 93.85 107.988 93.7489L108.112 93.2228C108.711 92.6969 109.322 92.2418 109.988 91.7058C110.587 91.1799 111.386 90.6237 112.17 90.8667C111.361 91.3521 110.573 91.9791 109.939 92.7276C110.438 92.4344 111.003 92.131 111.578 92.3335C110.402 93.092 109.216 93.7796 107.963 94.4773C107.896 94.4874 107.841 94.5683 107.774 94.5784C107.509 94.6188 107.399 94.3456 107.5 94.113ZM109.343 116.513C108.659 116.037 108.418 115.349 109.314 115.43C109.856 115.42 110.937 116.27 111.445 116.483C112.24 116.797 113.067 117.323 113.263 118.163C112.258 117.808 111.353 117.221 110.56 116.473C110.877 117.221 111.118 117.909 111.436 118.658C111.523 118.79 111.545 118.931 111.5 119.083C111.455 119.235 111.344 119.397 111.2 119.346C110.951 118.152 110.324 117.16 109.343 116.513ZM106.817 117.331L107.181 117.493C108.061 118.809 108.763 120.296 109 121.854C108.131 120.61 107.451 119.264 106.892 117.827C106.804 117.696 106.706 117.493 106.817 117.331Z" fill="#FFB237"/>
<path d="M101.381 98.3308C102.47 97.0231 102.823 95.3064 101.738 93.0952C100.266 90.0645 97.5066 89.9194 94.2742 90.8259L92.6066 86.487L90.18 87.4196L91.8012 91.638C91.1709 91.8802 90.5315 92.1457 89.8921 92.4112L88.2576 88.1585L85.8309 89.0911L87.4985 93.43C86.6176 93.8023 85.573 94.1873 82.6295 95.3013L83.7147 98.125C85.6164 97.3516 86.5699 96.8307 87.3162 98.0845L91.8821 109.965C92.1452 111.086 91.3062 111.232 89.5566 111.866L90.2791 115.205C94.7037 113.505 95.1548 113.351 95.1548 113.351L96.5829 117.067L99.0095 116.134L97.6013 112.47C98.2697 112.233 98.9157 111.984 99.5303 111.748L100.932 115.395L103.359 114.463L101.93 110.747C105.903 108.943 108.191 106.78 106.945 102.456C105.938 98.99 103.913 98.0492 101.381 98.3308ZM91.1305 95.4922C92.5014 94.9654 96.6087 92.8533 97.8064 95.9697C98.9512 98.9484 94.5329 100.251 93.162 100.778L91.1305 95.4922ZM96.4177 109.249L94.1811 103.43C95.8198 102.8 100.646 100.372 101.956 103.781C103.22 107.07 98.0565 108.619 96.4177 109.249Z" fill="#FDDF96"/>
<path d="M120.369 51.128C121.884 51.1118 123.385 51.7542 124.402 52.8683C125.791 54.5008 126.834 57.7218 126.361 59.7585C126.122 60.8053 125.657 61.6344 125.201 62.4486C124.64 63.4494 124.092 64.4282 123.99 65.7607C124.096 66.5586 125.133 66.3587 126.309 66.1317C126.672 66.0616 127.049 65.989 127.416 65.9423C129.774 65.6513 132.084 65.5534 134.47 66.1126C136.088 66.4622 137.81 67.1591 138.587 68.726C139.117 69.8595 139.569 71.3096 139.121 72.7635C138.628 74.3606 136.815 75.2514 135.372 75.5558C132.803 76.1698 130.293 76.6255 127.682 76.068C126.619 75.7983 125.354 74.6501 124.856 73.5943C124.166 72.1095 124.606 70.2586 125.757 69.1405C126.721 68.2531 127.99 67.7847 129.26 67.5425C129.1 67.2088 128.768 67.2714 128.448 67.3314L128.447 67.3317C128.317 67.356 128.19 67.3799 128.077 67.3768C126.204 67.6859 124.025 68.3298 123.117 70.1826C122.658 71.5421 122.421 73.1823 123.298 74.4177C123.379 74.5631 123.484 74.7049 123.59 74.8475C123.871 75.2259 124.156 75.6111 124.011 76.0927C123.471 78.7651 121.617 81.0168 119.309 82.3668C119.202 82.4361 119.089 82.4992 118.976 82.5625C118.676 82.7303 118.375 82.8991 118.163 83.1839C120.016 83.137 121.646 82.112 122.867 80.7919C122.932 81.0511 122.991 81.31 123.051 81.5688C123.11 81.8279 123.17 82.0869 123.234 82.3464C122.028 82.4804 120.841 83.1057 120.076 84.065C119.28 85.1913 119.189 86.6355 119.404 87.971C119.242 87.9151 119.08 87.8613 118.918 87.8074L118.915 87.8065C118.829 87.7779 118.742 87.7493 118.656 87.7204C112.525 85.6652 111.302 77.3491 114.114 72.1143C114.35 71.6723 114.557 71.2126 114.765 70.7515C115.017 70.1928 115.27 69.6319 115.577 69.0978C115.842 68.6028 116.144 68.1285 116.447 67.6534L116.449 67.6494C116.843 67.0311 117.237 66.4115 117.552 65.7436C119.074 62.449 118.318 58.66 117.302 55.3222L117.277 55.222L117.256 55.1382C117.048 54.3154 116.811 53.3772 117.304 52.6087C117.893 51.5042 119.182 51.0185 120.369 51.128Z" fill="#D65A6E"/>
<path fill-rule="evenodd" clip-rule="evenodd" d="M139.061 80.1067C139.322 78.4117 138.38 76.7945 136.971 75.9143C133.556 77.0856 129.82 77.5728 126.302 76.6633C122.65 80.0684 123.742 83.651 129.103 84.5741C130.874 84.879 132.906 84.8991 134.701 84.6404C137.453 84.1762 138.739 82.7951 139.003 80.1505L139.041 80.124L139.061 80.1067Z" fill="#D65A6E"/>
<path d="M124.102 82.9562C124.87 83.9193 125.783 84.4443 126.967 84.8363C129.281 85.6161 131.741 85.6909 134.149 85.7241C134.637 87.5429 134.458 89.6658 133.158 90.5161C130.637 92.0042 127.037 92.0192 124.3 91.0739C122.595 90.4848 121.388 89.6449 120.684 88.425C119.862 87.0005 120.695 82.5551 124.102 82.9562Z" fill="#D65A6E"/>
<mask id="path-18-outside-1_343_8026" maskUnits="userSpaceOnUse" x="161.001" y="33.8279" width="257" height="68" fill="black">
<rect fill="white" x="161.001" y="33.8279" width="257" height="68"/>
<path fill-rule="evenodd" clip-rule="evenodd" d="M163.337 92.4937C163.107 91.5701 162.913 90.5717 162.757 89.4986C162.496 88.0156 162.37 86.353 162.314 84.4954C162.23 83.0246 162.156 81.3546 162.09 79.4855C162.031 76.0404 162.001 72.4765 162.001 68.7938V63.1806C162.06 61.1611 162.09 59.2009 162.09 57.3002C162.149 55.34 162.209 53.5284 162.268 51.8652L162.276 51.6541C162.296 49.1393 162.469 46.9399 162.879 45.0341C163.03 44.1752 163.212 43.3635 163.427 42.5991C163.842 41.1141 164.615 39.837 165.743 38.7679C166.603 37.9939 167.697 37.36 169.023 36.8661C172.019 35.4689 176.251 34.8279 182.16 34.8279C194.141 34.8279 203.853 41.4277 203.853 52.1524C203.853 57.6326 201.317 62.0358 197.238 65.0317C204.177 68.0698 208.803 73.7602 208.803 81.3566C208.803 93.0006 197.934 100.166 184.527 100.166C178.456 100.021 174.033 99.5022 170.814 98.5041C170.633 98.4627 170.458 98.4194 170.287 98.3742C168.268 97.8396 166.693 97.0971 165.565 96.1467C164.496 95.137 163.753 93.9193 163.337 92.4937ZM194.943 52.1528C194.943 57.9747 189.162 61.5575 182.03 61.5575C174.899 61.5575 170.194 58.8704 170.194 52.1528C170.194 45.4351 174.899 42.748 182.03 42.748C189.162 42.748 194.943 46.3308 194.943 52.1528ZM198.867 81.0146C199.057 89.025 191.119 91.3119 182.847 91.277C174.574 91.242 170.118 88.2255 170.15 80.8008C170.181 73.376 174.662 70.4528 182.934 70.4877C191.207 70.5226 198.676 73.0043 198.867 81.0146ZM327.755 95.1996C324.699 98.3896 320.161 100.314 313.742 100.314C299.387 100.314 292.952 90.6893 292.952 78.8161C292.952 66.943 301.713 57.3179 313.742 57.3179C319.017 57.3179 323.378 59.1693 326.613 62.2499C327.357 60.0114 328.479 58.5526 330.115 58.4473C332.26 57.8104 336.352 58.8295 335.56 68.0021C335.091 74.338 334.882 81.5964 335.871 87.8936C336.051 89.0399 336.244 90.1301 336.425 91.1543C337.221 95.6492 337.792 98.8725 336.055 99.9901C333.761 101.156 329.946 101.331 327.755 95.1996ZM325.318 78.8193C325.318 87.9286 319.999 91.9073 313.438 91.9073C306.877 91.9073 301.559 86.0476 301.559 78.8193C301.559 71.591 306.877 65.7313 313.438 65.7313C319.999 65.7313 325.318 70.895 325.318 78.8193ZM248.516 95.0792C245.459 98.2599 240.921 100.179 234.5 100.179C220.146 100.179 213.711 90.5845 213.711 78.7488C213.711 66.913 222.472 57.3182 234.5 57.3182C239.777 57.3182 244.138 59.1644 247.373 62.2359C248.117 60.0036 249.24 58.5487 250.876 58.4438C253.021 57.8088 257.113 58.8248 256.321 67.9684C255.852 74.2844 255.642 81.5199 256.632 87.7973C256.812 88.94 257.005 90.0267 257.186 91.0476C257.982 95.5284 258.553 98.7416 256.816 99.8557C254.521 101.017 250.707 101.193 248.516 95.0792ZM246.107 78.7513C246.107 87.8318 240.788 91.798 234.227 91.798C227.666 91.798 222.347 85.9568 222.347 78.7513C222.347 71.5457 227.666 65.7045 234.227 65.7045C240.788 65.7045 246.107 70.8519 246.107 78.7513ZM270.956 57.5132C266.346 57.6577 260.999 58.4839 260.999 62.0122C260.999 65.5446 266.359 66.3686 270.972 66.5117C270.967 74.9885 270.958 87.2489 270.948 87.5991L270.944 87.7334C270.819 92.1583 270.591 100.166 275.849 100.166C281.106 100.166 280.879 92.1582 280.753 87.7334L280.749 87.5991C280.74 87.2493 280.731 75.0129 280.726 66.537C285.614 66.5532 292.678 66.0674 292.678 62.0122C292.678 57.9616 285.63 57.4723 280.743 57.4872L280.749 57.2424C280.874 52.8475 281.16 42.7216 275.849 42.7216C270.538 42.7216 270.824 52.8475 270.948 57.2424L270.956 57.5132ZM350.191 57.512C345.582 57.6566 340.235 58.4829 340.235 62.011C340.235 65.5431 345.594 66.3673 350.207 66.5105C350.202 74.9873 350.194 87.2477 350.184 87.598L350.18 87.7323C350.054 92.1571 349.827 100.165 355.084 100.165C360.342 100.165 360.114 92.1571 359.989 87.7323L359.985 87.598C359.975 87.2481 359.966 75.0118 359.961 66.5358C364.85 66.5521 371.915 66.0665 371.915 62.011C371.915 57.9601 364.866 57.471 359.978 57.4861L359.985 57.2418V57.2412C360.109 52.8464 360.395 42.7204 355.084 42.7204C349.773 42.7204 350.06 52.8464 350.184 57.2412L350.191 57.512ZM407.564 95.1986C404.508 98.3891 399.969 100.314 393.549 100.314C379.195 100.314 372.76 90.6892 372.76 78.8161C372.76 66.9429 381.521 57.3178 393.549 57.3178C398.826 57.3178 403.187 59.1696 406.422 62.2507C407.166 60.0117 408.288 58.5525 409.925 58.4473C412.069 57.8103 416.161 58.8295 415.369 68.0021C414.9 74.3379 414.691 81.5964 415.68 87.8935C415.86 89.0398 416.053 90.13 416.235 91.1542C417.031 95.6491 417.601 98.8724 415.864 99.99C413.57 101.155 409.755 101.331 407.564 95.1986ZM405.125 78.8192C405.125 87.9285 399.806 91.9072 393.245 91.9072C386.685 91.9072 381.366 86.0475 381.366 78.8192C381.366 71.591 386.685 65.7313 393.245 65.7313C399.806 65.7313 405.125 70.8949 405.125 78.8192Z"/>
</mask>
<path fill-rule="evenodd" clip-rule="evenodd" d="M163.337 92.4937C163.107 91.5701 162.913 90.5717 162.757 89.4986C162.496 88.0156 162.37 86.353 162.314 84.4954C162.23 83.0246 162.156 81.3546 162.09 79.4855C162.031 76.0404 162.001 72.4765 162.001 68.7938V63.1806C162.06 61.1611 162.09 59.2009 162.09 57.3002C162.149 55.34 162.209 53.5284 162.268 51.8652L162.276 51.6541C162.296 49.1393 162.469 46.9399 162.879 45.0341C163.03 44.1752 163.212 43.3635 163.427 42.5991C163.842 41.1141 164.615 39.837 165.743 38.7679C166.603 37.9939 167.697 37.36 169.023 36.8661C172.019 35.4689 176.251 34.8279 182.16 34.8279C194.141 34.8279 203.853 41.4277 203.853 52.1524C203.853 57.6326 201.317 62.0358 197.238 65.0317C204.177 68.0698 208.803 73.7602 208.803 81.3566C208.803 93.0006 197.934 100.166 184.527 100.166C178.456 100.021 174.033 99.5022 170.814 98.5041C170.633 98.4627 170.458 98.4194 170.287 98.3742C168.268 97.8396 166.693 97.0971 165.565 96.1467C164.496 95.137 163.753 93.9193 163.337 92.4937ZM194.943 52.1528C194.943 57.9747 189.162 61.5575 182.03 61.5575C174.899 61.5575 170.194 58.8704 170.194 52.1528C170.194 45.4351 174.899 42.748 182.03 42.748C189.162 42.748 194.943 46.3308 194.943 52.1528ZM198.867 81.0146C199.057 89.025 191.119 91.3119 182.847 91.277C174.574 91.242 170.118 88.2255 170.15 80.8008C170.181 73.376 174.662 70.4528 182.934 70.4877C191.207 70.5226 198.676 73.0043 198.867 81.0146ZM327.755 95.1996C324.699 98.3896 320.161 100.314 313.742 100.314C299.387 100.314 292.952 90.6893 292.952 78.8161C292.952 66.943 301.713 57.3179 313.742 57.3179C319.017 57.3179 323.378 59.1693 326.613 62.2499C327.357 60.0114 328.479 58.5526 330.115 58.4473C332.26 57.8104 336.352 58.8295 335.56 68.0021C335.091 74.338 334.882 81.5964 335.871 87.8936C336.051 89.0399 336.244 90.1301 336.425 91.1543C337.221 95.6492 337.792 98.8725 336.055 99.9901C333.761 101.156 329.946 101.331 327.755 95.1996ZM325.318 78.8193C325.318 87.9286 319.999 91.9073 313.438 91.9073C306.877 91.9073 301.559 86.0476 301.559 78.8193C301.559 71.591 306.877 65.7313 313.438 65.7313C319.999 65.7313 325.318 70.895 325.318 78.8193ZM248.516 95.0792C245.459 98.2599 240.921 100.179 234.5 100.179C220.146 100.179 213.711 90.5845 213.711 78.7488C213.711 66.913 222.472 57.3182 234.5 57.3182C239.777 57.3182 244.138 59.1644 247.373 62.2359C248.117 60.0036 249.24 58.5487 250.876 58.4438C253.021 57.8088 257.113 58.8248 256.321 67.9684C255.852 74.2844 255.642 81.5199 256.632 87.7973C256.812 88.94 257.005 90.0267 257.186 91.0476C257.982 95.5284 258.553 98.7416 256.816 99.8557C254.521 101.017 250.707 101.193 248.516 95.0792ZM246.107 78.7513C246.107 87.8318 240.788 91.798 234.227 91.798C227.666 91.798 222.347 85.9568 222.347 78.7513C222.347 71.5457 227.666 65.7045 234.227 65.7045C240.788 65.7045 246.107 70.8519 246.107 78.7513ZM270.956 57.5132C266.346 57.6577 260.999 58.4839 260.999 62.0122C260.999 65.5446 266.359 66.3686 270.972 66.5117C270.967 74.9885 270.958 87.2489 270.948 87.5991L270.944 87.7334C270.819 92.1583 270.591 100.166 275.849 100.166C281.106 100.166 280.879 92.1582 280.753 87.7334L280.749 87.5991C280.74 87.2493 280.731 75.0129 280.726 66.537C285.614 66.5532 292.678 66.0674 292.678 62.0122C292.678 57.9616 285.63 57.4723 280.743 57.4872L280.749 57.2424C280.874 52.8475 281.16 42.7216 275.849 42.7216C270.538 42.7216 270.824 52.8475 270.948 57.2424L270.956 57.5132ZM350.191 57.512C345.582 57.6566 340.235 58.4829 340.235 62.011C340.235 65.5431 345.594 66.3673 350.207 66.5105C350.202 74.9873 350.194 87.2477 350.184 87.598L350.18 87.7323C350.054 92.1571 349.827 100.165 355.084 100.165C360.342 100.165 360.114 92.1571 359.989 87.7323L359.985 87.598C359.975 87.2481 359.966 75.0118 359.961 66.5358C364.85 66.5521 371.915 66.0665 371.915 62.011C371.915 57.9601 364.866 57.471 359.978 57.4861L359.985 57.2418V57.2412C360.109 52.8464 360.395 42.7204 355.084 42.7204C349.773 42.7204 350.06 52.8464 350.184 57.2412L350.191 57.512ZM407.564 95.1986C404.508 98.3891 399.969 100.314 393.549 100.314C379.195 100.314 372.76 90.6892 372.76 78.8161C372.76 66.9429 381.521 57.3178 393.549 57.3178C398.826 57.3178 403.187 59.1696 406.422 62.2507C407.166 60.0117 408.288 58.5525 409.925 58.4473C412.069 57.8103 416.161 58.8295 415.369 68.0021C414.9 74.3379 414.691 81.5964 415.68 87.8935C415.86 89.0398 416.053 90.13 416.235 91.1542C417.031 95.6491 417.601 98.8724 415.864 99.99C413.57 101.155 409.755 101.331 407.564 95.1986ZM405.125 78.8192C405.125 87.9285 399.806 91.9072 393.245 91.9072C386.685 91.9072 381.366 86.0475 381.366 78.8192C381.366 71.591 386.685 65.7313 393.245 65.7313C399.806 65.7313 405.125 70.8949 405.125 78.8192Z" fill="#3F3E67"/>
<path d="M162.757 89.4986L163.747 89.3546L163.744 89.3399L163.742 89.3253L162.757 89.4986ZM163.337 92.4937L162.367 92.7363L162.372 92.7551L162.377 92.7737L163.337 92.4937ZM162.314 84.4954L163.314 84.4653L163.313 84.452L163.312 84.4386L162.314 84.4954ZM162.09 79.4855L161.09 79.5027L161.09 79.5116L161.091 79.5205L162.09 79.4855ZM162.001 63.1806L161.001 63.1512L161.001 63.1659V63.1806H162.001ZM162.09 57.3002L161.091 57.2699L161.09 57.285V57.3002H162.09ZM162.268 51.8652L161.269 51.8286L161.269 51.8295L162.268 51.8652ZM162.276 51.6541L163.275 51.6908L163.276 51.6764L163.276 51.662L162.276 51.6541ZM162.879 45.0341L163.856 45.2444L163.86 45.226L163.864 45.2074L162.879 45.0341ZM163.427 42.5991L162.464 42.3294L162.464 42.3294L163.427 42.5991ZM165.743 38.7679L165.074 38.0246L165.065 38.0331L165.055 38.0419L165.743 38.7679ZM169.023 36.8661L169.372 37.8033L169.41 37.7893L169.446 37.7724L169.023 36.8661ZM197.238 65.0317L196.646 64.2257L195.249 65.2522L196.837 65.9477L197.238 65.0317ZM184.527 100.166L184.503 101.166L184.515 101.166H184.527V100.166ZM170.814 98.5041L171.11 97.5489L171.074 97.5378L171.037 97.5295L170.814 98.5041ZM170.287 98.3742L170.543 97.4075L170.543 97.4075L170.287 98.3742ZM165.565 96.1467L164.878 96.8737L164.899 96.8933L164.921 96.9116L165.565 96.1467ZM182.847 91.277L182.851 90.277L182.847 91.277ZM182.934 70.4877L182.93 71.4877L182.934 70.4877ZM327.755 95.1996L328.697 94.8631L328.153 93.3395L327.033 94.5078L327.755 95.1996ZM326.613 62.2499L325.923 62.974L327.064 64.0611L327.562 62.5653L326.613 62.2499ZM330.115 58.4473L330.179 59.4453L330.292 59.4381L330.4 59.406L330.115 58.4473ZM335.56 68.0021L334.564 67.9161L334.563 67.9283L335.56 68.0021ZM335.871 87.8936L336.859 87.7384L336.859 87.7384L335.871 87.8936ZM336.425 91.1543L337.41 90.9799L337.41 90.9799L336.425 91.1543ZM336.055 99.9901L336.508 100.882L336.553 100.859L336.596 100.831L336.055 99.9901ZM248.516 95.0792L249.457 94.7418L248.913 93.2227L247.795 94.3863L248.516 95.0792ZM247.373 62.2359L246.684 62.9611L247.824 64.0438L248.321 62.5522L247.373 62.2359ZM250.876 58.4438L250.94 59.4417L251.052 59.4345L251.16 59.4026L250.876 58.4438ZM256.321 67.9684L255.324 67.8822L255.323 67.8944L256.321 67.9684ZM256.632 87.7973L255.644 87.9529L255.644 87.9529L256.632 87.7973ZM257.186 91.0476L256.201 91.2225L256.201 91.2225L257.186 91.0476ZM256.816 99.8557L257.267 100.748L257.313 100.725L257.356 100.697L256.816 99.8557ZM270.956 57.5132L270.987 58.5127L271.983 58.4814L271.955 57.4851L270.956 57.5132ZM270.972 66.5117L271.972 66.5122L271.972 65.5422L271.003 65.5121L270.972 66.5117ZM270.948 87.5991L271.948 87.6275L271.948 87.6274L270.948 87.5991ZM270.944 87.7334L271.944 87.7618L271.944 87.7618L270.944 87.7334ZM280.753 87.7334L279.754 87.7617L279.754 87.7618L280.753 87.7334ZM280.749 87.5991L279.75 87.6274L279.75 87.6274L280.749 87.5991ZM280.726 66.537L280.729 65.537L279.725 65.5337L279.726 66.5376L280.726 66.537ZM280.743 57.4872L279.743 57.4591L279.714 58.4904L280.746 58.4872L280.743 57.4872ZM280.749 57.2424L279.75 57.2142L279.75 57.2143L280.749 57.2424ZM275.849 42.7216L275.849 41.7216H275.849V42.7216ZM270.948 57.2424L271.948 57.2144L271.948 57.2142L270.948 57.2424ZM350.191 57.512L350.223 58.5115L351.219 58.4803L351.191 57.484L350.191 57.512ZM350.207 66.5105L351.207 66.511L351.208 65.541L350.238 65.5109L350.207 66.5105ZM350.184 87.598L351.183 87.6263L351.183 87.6262L350.184 87.598ZM350.18 87.7323L351.179 87.7606L351.179 87.7605L350.18 87.7323ZM359.989 87.7323L358.989 87.7606L358.989 87.7607L359.989 87.7323ZM359.985 87.598L358.985 87.6262L358.985 87.6262L359.985 87.598ZM359.961 66.5358L359.965 65.5359L358.961 65.5325L358.961 66.5364L359.961 66.5358ZM359.978 57.4861L358.979 57.458L358.95 58.4892L359.981 58.4861L359.978 57.4861ZM359.985 57.2418L360.985 57.2699L360.985 57.2559V57.2418H359.985ZM359.985 57.2412L358.985 57.213L358.985 57.2271V57.2412H359.985ZM355.084 42.7204L355.084 41.7204H355.084V42.7204ZM350.184 57.2412L351.183 57.2132L351.183 57.213L350.184 57.2412ZM407.564 95.1986L408.506 94.8622L407.962 93.3382L406.842 94.5069L407.564 95.1986ZM406.422 62.2507L405.732 62.9748L406.873 64.0622L407.371 62.5661L406.422 62.2507ZM409.925 58.4473L409.989 59.4452L410.101 59.438L410.209 59.4059L409.925 58.4473ZM415.369 68.0021L414.373 67.916L414.372 67.9282L415.369 68.0021ZM415.68 87.8935L416.668 87.7383L416.668 87.7383L415.68 87.8935ZM416.235 91.1542L417.219 90.9798L417.219 90.9798L416.235 91.1542ZM415.864 99.99L416.317 100.882L416.363 100.859L416.405 100.831L415.864 99.99ZM161.767 89.6425C161.928 90.7444 162.127 91.7761 162.367 92.7363L164.308 92.2512C164.086 91.3642 163.898 90.3991 163.747 89.3546L161.767 89.6425ZM161.314 84.5256C161.371 86.4057 161.499 88.1218 161.772 89.6719L163.742 89.3253C163.493 87.9094 163.369 86.3003 163.314 84.4653L161.314 84.5256ZM161.091 79.5205C161.156 81.3951 161.231 83.0725 161.316 84.5523L163.312 84.4386C163.229 82.9766 163.155 81.3141 163.089 79.4504L161.091 79.5205ZM161.001 68.7938C161.001 72.4818 161.031 76.0515 161.09 79.5027L163.09 79.4682C163.031 76.0293 163.001 72.4711 163.001 68.7938H161.001ZM161.001 63.1806V68.7938H163.001V63.1806H161.001ZM161.09 57.3002C161.09 59.1905 161.061 61.1409 161.001 63.1512L163.001 63.21C163.06 61.1813 163.09 59.2113 163.09 57.3002H161.09ZM161.269 51.8295C161.209 53.4948 161.15 55.3082 161.091 57.2699L163.09 57.3305C163.149 55.3718 163.208 53.562 163.268 51.9009L161.269 51.8295ZM161.277 51.6175L161.269 51.8286L163.268 51.9019L163.275 51.6908L161.277 51.6175ZM161.901 44.8238C161.471 46.822 161.296 49.0963 161.276 51.6463L163.276 51.662C163.295 49.1824 163.466 47.0578 163.856 45.2444L161.901 44.8238ZM162.464 42.3294C162.24 43.1286 162.05 43.9726 161.894 44.8609L163.864 45.2074C164.01 44.3778 164.185 43.5985 164.39 42.8687L162.464 42.3294ZM165.055 38.0419C163.797 39.2344 162.929 40.6688 162.464 42.3294L164.39 42.8687C164.756 41.5594 165.432 40.4397 166.431 39.4938L165.055 38.0419ZM168.675 35.9289C167.255 36.4571 166.046 37.1499 165.074 38.0246L166.412 39.5112C167.16 38.8379 168.138 38.2628 169.372 37.8033L168.675 35.9289ZM182.16 33.8279C176.207 33.8279 171.798 34.4688 168.601 35.9598L169.446 37.7724C172.241 36.4689 176.295 35.8279 182.16 35.8279V33.8279ZM204.853 52.1524C204.853 46.4537 202.259 41.8374 198.105 38.6729C193.972 35.5242 188.323 33.8279 182.16 33.8279V35.8279C187.977 35.8279 193.175 37.4315 196.893 40.2639C200.591 43.0804 202.853 47.1264 202.853 52.1524H204.853ZM197.83 65.8376C202.143 62.6698 204.853 57.9778 204.853 52.1524H202.853C202.853 57.2875 200.491 61.4017 196.646 64.2257L197.83 65.8376ZM209.803 81.3566C209.803 73.279 204.858 67.2764 197.639 64.1156L196.837 65.9477C203.496 68.8632 207.803 74.2413 207.803 81.3566H209.803ZM184.527 101.166C191.397 101.166 197.687 99.3318 202.287 95.932C206.908 92.5163 209.803 87.5276 209.803 81.3566H207.803C207.803 86.8296 205.263 91.2456 201.098 94.3237C196.912 97.4177 191.064 99.1661 184.527 99.1661V101.166ZM170.517 99.4593C173.872 100.499 178.406 101.021 184.503 101.166L184.551 99.1664C178.507 99.0223 174.195 98.5053 171.11 97.5489L170.517 99.4593ZM170.031 99.3409C170.213 99.389 170.399 99.435 170.59 99.4787L171.037 97.5295C170.867 97.4904 170.703 97.4498 170.543 97.4075L170.031 99.3409ZM164.921 96.9116C166.199 97.9881 167.924 98.7832 170.031 99.3409L170.543 97.4075C168.611 96.896 167.188 96.2061 166.209 95.3818L164.921 96.9116ZM162.377 92.7737C162.842 94.3682 163.679 95.7407 164.878 96.8737L166.252 95.4197C165.313 94.5332 164.664 93.4704 164.297 92.2137L162.377 92.7737ZM182.03 62.5575C185.75 62.5575 189.19 61.6251 191.731 59.8596C194.295 58.0787 195.943 55.4396 195.943 52.1528H193.943C193.943 54.6878 192.7 56.7512 190.59 58.2171C188.458 59.6985 185.442 60.5575 182.03 60.5575V62.5575ZM169.194 52.1528C169.194 55.773 170.479 58.4502 172.847 60.1816C175.16 61.8721 178.367 62.5575 182.03 62.5575V60.5575C178.562 60.5575 175.851 59.8994 174.028 58.5669C172.261 57.2754 171.194 55.2502 171.194 52.1528H169.194ZM182.03 41.748C178.367 41.748 175.16 42.4334 172.847 44.1239C170.479 45.8553 169.194 48.5325 169.194 52.1528H171.194C171.194 49.0554 172.261 47.0301 174.028 45.7386C175.851 44.4061 178.562 43.748 182.03 43.748V41.748ZM195.943 52.1528C195.943 48.8659 194.295 46.2268 191.731 44.4459C189.19 42.6804 185.75 41.748 182.03 41.748V43.748C185.442 43.748 188.458 44.607 190.59 46.0884C192.7 47.5543 193.943 49.6177 193.943 52.1528H195.943ZM182.842 92.2769C187.04 92.2947 191.286 91.729 194.494 90.0486C196.112 89.2012 197.493 88.0561 198.453 86.5364C199.416 85.011 199.918 83.1675 199.866 80.9908L197.867 81.0385C197.91 82.8669 197.491 84.3132 196.762 85.4683C196.028 86.6293 194.943 87.5557 193.566 88.2769C190.785 89.7338 186.925 90.2942 182.851 90.277L182.842 92.2769ZM169.15 80.7965C169.133 84.7193 170.312 87.6657 172.766 89.596C175.168 91.4854 178.618 92.2591 182.842 92.2769L182.851 90.277C178.802 90.2599 175.889 89.5079 174.003 88.0241C172.168 86.5812 171.135 84.307 171.15 80.805L169.15 80.7965ZM182.939 69.4877C178.718 69.4699 175.261 70.1994 172.843 72.0532C170.37 73.9491 169.166 76.8735 169.15 80.7965L171.15 80.805C171.165 77.3033 172.217 75.0537 174.06 73.6405C175.958 72.1853 178.878 71.4706 182.93 71.4877L182.939 69.4877ZM199.866 80.9908C199.762 76.6034 197.627 73.6708 194.417 71.8864C191.277 70.141 187.145 69.5055 182.939 69.4877L182.93 71.4877C186.997 71.5049 190.735 72.1277 193.445 73.6344C196.086 75.1022 197.781 77.4156 197.867 81.0385L199.866 80.9908ZM313.742 101.314C320.372 101.314 325.194 99.3188 328.477 95.8914L327.033 94.5078C324.205 97.4603 319.95 99.3144 313.742 99.3144V101.314ZM291.952 78.8161C291.952 84.9221 293.607 90.5552 297.211 94.6761C300.835 98.8184 306.325 101.314 313.742 101.314V99.3144C306.803 99.3144 301.899 96.9978 298.717 93.3593C295.515 89.6994 293.952 84.5833 293.952 78.8161H291.952ZM313.742 56.3179C301.113 56.3179 291.952 66.4402 291.952 78.8161H293.952C293.952 67.4458 302.314 58.3179 313.742 58.3179V56.3179ZM327.302 61.5258C323.876 58.2627 319.266 56.3179 313.742 56.3179V58.3179C318.768 58.3179 322.88 60.076 325.923 62.974L327.302 61.5258ZM330.051 57.4494C327.746 57.5977 326.425 59.6434 325.664 61.9345L327.562 62.5653C328.288 60.3794 329.213 59.5075 330.179 59.4453L330.051 57.4494ZM336.556 68.0882C336.962 63.3961 336.149 60.5036 334.682 58.8764C333.175 57.2061 331.185 57.0866 329.831 57.4887L330.4 59.406C331.191 59.1711 332.319 59.2428 333.196 60.2159C334.113 61.2322 334.951 63.4356 334.564 67.9161L336.556 68.0882ZM336.859 87.7384C335.888 81.5584 336.09 74.3933 336.557 68.0759L334.563 67.9283C334.093 74.2827 333.875 81.6345 334.883 88.0488L336.859 87.7384ZM337.41 90.9799C337.229 89.9547 337.037 88.8737 336.859 87.7384L334.883 88.0488C335.065 89.2062 335.26 90.3056 335.441 91.3287L337.41 90.9799ZM336.596 100.831C337.936 99.9687 338.216 98.3848 338.19 96.8221C338.163 95.2168 337.803 93.1964 337.41 90.9799L335.441 91.3286C335.844 93.607 336.167 95.4458 336.19 96.8553C336.214 98.3073 335.911 98.8939 335.514 99.1491L336.596 100.831ZM326.814 95.5361C327.969 98.7705 329.632 100.55 331.511 101.266C333.37 101.974 335.2 101.546 336.508 100.882L335.602 99.0985C334.616 99.5994 333.391 99.8421 332.223 99.3968C331.072 98.9587 329.732 97.7607 328.697 94.8631L326.814 95.5361ZM313.438 92.9073C316.918 92.9073 320.164 91.8496 322.543 89.4891C324.926 87.1238 326.318 83.5704 326.318 78.8193H324.318C324.318 83.1775 323.05 86.1681 321.134 88.0695C319.213 89.9756 316.52 90.9073 313.438 90.9073V92.9073ZM300.559 78.8193C300.559 86.5065 306.236 92.9073 313.438 92.9073V90.9073C307.519 90.9073 302.559 85.5887 302.559 78.8193H300.559ZM313.438 64.7313C306.236 64.7313 300.559 71.1321 300.559 78.8193H302.559C302.559 72.05 307.519 66.7313 313.438 66.7313V64.7313ZM326.318 78.8193C326.318 70.3995 320.607 64.7313 313.438 64.7313V66.7313C319.392 66.7313 324.318 71.3905 324.318 78.8193H326.318ZM234.5 101.179C241.13 101.179 245.953 99.1898 249.237 95.772L247.795 94.3863C244.966 97.3301 240.711 99.1793 234.5 99.1793V101.179ZM212.711 78.7488C212.711 84.8368 214.366 90.4534 217.971 94.562C221.595 98.6916 227.085 101.179 234.5 101.179V99.1793C227.561 99.1793 222.657 96.8696 219.474 93.2429C216.273 89.5952 214.711 84.4965 214.711 78.7488H212.711ZM234.5 56.3182C221.874 56.3182 212.711 66.4072 212.711 78.7488H214.711C214.711 67.4188 223.07 58.3182 234.5 58.3182V56.3182ZM248.061 61.5108C244.635 58.2571 240.024 56.3182 234.5 56.3182V58.3182C239.529 58.3182 243.642 60.0717 246.684 62.9611L248.061 61.5108ZM250.812 57.4458C248.508 57.5936 247.186 59.6332 246.424 61.9197L248.321 62.5522C249.047 60.374 249.972 59.5038 250.94 59.4417L250.812 57.4458ZM257.317 68.0547C257.722 63.3765 256.91 60.4913 255.441 58.8682C253.934 57.2029 251.945 57.0844 250.592 57.4849L251.16 59.4026C251.952 59.1681 253.081 59.2402 253.958 60.21C254.874 61.2221 255.711 63.4168 255.324 67.8822L257.317 68.0547ZM257.619 87.6416C256.649 81.4818 256.85 74.3398 257.318 68.0425L255.323 67.8944C254.853 74.2289 254.636 81.5581 255.644 87.9529L257.619 87.6416ZM258.171 90.8728C257.989 89.8507 257.798 88.7732 257.619 87.6416L255.644 87.9529C255.826 89.1067 256.02 90.2027 256.201 91.2225L258.171 90.8728ZM257.356 100.697C258.697 99.8373 258.977 98.2565 258.951 96.6975C258.924 95.0966 258.563 93.0821 258.171 90.8728L256.201 91.2225C256.605 93.494 256.927 95.3263 256.951 96.7308C256.975 98.1771 256.672 98.7599 256.276 99.0139L257.356 100.697ZM247.574 95.4165C248.73 98.6426 250.394 100.417 252.272 101.131C254.131 101.837 255.959 101.41 257.267 100.748L256.364 98.9635C255.378 99.4629 254.152 99.7052 252.982 99.2609C251.831 98.8238 250.492 97.6294 249.457 94.7418L247.574 95.4165ZM234.227 92.798C237.705 92.798 240.952 91.744 243.331 89.3908C245.715 87.0324 247.107 83.4889 247.107 78.7513H245.107C245.107 83.0942 243.84 86.0741 241.924 87.9689C240.003 89.8689 237.31 90.798 234.227 90.798V92.798ZM221.347 78.7513C221.347 86.4188 227.028 92.798 234.227 92.798V90.798C228.305 90.798 223.347 85.4947 223.347 78.7513H221.347ZM234.227 64.7045C227.028 64.7045 221.347 71.0837 221.347 78.7513H223.347C223.347 72.0078 228.305 66.7045 234.227 66.7045V64.7045ZM247.107 78.7513C247.107 70.3534 241.393 64.7045 234.227 64.7045V66.7045C240.183 66.7045 245.107 71.3504 245.107 78.7513H247.107ZM261.999 62.0122C261.999 60.9113 262.783 60.0627 264.577 59.4382C266.341 58.8246 268.704 58.5842 270.987 58.5127L270.924 56.5136C268.598 56.5866 265.983 56.8315 263.92 57.5493C261.889 58.2561 259.999 59.5847 259.999 62.0122H261.999ZM271.003 65.5121C268.718 65.4413 266.35 65.2017 264.583 64.5882C262.785 63.9637 261.999 63.1142 261.999 62.0122H259.999C259.999 64.4425 261.893 65.7713 263.927 66.4776C265.994 67.195 268.613 67.439 270.941 67.5112L271.003 65.5121ZM271.948 87.6274C271.958 87.2587 271.967 74.9717 271.972 66.5122L269.972 66.5111C269.969 70.7495 269.966 75.9336 269.962 80.1019C269.96 82.1861 269.958 84.0161 269.955 85.3468C269.954 86.0122 269.953 86.5524 269.952 86.9371C269.951 87.1295 269.951 87.2823 269.95 87.3922C269.95 87.4473 269.949 87.4908 269.949 87.5228C269.949 87.5584 269.948 87.5712 269.948 87.5709L271.948 87.6274ZM271.944 87.7618L271.948 87.6275L269.948 87.5708L269.945 87.7051L271.944 87.7618ZM275.849 99.166C274.828 99.166 274.129 98.7938 273.6 98.1878C273.038 97.544 272.627 96.5861 272.353 95.386C271.802 92.9779 271.88 90.003 271.944 87.7618L269.945 87.7051C269.883 89.8887 269.785 93.1301 270.403 95.8321C270.713 97.187 271.224 98.5076 272.094 99.5034C272.996 100.537 274.241 101.166 275.849 101.166V99.166ZM279.754 87.7618C279.817 90.003 279.896 92.9778 279.345 95.3859C279.07 96.5861 278.66 97.544 278.097 98.1878C277.568 98.7938 276.87 99.166 275.849 99.166V101.166C277.456 101.166 278.701 100.537 279.604 99.5034C280.474 98.5075 280.984 97.187 281.294 95.832C281.913 93.13 281.815 89.8886 281.753 87.705L279.754 87.7618ZM279.75 87.6274L279.754 87.7617L281.753 87.7051L281.749 87.5709L279.75 87.6274ZM279.726 66.5376C279.731 74.9961 279.739 87.2591 279.75 87.6274L281.749 87.5709C281.749 87.5712 281.749 87.5585 281.748 87.5229C281.748 87.491 281.748 87.4475 281.748 87.3926C281.747 87.2829 281.746 87.1303 281.746 86.9382C281.745 86.5543 281.743 86.015 281.742 85.3508C281.74 84.0224 281.738 82.1955 281.736 80.1144C281.732 75.9523 281.728 70.7744 281.726 66.5364L279.726 66.5376ZM291.678 62.0122C291.678 62.6869 291.403 63.2096 290.858 63.664C290.279 64.1463 289.403 64.5386 288.28 64.8344C286.039 65.425 283.163 65.5451 280.729 65.537L280.722 67.537C283.177 67.5451 286.277 67.4304 288.79 66.7684C290.044 66.4378 291.24 65.9493 292.138 65.2004C293.07 64.4237 293.678 63.365 293.678 62.0122H291.678ZM280.746 58.4872C283.179 58.4798 286.051 58.601 288.288 59.1919C289.408 59.4879 290.282 59.8801 290.86 60.3619C291.404 60.8159 291.678 61.3381 291.678 62.0122H293.678C293.678 60.6609 293.072 59.603 292.141 58.8265C291.244 58.0778 290.051 57.5891 288.799 57.2583C286.29 56.5957 283.194 56.4797 280.739 56.4872L280.746 58.4872ZM279.75 57.2143L279.743 57.4591L281.742 57.5153L281.749 57.2705L279.75 57.2143ZM275.849 43.7216C276.793 43.7216 277.488 44.145 278.055 44.9489C278.653 45.7955 279.077 47.0348 279.354 48.5179C279.908 51.4758 279.812 54.9978 279.75 57.2142L281.749 57.2707C281.811 55.0921 281.92 51.3537 281.32 48.1499C281.021 46.5522 280.529 44.9854 279.69 43.796C278.82 42.5639 277.56 41.7216 275.849 41.7216L275.849 43.7216ZM271.948 57.2142C271.885 54.9978 271.789 51.4758 272.343 48.5179C272.621 47.0348 273.045 45.7955 273.642 44.9489C274.209 44.145 274.904 43.7216 275.849 43.7216V41.7216C274.138 41.7216 272.877 42.5639 272.008 43.796C271.169 44.9854 270.676 46.5522 270.377 48.1499C269.778 51.3537 269.887 55.0921 269.948 57.2707L271.948 57.2142ZM271.955 57.4851L271.948 57.2144L269.948 57.2705L269.956 57.5412L271.955 57.4851ZM341.235 62.011C341.235 60.9102 342.019 60.0616 343.814 59.4371C345.577 58.8236 347.939 58.5831 350.223 58.5115L350.16 56.5125C347.834 56.5855 345.219 56.8305 343.156 57.5483C341.125 58.2551 339.235 59.5837 339.235 62.011H341.235ZM350.238 65.5109C347.953 65.44 345.586 65.2004 343.82 64.5869C342.021 63.9624 341.235 63.1129 341.235 62.011H339.235C339.235 64.4412 341.129 65.7699 343.164 66.4763C345.23 67.1937 347.849 67.4377 350.176 67.51L350.238 65.5109ZM351.183 87.6262C351.194 87.2576 351.202 74.9705 351.207 66.511L349.207 66.5099C349.205 70.7483 349.201 75.9324 349.197 80.1007C349.195 82.1849 349.193 84.0149 349.191 85.3456C349.19 86.011 349.189 86.5513 349.187 86.9359C349.187 87.1283 349.186 87.2811 349.186 87.3911C349.185 87.4461 349.185 87.4896 349.185 87.5216C349.184 87.5573 349.184 87.57 349.184 87.5697L351.183 87.6262ZM351.179 87.7605L351.183 87.6263L349.184 87.5697L349.18 87.704L351.179 87.7605ZM355.084 99.1648C354.063 99.1648 353.365 98.7927 352.836 98.1866C352.273 97.5428 351.863 96.5849 351.588 95.3848C351.037 92.9767 351.116 90.0018 351.179 87.7606L349.18 87.7039C349.118 89.8875 349.02 93.1289 349.639 95.8309C349.949 97.1858 350.46 98.5064 351.329 99.5022C352.232 100.536 353.477 101.165 355.084 101.165V99.1648ZM358.989 87.7607C359.053 90.0019 359.131 92.9767 358.58 95.3848C358.306 96.5849 357.895 97.5428 357.333 98.1866C356.804 98.7927 356.105 99.1648 355.084 99.1648V101.165C356.692 101.165 357.937 100.536 358.839 99.5023C359.709 98.5064 360.22 97.1858 360.53 95.8309C361.148 93.1289 361.05 89.8875 360.988 87.7039L358.989 87.7607ZM358.985 87.6262L358.989 87.7606L360.988 87.704L360.985 87.5697L358.985 87.6262ZM358.961 66.5364C358.966 74.995 358.975 87.2579 358.985 87.6262L360.985 87.5698C360.985 87.5701 360.984 87.5573 360.984 87.5217C360.984 87.4898 360.983 87.4463 360.983 87.3914C360.983 87.2817 360.982 87.1291 360.981 86.937C360.98 86.5531 360.979 86.0139 360.978 85.3496C360.976 84.0212 360.973 82.1943 360.971 80.1132C360.967 75.9511 360.964 70.7732 360.961 66.5353L358.961 66.5364ZM370.915 62.011C370.915 62.6858 370.64 63.2085 370.094 63.663C369.515 64.1453 368.639 64.5375 367.516 64.8333C365.275 65.4239 362.399 65.5439 359.965 65.5359L359.958 67.5358C362.413 67.544 365.513 67.4293 368.026 66.7673C369.281 66.4368 370.476 65.9483 371.375 65.1994C372.307 64.4227 372.915 63.3639 372.915 62.011H370.915ZM359.981 58.4861C362.415 58.4786 365.286 58.5997 367.524 59.1907C368.644 59.4866 369.519 59.8788 370.096 60.3606C370.64 60.8146 370.915 61.3369 370.915 62.011H372.915C372.915 60.6597 372.308 59.6017 371.378 58.8252C370.481 58.0765 369.287 57.5878 368.035 57.257C365.526 56.5944 362.429 56.4785 359.975 56.4861L359.981 58.4861ZM358.985 57.2137L358.979 57.458L360.978 57.5142L360.985 57.2699L358.985 57.2137ZM358.985 57.2412V57.2418H360.985V57.2412H358.985ZM355.084 43.7204C356.029 43.7204 356.724 44.1439 357.291 44.9477C357.888 45.7943 358.312 47.0336 358.59 48.5168C359.144 51.4746 359.048 54.9966 358.985 57.213L360.985 57.2695C361.046 55.0909 361.156 51.3525 360.556 48.1487C360.257 46.551 359.764 44.9842 358.925 43.7948C358.056 42.5627 356.795 41.7204 355.084 41.7204L355.084 43.7204ZM351.183 57.213C351.121 54.9967 351.025 51.4746 351.579 48.5168C351.856 47.0336 352.281 45.7943 352.878 44.9477C353.445 44.1439 354.14 43.7204 355.084 43.7204V41.7204C353.373 41.7204 352.113 42.5627 351.243 43.7948C350.404 44.9842 349.912 46.551 349.613 48.1487C349.013 51.3525 349.123 55.0909 349.184 57.2695L351.183 57.213ZM351.191 57.484L351.183 57.2132L349.184 57.2693L349.192 57.5401L351.191 57.484ZM393.549 101.314C400.18 101.314 405.003 99.3184 408.286 95.8903L406.842 94.5069C404.014 97.4598 399.759 99.3143 393.549 99.3143V101.314ZM371.76 78.8161C371.76 84.922 373.415 90.5551 377.019 94.676C380.642 98.8183 386.133 101.314 393.549 101.314V99.3143C386.611 99.3143 381.707 96.9978 378.524 93.3592C375.323 89.6993 373.76 84.5832 373.76 78.8161H371.76ZM393.549 56.3178C380.921 56.3178 371.76 66.4401 371.76 78.8161H373.76C373.76 67.4457 382.122 58.3178 393.549 58.3178V56.3178ZM407.111 61.5267C403.685 58.263 399.074 56.3178 393.549 56.3178V58.3178C398.577 58.3178 402.689 60.0762 405.732 62.9748L407.111 61.5267ZM407.371 62.5661C408.097 60.3796 409.022 59.5074 409.989 59.4452L409.86 57.4493C407.555 57.5977 406.234 59.6438 405.473 61.9354L407.371 62.5661ZM410.209 59.4059C411 59.171 412.128 59.2427 413.006 60.2158C413.922 61.2321 414.76 63.4355 414.373 67.916L416.366 68.0881C416.771 63.396 415.958 60.5035 414.491 58.8763C412.984 57.206 410.994 57.0866 409.64 57.4886L410.209 59.4059ZM414.372 67.9282C413.902 74.2827 413.685 81.6344 414.692 88.0487L416.668 87.7383C415.697 81.5583 415.899 74.3932 416.367 68.0759L414.372 67.9282ZM414.692 88.0487C414.874 89.2061 415.069 90.3055 415.25 91.3285L417.219 90.9798C417.038 89.9545 416.846 88.8736 416.668 87.7383L414.692 88.0487ZM415.25 91.3285C415.653 93.6069 415.976 95.4457 415.999 96.8552C416.024 98.3072 415.72 98.8938 415.323 99.1491L416.405 100.831C417.746 99.9687 418.025 98.3847 417.999 96.822C417.973 95.2167 417.612 93.1963 417.219 90.9798L415.25 91.3285ZM415.411 99.0985C414.425 99.5993 413.2 99.842 412.032 99.3967C410.881 98.9585 409.541 97.7602 408.506 94.8622L406.623 95.535C407.778 98.7698 409.441 100.55 411.32 101.266C413.179 101.974 415.009 101.546 416.317 100.882L415.411 99.0985ZM393.245 92.9072C396.725 92.9072 399.971 91.8495 402.35 89.489C404.734 87.1237 406.125 83.5703 406.125 78.8192H404.125C404.125 83.1774 402.857 86.168 400.941 88.0694C399.02 89.9755 396.327 90.9072 393.245 90.9072V92.9072ZM380.366 78.8192C380.366 86.5065 386.043 92.9072 393.245 92.9072V90.9072C387.326 90.9072 382.366 85.5886 382.366 78.8192H380.366ZM393.245 64.7313C386.043 64.7313 380.366 71.132 380.366 78.8192H382.366C382.366 72.0499 387.326 66.7313 393.245 66.7313V64.7313ZM406.125 78.8192C406.125 70.3995 400.414 64.7313 393.245 64.7313V66.7313C399.199 66.7313 404.125 71.3904 404.125 78.8192H406.125Z" fill="#3F3E67" mask="url(#path-18-outside-1_343_8026)"/>
<defs>
<linearGradient id="paint0_linear_343_8026" x1="63.7482" y1="60.3271" x2="60.6438" y2="74.5193" gradientUnits="userSpaceOnUse">
<stop stop-color="#2B2B4C"/>
<stop offset="1" stop-color="#0C0C22"/>
</linearGradient>
</defs>
</svg>
