<svg width="160" height="80" viewBox="0 0 160 80" fill="none" xmlns="http://www.w3.org/2000/svg">
<path fill-rule="evenodd" clip-rule="evenodd" d="M63.9456 55.4692C66.7297 50.9522 68.3314 45.6591 68.3314 40C68.3314 23.4315 54.6019 10 37.6657 10C20.7295 10 7 23.4315 7 40C7 56.5685 20.7295 70 37.6657 70C46.2024 70 53.9245 66.5875 59.4842 61.0808L57.8306 59.5999H45.8864C44.7413 59.5999 43.6432 59.1504 42.8335 58.3502L14.363 32.3333C13.5129 31.4932 13.5161 30.1215 14.44 29.3614C16.9918 27.2617 20.206 25.345 23.4531 24.2331L61.4709 58.9131L61.4899 58.8902L68.5073 65.3005H74.8625L63.9456 55.4692ZM61.4136 53.2204V42.3859C61.4136 41.2637 60.9662 40.1866 60.1683 39.388L47.9097 28.3382C43.3034 24.8636 38.4763 22.7999 32.234 22.7999C30.919 22.7999 29.6255 22.8915 28.3599 23.0686L61.4136 53.2204Z" fill="#5C6BEF"/>
<path d="M129.74 25.4311V65.3005H137.16V22.5266L129.74 25.4311Z" fill="#5C6BEF"/>
<path d="M114.9 65.3005V34.4928H122.301V65.3005H114.9Z" fill="#5C6BEF"/>
<path d="M144.58 25.4311V65.3005H152V22.5266L144.58 25.4311Z" fill="#5C6BEF"/>
<path d="M78.5725 34.4422H85.6833V50.9407C85.6833 55.0459 88.1567 58.2734 92.7942 58.2734C96.8134 58.2734 99.9051 54.9748 99.9051 50.9407V34.4926H107.46V65.3004L99.9051 65.3005V60.1065C99.9051 60.1065 97.7409 65.3005 90.4755 65.3005C83.21 65.3005 78.5724 59.0002 78.5725 53.0794V34.4422Z" fill="#5C6BEF"/>
<path d="M115.721 29.5723C116.475 30.4148 117.479 30.7759 118.61 30.7759C119.74 30.7759 120.745 30.4148 121.499 29.5723C122.252 28.8501 122.629 27.8873 122.629 26.804C122.629 25.7208 122.252 24.8783 121.499 24.0358C120.745 23.1932 119.74 22.8322 118.61 22.8322C117.479 22.8322 116.475 23.1932 115.721 24.0358C114.967 24.7579 114.591 25.7208 114.591 26.804C114.591 27.8873 114.967 28.7298 115.721 29.5723Z" fill="#5C6BEF"/>
</svg>
