<?xml version="1.0" standalone="no"?><!DOCTYPE svg PUBLIC "-//W3C//DTD SVG 1.1//EN" "http://www.w3.org/Graphics/SVG/1.1/DTD/svg11.dtd"><svg t="1536992640131" class="icon" style="" viewBox="0 0 1024 1024" version="1.1" xmlns="http://www.w3.org/2000/svg" p-id="1624" xmlns:xlink="http://www.w3.org/1999/xlink" width="128" height="128"><defs><style type="text/css"></style></defs><path d="M298.666667 128c-32 0-52.010667 10.666667-42.666667 42.666667 51.2 175.36 85.333333 288 85.333333 384 0 118.656-35.669333 169.984-42.666666 170.666666 31.488 32.170667 77.013333 42.666667 106.666666 42.666667 29.653333 0 75.178667-10.496 106.666667-42.666667 31.488 32.170667 77.013333 42.666667 106.666667 42.666667 29.653333 0 75.178667-10.496 106.666666-42.666667 31.488 32.170667 77.013333 42.666667 106.666667 42.666667 6.314667 0 13.824-0.341333 21.333333-1.322667C852.352 556.8 677.162667 378.453333 597.333333 298.666667c-56.32-56.32-225.834667-170.666667-298.666666-170.666667zM85.333333 810.666667v85.333333c31.488 32.170667 77.013333 42.666667 106.666667 42.666667 29.653333 0 75.178667-10.496 106.666667-42.666667 31.488 32.170667 77.013333 42.666667 106.666666 42.666667 29.653333 0 75.178667-10.496 106.666667-42.666667 31.488 32.170667 77.013333 42.666667 106.666667 42.666667 29.653333 0 75.178667-10.496 106.666666-42.666667 31.488 32.170667 77.013333 42.666667 106.666667 42.666667 29.653333 0 75.178667-10.496 106.666667-42.666667v-85.333333c-31.488 32.170667-77.013333 42.666667-106.666667 42.666666-29.653333 0-75.178667-10.496-106.666667-42.666666-31.488 32.170667-77.013333 42.666667-106.666666 42.666666-29.653333 0-75.178667-10.496-106.666667-42.666666-31.488 32.170667-77.013333 42.666667-106.666667 42.666666-29.653333 0-75.178667-10.496-106.666666-42.666666-31.488 32.170667-77.013333 42.666667-106.666667 42.666666-29.653333 0-75.178667-10.496-106.666667-42.666666z" fill="#343a40" p-id="1625"></path></svg>