<?xml version="1.0" encoding="utf-8"?>
<!-- Generator: Adobe Illustrator 24.2.1, SVG Export Plug-In . SVG Version: 6.00 Build 0)  -->
<svg version="1.1" id="图层_1" xmlns="http://www.w3.org/2000/svg" xmlns:xlink="http://www.w3.org/1999/xlink" x="0px" y="0px"
	 viewBox="0 0 418 137" style="enable-background:new 0 0 418 137;" xml:space="preserve">
<style type="text/css">
	.st0{fill-rule:evenodd;clip-rule:evenodd;fill:#2B2B4C;}
	.st1{fill:#DB5E73;}
	.st2{fill-rule:evenodd;clip-rule:evenodd;fill:#DB5E73;}
	.st3{fill:#D65A6E;}
	.st4{fill:#C03148;}
	.st5{fill-rule:evenodd;clip-rule:evenodd;fill:#AA3751;}
	.st6{fill:url(#SVGID_1_);}
	.st7{fill:#F1F3F3;}
	.st8{fill:#2B2B4D;}
	.st9{fill:#A82A3E;}
	.st10{fill:#FDDF96;}
	.st11{fill:#FF9500;}
	.st12{fill:#FFB237;}
	.st13{fill-rule:evenodd;clip-rule:evenodd;fill:#D65A6E;}
	.st14{fill-rule:evenodd;clip-rule:evenodd;fill:#EAEEF3;}
</style>
<path class="st0" d="M20.2,55.2c-0.5-0.2-1.2-0.4-1.8-0.6l-1.6,6.8c0.2,0,0.5,0.1,1.1,0.3c0.1,0,0.1,0.1,0.2,0.1
	c0.5,0.2,1.1,0.4,1.7,0.6c1.5,0.5,3.4,0.9,5.6,0.9c4.7,0,9.7-2.3,14.7-8.6l-5.5-4.3c-3.9,5-7.1,5.9-9.3,5.9c-1.2,0-2.3-0.2-3.5-0.6
	c-0.5-0.2-0.9-0.3-1.4-0.5C20.3,55.2,20.2,55.2,20.2,55.2z"/>
<path class="st1" d="M29.1,35.5c-1.3-0.7-2.9-0.8-4.2-0.3c-1.9,0.8-4.3,3.1-4.8,5c-0.3,1-0.2,1.9-0.2,2.8c0,1.1,0.1,2.2-0.4,3.4
	c-0.4,0.6-1.2,0-2.2-0.7c-0.3-0.2-0.6-0.5-0.9-0.7c-1.9-1.3-3.8-2.4-6.1-3c-1.5-0.4-3.3-0.6-4.7,0.4c-1,0.7-2,1.8-2.3,3.2
	c-0.3,1.6,0.9,3.2,2,4.1c1.9,1.7,3.9,3.2,6.4,3.9c1,0.2,2.6-0.2,3.5-0.9c1.3-1,1.7-2.8,1.2-4.2c-0.4-1.2-1.3-2.2-2.3-2.9
	c0.3-0.2,0.5,0,0.8,0.2l0,0c0.1,0.1,0.2,0.2,0.3,0.2c1.5,1.1,3.1,2.6,3,4.6c-0.2,1.4-0.7,2.9-2,3.6c-0.1,0.1-0.3,0.2-0.4,0.2
	c-0.4,0.2-0.8,0.4-0.9,0.9c-0.7,2.5-0.1,5.3,1.2,7.5c0.1,0.1,0.1,0.2,0.2,0.3c0.2,0.3,0.4,0.6,0.4,0.9c-1.6-0.9-2.5-2.5-3-4.2
	c-0.2,0.2-0.3,0.4-0.5,0.6c1.4,2.4,1.6,5.1-0.2,7.1c0.2,0,0.8,0.1,0.9,0.1c0.1,0,0.2,0,0.3,0c6.2,1,10.9-5.6,10.9-11.4
	c0-0.5,0-1,0-1.5c0-0.6,0.1-1.2,0-1.8c0-0.5-0.1-1.1-0.1-1.6l0,0c0-0.6,0-1.3,0-2c0.2-3.5,2.5-6.4,4.9-8.8l0.1-0.1
	c0.5-0.6,1.2-1.3,1.1-2.2C31.1,36.9,30.2,35.9,29.1,35.5z"/>
<path class="st2" d="M3.8,49.4c2.4,2.5,5.4,4.6,8.8,5.4c2.6,1.2,0.1,8-5.9,5.5c-1.6-0.7-3.4-1.4-4.8-2.4c-1.7-1.2-2.2-3.5-1.6-5.4
	C0.7,50.8,1.9,49.5,3.8,49.4z"/>
<path class="st2" d="M8.4,61.5C6.1,61.1,3.6,60,1.6,59c-1.6,0.8-1.8,3.2-1,4.5c1.1,1.7,3,3,4.8,3.8c1.7,0.9,3.8,1.4,5.7,0.7
	c2.9-1,3-4.8,1.5-7C11.6,61.5,9.7,61.7,8.4,61.5z"/>
<path class="st3" d="M70.6,11.3c5.5-4.5,10.5-8.5,16-8.5c18.5,0,28.9,44.4,20.8,76.5c-9.4,37.4-40,49.8-54,52.2
	c-9.8,1.6-15.6,0.7-18.5-2.1c-4.3-4.2-2.4-10.1-1.9-15.7c0.7-8.8-2.8-18-4.4-26.5c-2.3-11.9-2.2-24.8,2.1-36
	C41.6,23.3,59.9,20.1,70.6,11.3z"/>
<path class="st0" d="M116.1,72c0,0,0,0,0.6,3.4s0.6,3.4,0.6,3.4l0,0l0,0l0,0l0,0h-0.1c-0.1,0-0.2,0-0.4,0c-0.3,0-0.7,0.1-1.2,0.1
	c-1,0-2.3-0.1-3.8-0.5c-3.1-0.8-6.8-2.8-9.6-7.4l5.9-3.7c1.8,2.8,3.9,3.9,5.4,4.3c0.8,0.2,1.5,0.3,2,0.3C115.8,72,115.9,72,116.1,72
	L116.1,72L116.1,72L116.1,72L116.1,72L116.1,72L116.1,72z"/>
<path class="st4" d="M57.6,120.9c-6.6,12.5-16.9,10.8-22.4,8.4c2.9,2.8,8.6,3.8,18.3,2.2c14-2.4,44.5-14.9,53.9-52.2
	c6.1-24.4,1.6-56.1-9.1-69.7c2.5,5.5,3.9,11.8,4.3,16.7c3,31.5,1.8,62.5-31.7,81.4C64.9,112,60,117.5,57.6,120.9z"/>
<path class="st5" d="M91,13.8c0.2,0,0-0.4-0.2-0.6c-1.3-1.3-6.5-5.1-7-2.6c0.4,0.1,0.9,0.2,1.3,0.2s0.9,0.1,1.3,0.2
	C87.9,11.4,89.6,12.6,91,13.8z M74.8,14.8c-0.1,0.4-0.6,0.2-1,0c-1.9-1-3.8-1.5-5.7-1.6c0.3-0.2,0.6-0.4,0.9-0.7
	c0.2,0,0.5,0.1,0.6,0.1C71.4,12.8,73.2,13.5,74.8,14.8z M31.7,99.9c0.3,0,0.9-0.1,1.6-0.3c1-0.2,2.2-0.4,2.9-0.4c0.5,0,1,0,1.5,0
	c0.9,0,1.7,0,1.7-0.2c-0.4-0.6-1.9-0.7-3.7-0.6c-1.6,0.1-2.9,0.7-3.9,1.2c-0.1,0-0.1,0.1-0.2,0.1C31.7,99.8,31.7,99.8,31.7,99.9z
	 M28.3,84.8c0.3-0.1,0.6-0.1,0.9-0.2c0.5-0.1,1-0.2,1.4-0.3c1.4-0.3,2.9-0.6,4.4-0.8c1.2-0.1,2.4,0,3.6,0l0,0l0,0l0,0l0,0l0,0l0,0
	l0,0l0,0l0,0l0,0l0,0l0,0l0,0l0,0l0,0l0,0l0,0l0,0l0,0l0,0l0,0l0,0l0,0l0,0l0,0l0,0l0,0l0,0l0,0l0,0l0,0l0,0
	c0.9,0.1,1.8,0.1,2.7,0.1c-1.2-0.9-2.6-1.2-3.7-1.3c-3.5-0.4-6.7,0.1-9.5,1.4C28.2,84.2,28.2,84.5,28.3,84.8z M102.4,30.1
	c-1.1-0.8-2.4-1.4-3.6-1.7c-1-0.1-2.2-0.6-3.2-1.3c0.3-0.3,0.8-0.2,1.2-0.1l0,0l0,0l0,0l0,0l0,0c0.1,0,0.1,0,0.2,0h0.1
	c1.3,0.3,2.7,0.6,4,1.2c1.5,0.6,2.8,1.6,3.7,2.8c-0.6,0.2-1.4-0.3-2.1-0.8C102.6,30.3,102.5,30.2,102.4,30.1z M108.3,47.4
	c0,0.4-0.6,0.1-1-0.2c-2.9-2.5-5.9-4.6-8.9-6.4c-0.8-0.5-1.7-0.9-2.7-1.3c-1.5-0.7-3.1-1.3-4.2-2.4c5.5,0.5,11.8,4.4,16.5,9.6
	C108.2,46.9,108.4,47.2,108.3,47.4z M96.6,61.3c-0.2-0.1-0.4-0.2-0.6-0.2c-0.9-0.4-1.9-0.8-2.7-1.4c-0.3-0.2-0.6-0.4-0.6-0.8
	c3.6,0.9,7.3,2.6,10.4,4.9l0.1,0.1c0.8,0.6,2.5,1.8,2.5,2.6c0,0.9-1.1-0.1-1.9-0.9l0,0l0,0c-0.2-0.1-0.3-0.3-0.4-0.4
	C101.3,63.7,98.9,62.4,96.6,61.3z M72.6,82c-1.4-0.9-2.7-1.8-3.9-2.9c1.3,0.8,2.8,1.5,4.2,2.1l0,0c1.1,0.5,2.3,1,3.3,1.5
	c2.5,1.4,4.8,3.6,5.3,6.3c-0.9-0.6-1.6-1.4-2.3-2.2c-0.5-0.6-1-1.2-1.7-1.7c-1.1-0.9-2.3-1.6-3.6-2.4C73.4,82.5,73,82.2,72.6,82z
	 M28.2,68.7c1.6-1,3.6-1.4,5.7-1.1c0.6,0.1,1.4,0.2,2,0.7c-0.5,0-1,0-1.5-0.1c-0.7,0-1.3-0.1-1.9,0c-0.8,0.1-1.6,0.3-2.4,0.4l0,0
	c-0.3,0.1-0.5,0.1-0.8,0.2c-0.6,0.1-1.2,0.3-1.5,0.8C27.7,69.1,27.9,68.9,28.2,68.7z M60,29.3c0.1-0.3-3.8-1.5-8-1.2
	c-2.5,0.2-7.6,1.5-7.9,2.3c-0.2,0.5,1.2,0.2,3.1-0.1c1.5-0.3,3.3-0.6,5-0.7c1.6-0.1,3.3-0.1,4.8-0.1C58.7,29.5,59.9,29.4,60,29.3z
	 M71.1,104.7c0.6-0.2,1.5,0.4,2.2,1c2.1,1.8,6,5.9,6.1,8.5c-0.2-0.2-0.7-0.9-1.3-1.7l0,0l0,0C76,109.7,72,104.4,71.1,104.7z
	 M60,120.4c-1.1-1-2.3-1.7-3.5-2.4c-0.2-0.1-0.5-0.3-0.7-0.4c-0.1,0-0.2-0.1-0.2-0.1l0,0c-0.8-0.4-1.5-0.9-2.2-0.9
	c1.3,0.8,2.5,1.7,3.6,3c0.3,0.3,0.5,0.6,0.7,0.9l0,0l0,0c0.2,0.3,0.5,0.6,0.7,0.9c1,1.1,3.5,2.9,4.5,2.3
	C62.2,122.5,61.1,121.4,60,120.4z M44.3,123.3c-2.6-2.3-6.2-3.6-9-3.7l-0.3-0.4c0.9-0.6,2.4-0.5,3.8-0.1c1.4,0.4,2.8,1.2,4.2,2
	c0.5,0.2,0.9,0.6,1.2,1C44.5,122.5,44.7,123.1,44.3,123.3z M99,51.5c0.4,0.3,0.7,0.1,0.7-0.3c0-0.4-0.5-0.9-0.8-0.8
	c-0.4,0-0.5,0.5-0.1,0.9L99,51.5z M34.8,56.5c0,0.4-0.3,0.5-0.7,0.3l-0.2-0.1c-0.3-0.4-0.2-0.9,0.1-0.9
	C34.3,55.7,34.8,56.1,34.8,56.5z M96.2,22.1c0.3,0.3,0.7,0.4,0.9,0.2c0.2-0.3,0-0.7-0.2-1C96.6,21,96.2,20.9,96,21
	c-0.2,0.1-0.3,0.4-0.2,0.6c0.1,0.3,0.5,0.5,0.6,0.3L96.2,22.1z M96.5,46.4c0,0.3-0.2,0.4-0.5,0.2l-0.1-0.2c-0.1,0-0.2-0.1-0.3-0.2
	c-0.1-0.2,0.2-0.4,0.3-0.4C96.2,45.8,96.5,46.1,96.5,46.4z M87.7,64.8L87.5,65c0,0.5,0.5,1.1,1,1.1c0.4-0.1,0.6-0.6,0.2-1.1
	c-0.3-0.5-0.9-0.6-1.2-0.3L87.7,64.8z M88,80.1c-0.3,0-0.8-0.4-0.7-0.7L87,79.5c-0.1-0.5-0.1-0.9,0-1.2c0.2-0.4,0.6-0.4,1-0.2
	c0.5,0.3,0.6,0.9,0.5,1.4C88.4,79.8,88.2,80.1,88,80.1z M65.5,97.4c0.5,0.5,1.2,0.8,1.5,0.8s0.1-0.5-0.4-1c-0.9-0.8-1.9-1.1-2.7-1.3
	c0.1,0.1,0.2,0.2,0.3,0.3l0,0c0.1,0.1,0.2,0.2,0.3,0.3L65.5,97.4z M80.4,99.1c-0.2-0.1-0.4-0.4-0.5-0.6l-0.2-0.4
	c-0.3-0.2-0.3-0.6,0-0.7c0.2,0,0.6,0.1,0.8,0.4C80.7,98.3,80.8,99.1,80.4,99.1z M81.1,108.9c-0.4-0.1-0.7-0.6-0.7-1
	c-0.1-0.1-0.1-0.2-0.1-0.4c0.1-0.1,0.2-0.1,0.4-0.1c0.3,0,0.8,0.4,0.9,0.8C81.8,108.6,81.5,109,81.1,108.9z M68.8,120.7
	c-0.2-0.2-0.3-0.3-0.5-0.4V120c0.3-0.1,0.7-0.1,1,0.1c0.4,0.3,0.6,0.7,0.5,1c-0.2,0.1-0.5,0.1-0.7-0.1
	C69,120.9,68.9,120.8,68.8,120.7z M72.1,35.8c0.2,0.3,0.7,0.2,0.8,0c0.1-0.3-0.2-0.6-0.5-0.7c-0.3-0.1-0.7,0-0.8,0.2
	c-0.1,0.1,0,0.4,0.3,0.4L72.1,35.8z M89.2,92.8c-0.1,0-0.1,0.2,0,0.3c0.1,0.1,0.1,0.1,0.2,0.2c0.1,0,0.2,0.1,0.2,0.2
	c0.2-0.3,0.3-0.6,0.1-1c-0.1-0.3-0.6-0.8-0.8-0.6C88.7,91.9,88.9,92.3,89.2,92.8L89.2,92.8z M52.8,107c0.1,0.2,0.1,0.4,0.3,0.6
	c0.3,0.4,0.9,0.2,0.8-0.2C53.8,106.9,53.1,106.5,52.8,107L52.8,107z M38,91.8c-0.1-0.2-0.2-0.4-0.3-0.6l0.1-0.2
	c0.2-0.3,1,0.1,1.1,0.5C38.9,92,38.3,92.2,38,91.8z M50.2,90.7c0.3,0,0.4-0.3,0.2-0.5c-0.5-0.6-2.5-0.5-2.8-0.2
	C47.1,90.6,49.5,90.7,50.2,90.7z M38.7,68.2c-0.2,0.2-0.6,0.2-0.9,0.2l-0.1-0.1h-0.3c0.1-0.2,0.1-0.3,0.1-0.5
	c0.2-0.1,0.5-0.2,0.8-0.1C38.7,67.8,38.8,68.1,38.7,68.2z M62.3,24.9c-0.3-0.3-1.3-0.3-1.6,0C59.8,25.7,63.4,25.8,62.3,24.9z
	 M73.1,24.8c-0.1-0.1-0.3-0.1-0.4-0.1l0,0l0,0l0,0l0,0c0,0,0.3-0.2,0.5-0.4c0,0.1,0,0.2,0,0.3C73.2,24.7,73.1,24.8,73.1,24.8z
	 M73.1,24.9L73.1,24.9L73.1,24.9C73,24.9,73,24.9,73.1,24.9L73.1,24.9L73.1,24.9L73.1,24.9z M73.1,24.9L73.1,24.9
	c0.1-0.4,0.2-0.6,0.4-0.7c0.3-0.1,0.8,0.2,0.9,0.5s-0.3,0.5-0.7,0.4c-0.2-0.1-0.3-0.1-0.5-0.2l0,0C73.2,24.9,73.2,24.9,73.1,24.9z
	 M73.3,24c-0.1,0.1-0.1,0.2-0.2,0.3C73.3,24.1,73.4,24,73.3,24z M34.8,107.4c0.4,0.2,0.7-0.4,0.4-0.9c-0.3-0.4-1-0.5-1,0.1
	c0,0.3,0.2,0.6,0.3,0.7L34.8,107.4z M41.4,111.2c0.6,0.7,0.4,1.8-0.3,1.7l-0.2-0.2c-0.5-0.2-1-1-0.8-1.5
	C40.3,110.7,41,110.8,41.4,111.2z M45.2,75.7c0.5,0.2,1,0.2,1.3-0.2c0.2-0.3,0-1.1-0.5-1.4c-0.1,0-0.1,0-0.2,0c-0.1,0-0.2,0-0.2,0
	c-0.5,0.1-0.9,0.7-0.8,1.4L45.2,75.7z M83,33c0.4,0.4,1.1,0.4,1.2-0.1s-0.5-1.1-1-1c-0.3,0.1-0.3,0.5-0.3,0.9L83,33z M77.8,16
	c0.1,0.3-0.2,0.6-0.5,0.4h-0.2c0,0-0.1-0.1-0.2-0.1c-0.1-0.1-0.1-0.1-0.2-0.1c-0.1-0.3,0-0.7,0.3-0.7C77.3,15.3,77.7,15.7,77.8,16z"
	/>
<linearGradient id="SVGID_1_" gradientUnits="userSpaceOnUse" x1="63.1523" y1="764.2941" x2="60.0479" y2="778.4863" gradientTransform="matrix(1 0 0 1 0 -704)">
	<stop  offset="0" style="stop-color:#2B2B4C"/>
	<stop  offset="1" style="stop-color:#0C0C22"/>
</linearGradient>
<path class="st6" d="M57.1,66.8L57.1,66.8c0,0.2,0,0.3-0.1,0.4c-0.3,1.3-0.6,2.6-0.2,3.8c0.5,1.4,1.7,2.5,3.3,2.8
	c1.7,0.4,3.4-0.2,4.4-1.3c0.8-0.8,1-2,1.3-3.1c0-0.2,0.1-0.4,0.1-0.6c0-0.1,0.1-0.2,0.1-0.3L57.1,66.8z"/>
<circle class="st7" cx="54" cy="48.2" r="13.8"/>
<circle class="st7" cx="77.8" cy="54.6" r="13.7"/>
<ellipse transform="matrix(0.3084 -0.9513 0.9513 0.3084 -8.8271 84.6357)" class="st8" cx="53.8" cy="48.4" rx="8.5" ry="8.3"/>
<ellipse transform="matrix(0.3084 -0.9513 0.9513 0.3084 1.6036 111.6678)" class="st8" cx="77.6" cy="54.7" rx="8.5" ry="8.2"/>
<path class="st9" d="M96.5,132.7c6.9,0.2,15.2-3.6,17.8-9.4c10.4-23-5.4-45.7-23.8-49.8c-0.9-0.2-1.8-0.4-2.7-0.4
	c-8.3-0.8-15.4,4.1-19.9,10.7C59.6,97.1,66.3,131.9,96.5,132.7z"/>
<path class="st10" d="M113.2,125.9c-0.7,0.6-1.3,1.3-2.1,1.8c-8.8,6.1-25.8,1-32.4-5.9c-2.2-2.4-3.6-5.2-5.4-8.1
	c-2.4-3.8-4.9-9.7-4.6-14.3c0.1-1.8,0.5-3.5,0.6-5.2c0.2-2.2-0.3-4.4,0-6.6c1.1-8.4,10.4-14.4,17.7-15.1c6.4-0.6,12.8,1.8,18.3,5.5
	c3.4,2.3,6.7,5.2,9.2,8.6s3.6,8.5,5.3,12.6C123.7,108.4,119.7,119.7,113.2,125.9z"/>
<path class="st11" d="M103.8,127.3c-9.8,1.5-19.9-2.6-25.9-10.5c-3.7-5.1-7.7-11.9-6.8-18.6c0.3-2.3,0.9-4.6,1-6.9
	c0.1-1.7-0.1-3.5,0.4-5c0.8-2.7,3.5-5.8,5.3-7.6c3.1-2.9,6.5-2.7,10.2-3.9c0.5-0.2,1.1-0.4,1.7-0.5c3-0.5,5.7,2.2,8.4,3.3
	c1.4,0.5,2.9,0.8,4.3,1.2c3.4,1.1,6.3,3.8,8.6,6.9c2.2,3.1,3.8,6.6,5.4,10.2c1.4,3,2.8,6.4,2.7,9.8c-0.1,3.5-1.1,7.3-2.4,10.5
	C114.3,121.3,109.3,126.5,103.8,127.3z"/>
<path class="st12" d="M100.1,86.3c-0.3-0.2-0.2-0.6-0.1-0.9c0.6-1.8,1.3-3.4,2.1-5l0.7-0.2C102.2,82.3,101.3,84.4,100.1,86.3z
	 M102.3,85.4c0.5-1.3,1.5-4.2,3.2-3.9c-0.3,0.5-0.2,1.3,0.5,1.4c0.5,0.1,1-0.2,1.4-0.5c0,1.1-0.8,2-1.6,2.7c-1.1,1-2.1,2.1-3.1,3.1
	c0.8-1.6,1.6-3.1,2.4-4.6C103.9,83.5,103.5,85.4,102.3,85.4z M105.4,90.4c-1.8,1-0.2-1.4,0.3-1.9c0.2-0.3,3.4-2.8,3.5-2.6
	c0.3,0.5-0.2,1-0.7,1.3c-0.4,0.3-1,0.6-1.1,1.1c1-0.6,2.1-1,3.3-1.4c-1.7,1.2-3.5,3.1-5.4,3.7C105.2,90.6,105.4,90.4,105.4,90.4z
	 M85.5,115.6c-1.1,1.5-2.1,3-3.2,4.5c-0.2-1.5,0.9-2.8,2-3.9c0.5-0.5,0.9-1.2,0.5-1.7c-1.4,1.4-2.7,2.7-4.1,4c0.5-1,1-2,1.5-3
	c-0.9,0.6-1.8,1.1-2.7,1.6c1.9-1.5,3-3.7,5.3-4.9c-0.4,0.6-0.9,1.3-1.3,1.9c0.9-0.6,1.9-1.2,3-1.5C86.8,113.6,86.1,114.7,85.5,115.6
	z M90.1,122.2c-0.1,0.4-0.4,0.8-0.7,1c0-1.7,0.1-3.5,0.6-5.2v0.5c0.4-0.8,0.9-1.4,1.5-1.9c0.4,2.5,0.3,5-0.6,7.3
	c-0.2-1.7-0.2-3.4,0.1-5.1C90.3,119.6,90.5,121.1,90.1,122.2z M87.5,117.2c-0.4,1.9-1.3,3.7-2.5,5.1C85,120.4,86.3,118.7,87.5,117.2
	L87.5,117.2z M110.9,98.7c-0.5,0.2-1.1,0.2-1.5,0.1c0.3-0.4,0.8-0.7,1.4-0.9l-0.2,0.2c1.2-0.8,2.6-1.3,4.2-1.3
	c-0.9,0.6-1.9,1.2-2.8,1.9c0.7-0.1,1.4-0.2,2.1-0.3c0.3-0.1,0.8,0,0.9,0.4c-1.7,0.6-3.5,1-5.4,1C109.9,99.5,110.4,99.1,110.9,98.7z
	 M113.8,104.5c-0.7-0.3-1.5-0.5-2.3-0.5c-0.2,0-0.5,0-0.6-0.1c-0.2-0.3-0.1-0.6,0.1-0.8c0.2-0.2,0.6-0.2,0.9-0.1v-0.5
	c1.5-0.2,3.2,0,4.7,0.4c0.4,0.1,0.7,0.3,0.6,0.6c-1.1,0.2-2.2,0.1-3.2-0.3c0,0.7,0.7,1.1,1.3,1.2c0.6,0.2,1.4,0.4,1.4,1.2
	C115.8,105.9,114.8,105,113.8,104.5z M111.1,107.3l0.1,0.4c0,0-0.1,0-0.1-0.1C111,107.6,111,107.4,111.1,107.3z M109.9,109
	c0.6-0.1,1.3-0.1,1.9-0.2c-0.2-0.2-0.3-0.3-0.4-0.5l-0.2-0.6c1.2,0.9,2.9,0.8,4.2,1.5c0.1,0.1,0.3,0.2,0.3,0.4
	c0.1,0.4-0.5,0.6-0.9,0.6C113.2,109.9,111.5,109.6,109.9,109z M110.8,111.4l-0.1-0.3c1.2,0.3,2.4,0.8,3.5,1.3c0.5,0.3,1,0.6,1,1.2
	C113.6,113.5,112,112.6,110.8,111.4z M79.4,105.6c-1.6,1-3.4,1.6-5.2,1.8c-0.3,0-0.7,0-0.8-0.3c1.7-0.8,3.5-1.3,5.4-1.4L79.4,105.6z
	 M99.9,118.3c0-0.2,0.1-0.4,0.2-0.6c0.8,2,1.3,4.1,1.4,6.3c0,0.4-0.1,0.8-0.5,0.8c-0.2,0-0.4-0.3-0.4-0.5c-0.5-1.8-0.9-3.6-1-5.6
	L99.9,118.3z M102.6,119.2l0.4,0.2c0-0.1,0-0.1,0-0.2c0.1,0,0.2,0.1,0.2,0.3c0.5,1.2,1,2.5,1.4,3.7c0.2,0.7,0.4,1.6,0,2.2
	C103.3,123.6,102.6,121.4,102.6,119.2z M97.5,120.9c0,1.5-0.3,3.1-1,4.5c-0.4-1.7,0-3.5,1-4.8V120.9z M80.7,86.4l0.4,0.7
	c-0.3,0.1-0.6-0.1-0.7-0.3c-1.3-1.2-2.5-2.4-3.8-3.6c-0.2-0.1-0.3-0.3-0.3-0.5c0.1-0.4,0.6-0.3,0.9-0.1
	C78.7,83.4,79.9,84.8,80.7,86.4z M83.4,82.6c0.1,0.9,0.4,1.9,0.1,2.8c-0.8-1.8-1.6-3.7-2.4-5.5c0,0.1,0,0.1,0,0.2l0.1-0.6
	c-0.1-0.1-0.1-0.3-0.2-0.3c0.8,0,1.4,0.6,1.8,1.3C83.1,81.1,83.2,81.9,83.4,82.6z M85.9,82.8c-0.5-1.4-0.9-2.8-1.2-4.2l0.5-0.1
	c0-0.1-0.1-0.2-0.1-0.3c0.9,1.7,1.6,3.7,1.7,5.6C86.3,83.8,86,83.3,85.9,82.8z M92.6,77.1c0.9,2.5,0.7,5.3-0.3,7.7
	c-0.1-1.7-0.2-3.4-0.3-5.1c-1.3,0.9-0.5,3.3-1.6,4.5c-0.2-1.9-0.6-4.6,0.2-6.4c0.1,0.1,1,1.4,1,1.4C92.2,78.5,92.5,77.9,92.6,77.1z
	 M96,85.1c0.1-1.8,0.4-3.5,0.8-5.1l0.4-0.2c0-0.1,0-0.4,0-0.5c0.2-0.2,0.5-0.1,0.5,0.1c0.1,0.2,0,0.4,0,0.7
	c-0.4,1.4-0.8,2.9-1.1,4.3C96.5,84.7,96.3,85.1,96,85.1z M74.6,91.1c1-0.4,2.3-0.2,3.3,0.4c0.8,0,1.7,0.4,2.3,1
	c-0.5,0.1-1.1,0.2-1.6,0.6c0.5,0.4,1,0.8,1.4,1.3c-0.5,0.1-1,0-1.4-0.1c-1.7-0.3-3.3-0.7-5-1.1c-0.3,0-0.6-0.4-0.4-0.5
	c1.5-0.1,3.1,0.1,4.7,0.4C77.1,92,75.9,91.2,74.6,91.1z M78.7,97.9c0.6,0.2,1,0.6,1.4,1.1c0.1,0.1,0.1,0.2,0.1,0.3
	c0,0.3-0.3,0.4-0.6,0.5c-1.1,0.2-2.1,0.3-3.3,0.5c1.1,0.2,2.1,0.4,3.1,0.5c0.4,0.1,0.8,0.2,0.8,0.6s-0.4,0.5-0.7,0.5
	c-1.9,0.4-3.9,0.6-5.8,0.7c1.6-0.7,3.4-1.2,5.1-1.2c-1.9-0.2-3.9-0.4-5.8-0.6c0.6-0.8,1.7-1.1,2.6-1.2c1-0.1,2,0,2.9-0.4
	c-1.5-0.6-3.2-1-4.8-0.9c1.6-0.8,3.4-1,5.2-0.5C78.9,97.8,78.7,97.8,78.7,97.9z M77.2,112.3c1.1-1.1,2-2.2,3.1-3.3
	c-1.6,0.4-3.1,1-4.6,1.7c1.2-1.6,3.1-2.7,5-3.1c-0.1,0-0.3,0-0.4-0.1l0.8-0.1c0.3,0,0.5-0.1,0.8-0.1c0.1,0.3-0.2,0.7-0.5,1
	c-1.5,1.5-3,3-4.5,4.5C76.9,112.9,77,112.5,77.2,112.3z M107.1,94.1c0.1-0.2,0.3-0.3,0.5-0.4l0.1-0.5c0.6-0.5,1.2-1,1.9-1.5
	c0.6-0.5,1.4-1.1,2.2-0.8c-0.8,0.5-1.6,1.1-2.2,1.9c0.5-0.3,1.1-0.6,1.6-0.4c-1.2,0.8-2.4,1.4-3.6,2.1c-0.1,0-0.1,0.1-0.2,0.1
	C107.1,94.6,107,94.3,107.1,94.1z M108.9,116.5c-0.7-0.5-0.9-1.2,0-1.1c0.5,0,1.6,0.8,2.1,1.1c0.8,0.3,1.6,0.8,1.8,1.7
	c-1-0.4-1.9-0.9-2.7-1.7c0.3,0.7,0.6,1.4,0.9,2.2c0.1,0.1,0.1,0.3,0.1,0.4s-0.2,0.3-0.3,0.3C110.5,118.2,109.9,117.2,108.9,116.5z
	 M106.4,117.3l0.4,0.2c0.9,1.3,1.6,2.8,1.8,4.4c-0.9-1.2-1.5-2.6-2.1-4C106.4,117.7,106.3,117.5,106.4,117.3z"/>
<path class="st10" d="M100.9,98.3c1.1-1.3,1.4-3,0.4-5.2c-1.5-3-4.2-3.2-7.5-2.3l-1.7-4.3l-2.4,0.9l1.6,4.2
	c-0.6,0.2-1.3,0.5-1.9,0.8l-1.6-4.3L85.4,89l1.7,4.3c-0.9,0.4-1.9,0.8-4.9,1.9l1.1,2.8c1.9-0.8,2.9-1.3,3.6,0l4.6,11.9
	c0.3,1.1-0.6,1.3-2.3,1.9l0.7,3.3c4.4-1.7,4.9-1.9,4.9-1.9l1.4,3.7l2.4-0.9l-1.4-3.7c0.7-0.2,1.3-0.5,1.9-0.7l1.4,3.6l2.4-0.9
	l-1.4-3.7c4-1.8,6.3-4,5-8.3C105.5,99,103.5,98,100.9,98.3z M90.7,95.5c1.4-0.5,5.5-2.6,6.7,0.5c1.1,3-3.3,4.3-4.6,4.8L90.7,95.5z
	 M96,109.2l-2.2-5.8c1.6-0.6,6.5-3.1,7.8,0.4C102.8,107.1,97.6,108.6,96,109.2z"/>
<path class="st3" d="M119.9,51.1c1.5,0,3,0.6,4,1.7c1.4,1.6,2.4,4.9,2,6.9c-0.2,1-0.7,1.9-1.2,2.7c-0.6,1-1.1,2-1.2,3.3
	c0.1,0.8,1.1,0.6,2.3,0.4c0.4-0.1,0.7-0.1,1.1-0.2c2.4-0.3,4.7-0.4,7.1,0.2c1.6,0.3,3.3,1,4.1,2.6c0.5,1.1,1,2.6,0.5,4
	c-0.5,1.6-2.3,2.5-3.7,2.8c-2.6,0.6-5.1,1.1-7.7,0.5c-1.1-0.3-2.3-1.4-2.8-2.5c-0.7-1.5-0.2-3.3,0.9-4.5c1-0.9,2.2-1.4,3.5-1.6
	c-0.2-0.3-0.5-0.3-0.8-0.2l0,0c-0.1,0-0.3,0-0.4,0c-1.9,0.3-4.1,1-5,2.8c-0.5,1.4-0.7,3,0.2,4.2c0.1,0.1,0.2,0.3,0.3,0.4
	c0.3,0.4,0.6,0.8,0.4,1.2c-0.5,2.7-2.4,4.9-4.7,6.3c-0.1,0.1-0.2,0.1-0.3,0.2c-0.3,0.2-0.6,0.3-0.8,0.6c1.9,0,3.5-1.1,4.7-2.4
	c0.1,0.3,0.1,0.5,0.2,0.8s0.1,0.5,0.2,0.8c-1.2,0.1-2.4,0.8-3.2,1.7c-0.8,1.1-0.9,2.6-0.7,3.9c-0.2-0.1-0.3-0.1-0.5-0.2l0,0
	c-0.1,0-0.2-0.1-0.3-0.1c-6.1-2.1-7.4-10.4-4.5-15.6c0.2-0.4,0.4-0.9,0.7-1.4c0.3-0.6,0.5-1.1,0.8-1.7c0.3-0.5,0.6-1,0.9-1.4l0,0
	c0.4-0.6,0.8-1.2,1.1-1.9c1.5-3.3,0.8-7.1-0.2-10.4v-0.1v-0.1c-0.2-0.8-0.4-1.8,0-2.5C117.4,51.5,118.7,51,119.9,51.1z"/>
<path class="st13" d="M138.6,80.1c0.3-1.7-0.7-3.3-2.1-4.2c-3.4,1.2-7.2,1.7-10.7,0.7c-3.7,3.4-2.6,7,2.8,7.9
	c1.8,0.3,3.8,0.3,5.6,0.1C137,84.2,138.3,82.8,138.6,80.1L138.6,80.1L138.6,80.1z"/>
<path class="st3" d="M123.7,83c0.8,1,1.7,1.5,2.9,1.9c2.3,0.8,4.8,0.9,7.2,0.9c0.5,1.8,0.3,3.9-1,4.8c-2.5,1.5-6.1,1.5-8.9,0.6
	c-1.7-0.6-2.9-1.4-3.6-2.6C119.4,87,120.2,82.6,123.7,83z"/>
<g>
	<path class="st14" d="M280.5,87.5c0-0.1,0-0.3,0-0.5c0-0.4,0-0.9,0-1.6c0-1.3,0-3.2,0-5.2c0-3.8,0-8.5,0-12.6
		c2.3,0,4.9-0.2,7.1-0.8c1.3-0.3,2.4-0.8,3.3-1.6c0.9-0.8,1.5-1.8,1.5-3.2c0-1.4-0.6-2.4-1.5-3.2c-0.9-0.7-2.1-1.2-3.3-1.6
		c-2.2-0.6-4.8-0.7-7-0.8c0.1-2.2,0.1-5.5-0.5-8.3c-0.3-1.6-0.8-3.2-1.6-4.4c-0.9-1.2-2.1-2.1-3.8-2.1s-3,0.8-3.8,2.1
		c-0.8,1.2-1.3,2.8-1.6,4.4c-0.9,2.9-0.9,6.2-0.8,8.5c-2.1,0.1-4.2,0.4-6,1c-2,0.7-3.9,2-3.9,4.5c0,2.4,1.9,3.8,3.9,4.5
		c1.8,0.6,4,0.9,6,1c0,4,0,8.8,0,12.6c0,2.1,0,3.9,0,5.2c0,0.7,0,1.2,0,1.6c0,0.2,0,0.3,0,0.5v0.1v0.2c-0.1,2.2-0.2,5.4,0.5,8.1
		c0.3,1.4,0.8,2.7,1.7,3.7s2.1,1.7,3.8,1.7c1.6,0,2.9-0.6,3.8-1.7c0.9-1,1.4-2.3,1.7-3.7c0.6-2.7,0.5-5.9,0.5-8.1V87.5L280.5,87.5z"
		/>
	<path class="st14" d="M359.9,87.5c0-0.1,0-0.3,0-0.5c0-0.4,0-0.9,0-1.6c0-1.3,0-3.2,0-5.2c0-3.8,0-8.5,0-12.6
		c2.3,0,4.9-0.2,7.1-0.8c1.3-0.3,2.5-0.8,3.3-1.6c0.9-0.8,1.5-1.8,1.5-3.2c0-1.4-0.6-2.4-1.5-3.2c-0.9-0.7-2.1-1.2-3.3-1.6
		c-2.6-0.5-5.2-0.7-7.4-0.7c0.1-2.2,0.1-5.5-0.5-8.3c-0.3-1.6-0.8-3.2-1.6-4.4c-0.9-1.2-2.1-2.1-3.8-2.1c-1.7,0-3,0.8-3.8,2.1
		c-0.8,1.2-1.3,2.8-1.6,4.4c-0.5,2.9-0.5,6.2-0.4,8.4c-2.1,0.1-4.2,0.4-6,1c-2,0.7-3.9,2-3.9,4.5c0,2.4,1.9,3.8,3.9,4.5
		c1.8,0.6,4,0.9,6,1c0,4,0,8.8,0,12.6c0,2.1,0,3.9,0,5.2c0,0.7,0,1.2,0,1.6c0,0.2,0,0.3,0,0.5v0.1v0.2c-0.1,2.2-0.2,5.4,0.5,8.1
		c0.3,1.4,0.8,2.7,1.7,3.7s2.1,1.7,3.8,1.7c1.7,0,2.9-0.6,3.8-1.7c0.9-1,1.4-2.3,1.7-3.7c0.6-2.7,0.5-5.9,0.5-8.1V87.5L359.9,87.5z"
		/>
	<path class="st14" d="M335.4,87.8c-1-6.2-0.8-13.3-0.3-19.7c0.4-4.7-0.4-7.6-1.9-9.2c-1.5-1.6-3.4-1.8-4.7-1.4
		c-1.8,0.2-2.9,1.5-3.7,3.1c-3.3-2.7-7.5-4.2-12.5-4.2c-12.6,0-21.8,10.1-21.8,22.5c0,6.1,1.7,11.7,5.3,15.9
		c3.6,4.1,9.1,6.6,16.5,6.6c5.9,0,10.4-1.6,13.6-4.4c1.1,2.4,2.5,3.7,4.1,4.3c1.9,0.7,3.7,0.3,5-0.4c1.3-0.9,1.6-2.4,1.6-4
		c0.1-1.7-0.2-3.7-0.6-5.8C335.8,90,335.6,88.9,335.4,87.8z M319.7,88.1c-1.9,1.9-4.6,2.8-7.7,2.8c-5.9,0-10.9-5.3-10.9-12.1
		s5-12.1,10.9-12.1c6,0,10.9,4.7,10.9,12.1C322.9,83.2,321.6,86.2,319.7,88.1z"/>
	<path class="st14" d="M256.1,87.6c-1-6.2-0.8-13.3-0.3-19.6c0.4-4.7-0.4-7.6-1.9-9.2c-1.5-1.6-3.4-1.8-4.7-1.4
		c-1.8,0.2-2.9,1.5-3.7,3.1c-3.3-2.7-7.5-4.2-12.5-4.2c-12.6,0-21.8,10.1-21.8,22.4c0,6.1,1.7,11.7,5.3,15.8
		c3.6,4.1,9.1,6.6,16.5,6.6c5.9,0,10.4-1.6,13.6-4.4c1.1,2.4,2.5,3.7,4.1,4.3c1.9,0.7,3.7,0.3,5-0.4c1.3-0.9,1.6-2.4,1.6-4
		c0.2-1.5-0.2-3.5-0.6-5.7C256.5,89.8,256.3,88.7,256.1,87.6z M240.5,88c-1.9,1.9-4.6,2.8-7.7,2.8c-5.9,0-10.9-5.3-10.9-12
		s5-12,10.9-12c6,0,10.9,4.6,10.9,12C243.7,83.1,242.4,86.1,240.5,88z"/>
	<path class="st14" d="M415.8,91.1c-0.2-1.1-0.4-2.2-0.6-3.3c-1-6.2-0.8-13.3-0.3-19.7c0.4-4.7-0.4-7.6-1.9-9.2
		c-1.5-1.6-3.4-1.8-4.7-1.4c-1.8,0.2-2.9,1.5-3.7,3.1c-3.3-2.7-7.5-4.2-12.5-4.2c-12.6,0-21.8,10.1-21.8,22.5
		c0,6.1,1.7,11.7,5.3,15.9c3.6,4.1,9.1,6.6,16.5,6.6c5.9,0,10.4-1.6,13.6-4.4c1.1,2.4,2.5,3.7,4.1,4.3c1.9,0.7,3.7,0.3,5-0.4
		c1.3-0.9,1.6-2.4,1.6-4C416.5,95.2,416.2,93.2,415.8,91.1z M399.5,88.1c-1.9,1.9-4.6,2.8-7.7,2.8c-5.9,0-10.9-5.3-10.9-12.1
		s5-12.1,10.9-12.1c6,0,10.9,4.7,10.9,12.1C402.7,83.2,401.4,86.2,399.5,88.1z"/>
	<path class="st14" d="M197.7,64.8c3.6-3.1,5.7-7.4,5.7-12.7c0-5.7-2.6-10.3-6.7-13.5c-4.1-3.1-9.8-4.8-15.9-4.8
		c-5.9,0-10.3,0.6-13.5,2.1c-1.4,0.5-2.6,1.2-3.6,2.1c-1.3,1.2-2.1,2.6-2.6,4.3c-0.2,0.8-0.4,1.6-0.6,2.5c-0.4,2-0.6,4.3-0.6,6.8
		v0.2c-0.1,1.7-0.1,3.5-0.2,5.4c0,1.9,0,3.8-0.1,5.9v5.6c0,3.7,0,7.3,0.1,10.7c0.1,1.9,0.1,3.5,0.2,5c0.1,1.9,0.2,3.6,0.5,5.1
		c0.2,1.1,0.4,2.1,0.6,3.1c0.5,1.6,1.3,3,2.5,4.1c1.3,1.1,3,1.9,5.1,2.4c0.2,0,0.3,0.1,0.5,0.1c3.4,1,7.9,1.6,13.9,1.7
		c6.9,0,13.2-1.8,17.8-5.2c4.6-3.4,7.5-8.4,7.5-14.6C208.4,73.8,204.1,68.1,197.7,64.8z M180.6,42.7c7.1,0,12.9,3.6,12.9,9.4
		s-5.8,9.4-12.9,9.4c-7.1,0-11.8-2.7-11.8-9.4S173.5,42.7,180.6,42.7z M181.4,91.3c-8.3,0-12.7-3.1-12.7-10.5
		c0-7.4,4.5-10.3,12.8-10.3S197.2,73,197.4,81S189.7,91.3,181.4,91.3z"/>
</g>
</svg>
