<?xml version="1.0" encoding="UTF-8"?>
<svg width="200px" height="50px" viewBox="0 0 200 50" version="1.1" xmlns="http://www.w3.org/2000/svg" xmlns:xlink="http://www.w3.org/1999/xlink">
    <title>Multiple Cryptocurrencies Accepted Via Mixpay-4</title>
    <g id="设计规范" stroke="none" stroke-width="1" fill="none" fill-rule="evenodd">
        <g id="Payment-Button" transform="translate(-749.000000, -571.000000)">
            <g id="Multiple-Cryptocurrencies-Accepted-Via-Mixpay-4" transform="translate(749.000000, 571.000000)">
                <g id="编组备份-2">
                    <rect id="矩形" fill="#1E1E22" x="0" y="0" width="200" height="50" rx="4"></rect>
                    <g id="Clip-14_1_" transform="translate(15.000000, 11.000000)" fill="#164AFF">
                        <path d="M1.13368984,2.17769075 C0.470588235,2.4171894 0,3.09214015 0,3.87595392 L0,3.87595392 L0,15.328344 C0,21.3593555 8.40641711,26.4105999 11.2085561,27.8258192 L11.2085561,27.8258192 C11.4438503,27.9564548 11.7433155,28 11.9786096,28 L11.9786096,28 C12.2139037,28 12.513369,27.9346822 12.7486631,27.8258192 L12.7486631,27.8258192 C15.5721925,26.4323725 23.9572193,21.3593555 23.9572193,15.328344 L23.9572193,15.328344 L23.9572193,8.05629403 L10.2887701,18.5071443 C9.45454545,19.1385499 8.25668449,18.8990512 7.74331551,17.9628292 L7.74331551,17.9628292 L3.65775401,11.5181382 C3.40106952,11.0826861 3.89304813,10.5819162 4.34224599,10.8431874 L4.34224599,10.8431874 L8.49197861,13.7607165 L8.57754011,13.8042617 C8.96256684,14.0002151 9.43315508,14.0002151 9.83957219,13.8042617 L9.83957219,13.8042617 L24,6.27094044 L24,3.89772652 C24,3.11391275 23.5294118,2.438962 22.8663102,2.19946335 L22.8663102,2.19946335 C19.3796791,0.806016646 16.0855615,0.000430269612 12,0.000430269612 L12,0.000430269612 C7.9144385,-0.0213423352 4.62032086,0.784244041 1.13368984,2.17769075 L1.13368984,2.17769075 Z" id="path-1_2_"></path>
                    </g>
                </g>
                <g id="Multiple-Cryptocurre" transform="translate(49.360000, 12.408000)" fill="#FFFFFF" fill-rule="nonzero">
                    <path d="M8.424,8.592 L9,8.592 L8.424,0.504 L7.728,0.504 L5.688,5.34 C5.232,6.408 4.908,7.224 4.692,7.908 L4.668,7.908 C4.428,7.176 4.116,6.336 3.708,5.328 L1.764,0.504 L1.092,0.504 L0.444,8.592 L1.02,8.592 L1.308,4.896 C1.416,3.564 1.476,2.088 1.512,1.152 L1.536,1.152 C1.8,2.016 2.172,2.976 2.676,4.236 L4.428,8.592 L4.872,8.592 L6.744,4.176 C7.26,2.952 7.632,2.016 7.956,1.152 L7.98,1.152 C7.98,2.016 8.088,3.576 8.172,4.776 L8.424,8.592 Z" id="M"></path>
                    <path d="M15.756,2.832 L15.168,2.832 L15.168,6.324 C15.168,6.576 15.096,6.816 15.024,6.996 C14.712,7.668 13.98,8.22 13.104,8.22 C11.832,8.22 11.364,7.284 11.364,5.94 L11.364,2.832 L10.776,2.832 L10.776,6.06 C10.776,8.508 12.288,8.736 12.948,8.736 C14.112,8.736 14.844,8.064 15.192,7.428 L15.216,7.428 L15.252,8.592 L15.804,8.592 C15.768,8.124 15.756,7.668 15.756,7.2 L15.756,2.832 Z" id="u"></path>
                    <polygon id="l" points="17.868 8.592 18.456 8.592 18.456 0 17.868 0"></polygon>
                    <path d="M20.808,1.74 L20.808,2.832 L19.752,2.832 L19.752,3.3 L20.808,3.3 L20.808,6.912 C20.808,7.452 20.904,7.98 21.192,8.304 C21.432,8.592 21.804,8.736 22.26,8.736 C22.644,8.736 22.944,8.664 23.148,8.58 L23.076,8.124 C22.908,8.184 22.668,8.232 22.32,8.232 C21.612,8.232 21.396,7.692 21.396,6.984 L21.396,3.3 L23.22,3.3 L23.22,2.832 L21.396,2.832 L21.396,1.56 L20.808,1.74 Z" id="t"></path>
                    <path d="M25.224,8.592 L25.224,2.832 L24.636,2.832 L24.636,8.592 L25.224,8.592 Z M24.924,1.644 C25.224,1.644 25.416,1.392 25.416,1.128 C25.416,0.852 25.212,0.612 24.936,0.612 C24.66,0.612 24.444,0.864 24.444,1.128 C24.444,1.392 24.636,1.644 24.912,1.644 L24.924,1.644 Z" id="i"></path>
                    <path d="M27.336,10.992 L27.924,10.992 L27.924,7.56 L27.948,7.56 C28.428,8.364 29.304,8.736 30.204,8.736 C31.776,8.736 33.12,7.608 33.12,5.592 C33.12,4.032 32.04,2.688 30.348,2.688 C29.148,2.688 28.356,3.252 27.924,4.032 L27.9,4.032 L27.852,2.832 L27.288,2.832 C27.324,3.456 27.336,4.068 27.336,4.692 L27.336,10.992 Z M27.924,5.256 C27.924,5.1 27.984,4.908 28.032,4.752 C28.356,3.708 29.28,3.168 30.228,3.168 C31.668,3.168 32.532,4.308 32.532,5.616 C32.532,7.224 31.62,8.256 30.156,8.256 C29.076,8.256 28.224,7.548 27.984,6.732 C27.948,6.588 27.924,6.432 27.924,6.276 L27.924,5.256 Z" id="p"></path>
                    <polygon id="l" points="34.692 8.592 35.28 8.592 35.28 0 34.692 0"></polygon>
                    <path d="M42.216,5.712 C42.24,5.616 42.24,5.532 42.24,5.352 C42.24,4.584 41.868,2.688 39.732,2.688 C38.1,2.688 36.852,3.9 36.852,5.856 C36.852,7.524 38.016,8.736 39.804,8.736 C41.016,8.736 41.664,8.436 41.868,8.34 L41.712,7.872 C41.34,8.04 40.86,8.232 39.864,8.232 C38.496,8.232 37.428,7.392 37.428,5.712 L42.216,5.712 Z M37.464,5.244 C37.584,4.368 38.196,3.168 39.66,3.168 C41.388,3.168 41.64,4.644 41.628,5.244 L37.464,5.244 Z" id="e"></path>
                    <path d="M52.74,7.8 C52.188,8.076 51.396,8.232 50.604,8.232 C48.06,8.232 46.728,6.624 46.728,4.632 C46.728,2.448 48.12,0.852 50.748,0.852 C51.504,0.852 52.224,1.02 52.704,1.26 L52.896,0.768 C52.62,0.636 51.936,0.36 50.712,0.36 C47.676,0.36 46.116,2.472 46.116,4.584 C46.116,7.404 48.204,8.736 50.388,8.736 C51.552,8.736 52.464,8.496 52.92,8.268 L52.74,7.8 Z" id="C"></path>
                    <path d="M54.396,8.592 L54.984,8.592 L54.984,5.472 C54.984,5.28 55.008,5.076 55.044,4.908 C55.236,3.912 55.848,3.24 56.652,3.24 C56.784,3.24 56.88,3.24 56.988,3.264 L56.988,2.724 C56.904,2.7 56.808,2.688 56.712,2.688 C55.86,2.688 55.236,3.276 54.948,4.08 L54.912,4.08 L54.888,2.832 L54.348,2.832 C54.384,3.456 54.396,4.068 54.396,4.692 L54.396,8.592 Z" id="r"></path>
                    <path d="M57.288,2.832 L59.676,8.184 C59.736,8.316 59.76,8.4 59.76,8.448 C59.76,8.496 59.736,8.568 59.688,8.676 C59.328,9.492 58.884,9.972 58.584,10.224 C58.224,10.536 57.816,10.704 57.528,10.788 L57.684,11.28 C57.804,11.256 58.248,11.124 58.74,10.764 C59.508,10.212 60.024,9.312 60.816,7.488 L62.856,2.832 L62.22,2.832 L60.612,6.636 C60.42,7.104 60.264,7.536 60.132,7.896 L60.108,7.896 C60,7.536 59.808,7.056 59.64,6.684 L57.924,2.832 L57.288,2.832 Z" id="y"></path>
                    <path d="M63.996,10.992 L64.584,10.992 L64.584,7.56 L64.608,7.56 C65.088,8.364 65.964,8.736 66.864,8.736 C68.436,8.736 69.78,7.608 69.78,5.592 C69.78,4.032 68.7,2.688 67.008,2.688 C65.808,2.688 65.016,3.252 64.584,4.032 L64.56,4.032 L64.512,2.832 L63.948,2.832 C63.984,3.456 63.996,4.068 63.996,4.692 L63.996,10.992 Z M64.584,5.256 C64.584,5.1 64.644,4.908 64.692,4.752 C65.016,3.708 65.94,3.168 66.888,3.168 C68.328,3.168 69.192,4.308 69.192,5.616 C69.192,7.224 68.28,8.256 66.816,8.256 C65.736,8.256 64.884,7.548 64.644,6.732 C64.608,6.588 64.584,6.432 64.584,6.276 L64.584,5.256 Z" id="p"></path>
                    <path d="M71.592,1.74 L71.592,2.832 L70.536,2.832 L70.536,3.3 L71.592,3.3 L71.592,6.912 C71.592,7.452 71.688,7.98 71.976,8.304 C72.216,8.592 72.588,8.736 73.044,8.736 C73.428,8.736 73.728,8.664 73.932,8.58 L73.86,8.124 C73.692,8.184 73.452,8.232 73.104,8.232 C72.396,8.232 72.18,7.692 72.18,6.984 L72.18,3.3 L74.004,3.3 L74.004,2.832 L72.18,2.832 L72.18,1.56 L71.592,1.74 Z" id="t"></path>
                    <path d="M77.856,8.736 C79.26,8.736 80.94,7.8 80.94,5.64 C80.94,3.996 79.776,2.688 77.928,2.688 C76.32,2.688 74.88,3.852 74.88,5.772 C74.88,7.476 76.128,8.736 77.844,8.736 L77.856,8.736 Z M77.868,8.256 C76.632,8.256 75.468,7.344 75.468,5.736 C75.468,4.392 76.296,3.168 77.928,3.168 C79.62,3.168 80.352,4.584 80.352,5.676 C80.352,7.332 79.152,8.256 77.88,8.256 L77.868,8.256 Z" id="o"></path>
                    <path d="M86.784,7.848 C86.448,7.992 85.932,8.232 85.104,8.232 C83.64,8.232 82.56,7.224 82.56,5.724 C82.56,4.32 83.484,3.192 85.2,3.192 C85.944,3.192 86.448,3.384 86.784,3.576 L87,3.096 C86.76,2.928 86.1,2.688 85.248,2.688 C83.4,2.688 81.972,3.876 81.972,5.796 C81.972,7.464 83.184,8.736 85.02,8.736 C86.004,8.736 86.7,8.436 86.952,8.316 L86.784,7.848 Z" id="c"></path>
                    <path d="M93.408,2.832 L92.82,2.832 L92.82,6.324 C92.82,6.576 92.748,6.816 92.676,6.996 C92.364,7.668 91.632,8.22 90.756,8.22 C89.484,8.22 89.016,7.284 89.016,5.94 L89.016,2.832 L88.428,2.832 L88.428,6.06 C88.428,8.508 89.94,8.736 90.6,8.736 C91.764,8.736 92.496,8.064 92.844,7.428 L92.868,7.428 L92.904,8.592 L93.456,8.592 C93.42,8.124 93.408,7.668 93.408,7.2 L93.408,2.832 Z" id="u"></path>
                    <path d="M95.52,8.592 L96.108,8.592 L96.108,5.472 C96.108,5.28 96.132,5.076 96.168,4.908 C96.36,3.912 96.972,3.24 97.776,3.24 C97.908,3.24 98.004,3.24 98.112,3.264 L98.112,2.724 C98.028,2.7 97.932,2.688 97.836,2.688 C96.984,2.688 96.36,3.276 96.072,4.08 L96.036,4.08 L96.012,2.832 L95.472,2.832 C95.508,3.456 95.52,4.068 95.52,4.692 L95.52,8.592 Z" id="r"></path>
                    <path d="M99.36,8.592 L99.948,8.592 L99.948,5.472 C99.948,5.28 99.972,5.076 100.008,4.908 C100.2,3.912 100.812,3.24 101.616,3.24 C101.748,3.24 101.844,3.24 101.952,3.264 L101.952,2.724 C101.868,2.7 101.772,2.688 101.676,2.688 C100.824,2.688 100.2,3.276 99.912,4.08 L99.876,4.08 L99.852,2.832 L99.312,2.832 C99.348,3.456 99.36,4.068 99.36,4.692 L99.36,8.592 Z" id="r"></path>
                    <path d="M108.024,5.712 C108.048,5.616 108.048,5.532 108.048,5.352 C108.048,4.584 107.676,2.688 105.54,2.688 C103.908,2.688 102.66,3.9 102.66,5.856 C102.66,7.524 103.824,8.736 105.612,8.736 C106.824,8.736 107.472,8.436 107.676,8.34 L107.52,7.872 C107.148,8.04 106.668,8.232 105.672,8.232 C104.304,8.232 103.236,7.392 103.236,5.712 L108.024,5.712 Z M103.272,5.244 C103.392,4.368 104.004,3.168 105.468,3.168 C107.196,3.168 107.448,4.644 107.436,5.244 L103.272,5.244 Z" id="e"></path>
                    <path d="M109.644,8.592 L110.232,8.592 L110.232,5.076 C110.232,4.896 110.28,4.692 110.328,4.56 C110.592,3.828 111.36,3.192 112.284,3.192 C113.604,3.192 114.096,4.188 114.096,5.316 L114.096,8.592 L114.684,8.592 L114.684,5.316 C114.684,2.928 112.968,2.688 112.44,2.688 C111.384,2.688 110.568,3.276 110.22,3.984 L110.196,3.984 L110.148,2.832 L109.596,2.832 C109.632,3.3 109.644,3.756 109.644,4.224 L109.644,8.592 Z" id="n"></path>
                    <path d="M121.008,7.848 C120.672,7.992 120.156,8.232 119.328,8.232 C117.864,8.232 116.784,7.224 116.784,5.724 C116.784,4.32 117.708,3.192 119.424,3.192 C120.168,3.192 120.672,3.384 121.008,3.576 L121.224,3.096 C120.984,2.928 120.324,2.688 119.472,2.688 C117.624,2.688 116.196,3.876 116.196,5.796 C116.196,7.464 117.408,8.736 119.244,8.736 C120.228,8.736 120.924,8.436 121.176,8.316 L121.008,7.848 Z" id="c"></path>
                    <path d="M123.3,8.592 L123.3,2.832 L122.712,2.832 L122.712,8.592 L123.3,8.592 Z M123,1.644 C123.3,1.644 123.492,1.392 123.492,1.128 C123.492,0.852 123.288,0.612 123.012,0.612 C122.736,0.612 122.52,0.864 122.52,1.128 C122.52,1.392 122.712,1.644 122.988,1.644 L123,1.644 Z" id="i"></path>
                    <path d="M130.236,5.712 C130.26,5.616 130.26,5.532 130.26,5.352 C130.26,4.584 129.888,2.688 127.752,2.688 C126.12,2.688 124.872,3.9 124.872,5.856 C124.872,7.524 126.036,8.736 127.824,8.736 C129.036,8.736 129.684,8.436 129.888,8.34 L129.732,7.872 C129.36,8.04 128.88,8.232 127.884,8.232 C126.516,8.232 125.448,7.392 125.448,5.712 L130.236,5.712 Z M125.484,5.244 C125.604,4.368 126.216,3.168 127.68,3.168 C129.408,3.168 129.66,4.644 129.648,5.244 L125.484,5.244 Z" id="e"></path>
                    <path d="M131.4,8.316 C131.832,8.568 132.396,8.736 133.008,8.736 C134.316,8.736 135.084,8.016 135.084,7.08 C135.084,6.216 134.568,5.76 133.512,5.4 C132.66,5.112 132.168,4.86 132.168,4.212 C132.168,3.66 132.588,3.18 133.38,3.18 C134.04,3.18 134.46,3.42 134.652,3.552 L134.88,3.072 C134.544,2.844 134.052,2.688 133.488,2.688 C132.24,2.688 131.592,3.468 131.592,4.284 C131.592,4.968 132.108,5.508 133.152,5.844 C134.052,6.132 134.508,6.456 134.508,7.128 C134.508,7.716 134.064,8.244 133.056,8.244 C132.48,8.244 131.964,8.028 131.616,7.812 L131.4,8.316 Z" id="s"></path>
                    <path d="M5.328,19.748 L6.468,22.592 L7.08,22.592 L3.84,14.504 L3.264,14.504 L0,22.592 L0.612,22.592 L1.728,19.748 L5.328,19.748 Z M1.932,19.256 L3.084,16.376 C3.276,15.896 3.408,15.536 3.528,15.128 L3.552,15.128 C3.672,15.524 3.78,15.872 3.996,16.412 L5.136,19.256 L1.932,19.256 Z" id="A"></path>
                    <path d="M12.648,21.848 C12.312,21.992 11.796,22.232 10.968,22.232 C9.504,22.232 8.424,21.224 8.424,19.724 C8.424,18.32 9.348,17.192 11.064,17.192 C11.808,17.192 12.312,17.384 12.648,17.576 L12.864,17.096 C12.624,16.928 11.964,16.688 11.112,16.688 C9.264,16.688 7.836,17.876 7.836,19.796 C7.836,21.464 9.048,22.736 10.884,22.736 C11.868,22.736 12.564,22.436 12.816,22.316 L12.648,21.848 Z" id="c"></path>
                    <path d="M18.624,21.848 C18.288,21.992 17.772,22.232 16.944,22.232 C15.48,22.232 14.4,21.224 14.4,19.724 C14.4,18.32 15.324,17.192 17.04,17.192 C17.784,17.192 18.288,17.384 18.624,17.576 L18.84,17.096 C18.6,16.928 17.94,16.688 17.088,16.688 C15.24,16.688 13.812,17.876 13.812,19.796 C13.812,21.464 15.024,22.736 16.86,22.736 C17.844,22.736 18.54,22.436 18.792,22.316 L18.624,21.848 Z" id="c"></path>
                    <path d="M25.152,19.712 C25.176,19.616 25.176,19.532 25.176,19.352 C25.176,18.584 24.804,16.688 22.668,16.688 C21.036,16.688 19.788,17.9 19.788,19.856 C19.788,21.524 20.952,22.736 22.74,22.736 C23.952,22.736 24.6,22.436 24.804,22.34 L24.648,21.872 C24.276,22.04 23.796,22.232 22.8,22.232 C21.432,22.232 20.364,21.392 20.364,19.712 L25.152,19.712 Z M20.4,19.244 C20.52,18.368 21.132,17.168 22.596,17.168 C24.324,17.168 24.576,18.644 24.564,19.244 L20.4,19.244 Z" id="e"></path>
                    <path d="M26.772,24.992 L27.36,24.992 L27.36,21.56 L27.384,21.56 C27.864,22.364 28.74,22.736 29.64,22.736 C31.212,22.736 32.556,21.608 32.556,19.592 C32.556,18.032 31.476,16.688 29.784,16.688 C28.584,16.688 27.792,17.252 27.36,18.032 L27.336,18.032 L27.288,16.832 L26.724,16.832 C26.76,17.456 26.772,18.068 26.772,18.692 L26.772,24.992 Z M27.36,19.256 C27.36,19.1 27.42,18.908 27.468,18.752 C27.792,17.708 28.716,17.168 29.664,17.168 C31.104,17.168 31.968,18.308 31.968,19.616 C31.968,21.224 31.056,22.256 29.592,22.256 C28.512,22.256 27.66,21.548 27.42,20.732 C27.384,20.588 27.36,20.432 27.36,20.276 L27.36,19.256 Z" id="p"></path>
                    <path d="M34.368,15.74 L34.368,16.832 L33.312,16.832 L33.312,17.3 L34.368,17.3 L34.368,20.912 C34.368,21.452 34.464,21.98 34.752,22.304 C34.992,22.592 35.364,22.736 35.82,22.736 C36.204,22.736 36.504,22.664 36.708,22.58 L36.636,22.124 C36.468,22.184 36.228,22.232 35.88,22.232 C35.172,22.232 34.956,21.692 34.956,20.984 L34.956,17.3 L36.78,17.3 L36.78,16.832 L34.956,16.832 L34.956,15.56 L34.368,15.74 Z" id="t"></path>
                    <path d="M43.02,19.712 C43.044,19.616 43.044,19.532 43.044,19.352 C43.044,18.584 42.672,16.688 40.536,16.688 C38.904,16.688 37.656,17.9 37.656,19.856 C37.656,21.524 38.82,22.736 40.608,22.736 C41.82,22.736 42.468,22.436 42.672,22.34 L42.516,21.872 C42.144,22.04 41.664,22.232 40.668,22.232 C39.3,22.232 38.232,21.392 38.232,19.712 L43.02,19.712 Z M38.268,19.244 C38.388,18.368 39,17.168 40.464,17.168 C42.192,17.168 42.444,18.644 42.432,19.244 L38.268,19.244 Z" id="e"></path>
                    <path d="M49.164,14 L49.164,17.792 L49.14,17.792 C48.888,17.324 48.204,16.688 47.004,16.688 C45.384,16.688 44.088,17.972 44.1,19.844 C44.1,21.44 45.252,22.736 46.872,22.736 C48.072,22.736 48.864,22.112 49.2,21.392 L49.224,21.392 L49.26,22.592 L49.8,22.592 C49.764,22.124 49.752,21.668 49.752,21.2 L49.752,14 L49.164,14 Z M49.164,20.168 C49.164,20.36 49.14,20.516 49.092,20.672 C48.852,21.584 47.988,22.256 47.004,22.256 C45.444,22.256 44.688,21.068 44.688,19.772 C44.688,18.212 45.648,17.168 47.016,17.168 C48.096,17.168 48.84,17.804 49.092,18.584 C49.14,18.752 49.164,18.98 49.164,19.148 L49.164,20.168 Z" id="d"></path>
                    <path d="M57.12,22.592 L60.48,14.504 L59.844,14.504 L58.044,18.968 C57.564,20.144 57.156,21.14 56.88,21.992 L56.856,21.992 C56.604,21.152 56.256,20.204 55.812,18.956 L54.216,14.504 L53.592,14.504 L56.544,22.592 L57.12,22.592 Z" id="V"></path>
                    <path d="M61.872,22.592 L61.872,16.832 L61.284,16.832 L61.284,22.592 L61.872,22.592 Z M61.572,15.644 C61.872,15.644 62.064,15.392 62.064,15.128 C62.064,14.852 61.86,14.612 61.584,14.612 C61.308,14.612 61.092,14.864 61.092,15.128 C61.092,15.392 61.284,15.644 61.56,15.644 L61.572,15.644 Z" id="i"></path>
                    <path d="M67.08,18.86 C67.08,17.72 66.672,16.712 65.28,16.712 C64.776,16.712 64.2,16.868 63.78,17.168 L63.936,17.576 C64.296,17.312 64.764,17.192 65.196,17.192 C66.408,17.18 66.528,18.176 66.528,18.872 L66.528,19.04 C64.5,19.028 63.372,19.784 63.372,21.128 C63.372,21.956 63.912,22.712 64.932,22.712 C65.724,22.712 66.276,22.268 66.54,21.824 L66.576,21.824 L66.648,22.592 L67.152,22.592 C67.092,22.172 67.08,21.692 67.08,21.248 L67.08,18.86 Z M66.528,20.756 C66.528,20.852 66.516,20.984 66.48,21.104 C66.312,21.704 65.808,22.244 64.992,22.244 C64.452,22.244 63.948,21.896 63.948,21.056 C63.948,19.628 65.52,19.484 66.528,19.508 L66.528,20.756 Z" id="a"></path>
                    <path d="M78.384,22.592 L79.416,22.592 L78.912,14.504 L77.58,14.504 L76.14,18.416 C75.78,19.436 75.492,20.336 75.276,21.152 L75.252,21.152 C75.036,20.312 74.772,19.412 74.436,18.416 L73.056,14.504 L71.724,14.504 L71.16,22.592 L72.156,22.592 L72.372,19.124 C72.444,17.912 72.504,16.556 72.528,15.548 L72.552,15.548 C72.78,16.508 73.092,17.552 73.476,18.692 L74.796,22.544 L75.588,22.544 L77.016,18.62 C77.424,17.516 77.748,16.484 78.036,15.548 L78.06,15.548 C78.06,16.544 78.132,17.924 78.192,19.04 L78.384,22.592 Z" id="M"></path>
                    <path d="M82.044,22.592 L82.044,16.784 L80.988,16.784 L80.988,22.592 L82.044,22.592 Z M81.504,15.8 C81.912,15.8 82.164,15.5 82.164,15.152 C82.164,14.78 81.9,14.492 81.516,14.492 C81.12,14.492 80.856,14.78 80.856,15.152 C80.856,15.5 81.108,15.8 81.492,15.8 L81.504,15.8 Z" id="i"></path>
                    <path d="M83.112,16.784 L85.08,19.628 L83.016,22.592 L84.18,22.592 L85.02,21.284 C85.236,20.936 85.44,20.624 85.632,20.276 L85.656,20.276 C85.86,20.624 86.052,20.948 86.28,21.284 L87.132,22.592 L88.332,22.592 L86.304,19.592 L88.284,16.784 L87.132,16.784 L86.328,18.02 C86.124,18.332 85.932,18.632 85.74,18.98 L85.704,18.98 C85.512,18.644 85.332,18.356 85.116,18.032 L84.288,16.784 L83.112,16.784 Z" id="x"></path>
                    <path d="M89.352,24.968 L90.408,24.968 L90.408,21.812 L90.432,21.812 C90.78,22.388 91.44,22.724 92.22,22.724 C93.576,22.724 94.86,21.692 94.86,19.604 C94.86,17.84 93.804,16.652 92.388,16.652 C91.452,16.652 90.756,17.06 90.336,17.78 L90.312,17.78 L90.252,16.784 L89.304,16.784 C89.34,17.336 89.352,17.936 89.352,18.68 L89.352,24.968 Z M90.408,19.22 C90.408,19.088 90.444,18.932 90.468,18.8 C90.672,17.996 91.356,17.492 92.076,17.492 C93.192,17.492 93.792,18.488 93.792,19.652 C93.792,20.984 93.144,21.896 92.028,21.896 C91.284,21.896 90.636,21.392 90.456,20.66 C90.42,20.528 90.408,20.372 90.408,20.228 L90.408,19.22 Z" id="p"></path>
                    <path d="M100.272,19.028 C100.272,17.864 99.84,16.652 98.052,16.652 C97.32,16.652 96.612,16.856 96.132,17.156 L96.372,17.864 C96.78,17.588 97.344,17.432 97.896,17.432 C99.084,17.42 99.216,18.296 99.216,18.776 L99.216,18.896 C96.972,18.884 95.724,19.652 95.724,21.056 C95.724,21.896 96.324,22.724 97.5,22.724 C98.328,22.724 98.964,22.316 99.276,21.86 L99.312,21.86 L99.408,22.592 L100.356,22.592 C100.296,22.196 100.272,21.704 100.272,21.2 L100.272,19.028 Z M99.24,20.636 C99.24,20.744 99.228,20.864 99.192,20.972 C99.024,21.464 98.532,21.944 97.764,21.944 C97.236,21.944 96.78,21.632 96.78,20.936 C96.78,19.808 98.088,19.604 99.24,19.628 L99.24,20.636 Z" id="a"></path>
                    <path d="M101.196,16.784 L103.332,22.136 C103.392,22.268 103.416,22.352 103.416,22.412 C103.416,22.472 103.38,22.556 103.332,22.664 C103.08,23.204 102.732,23.612 102.444,23.84 C102.132,24.104 101.784,24.272 101.52,24.356 L101.784,25.232 C102.048,25.184 102.552,25.004 103.08,24.56 C103.8,23.924 104.316,22.916 105.072,20.924 L106.656,16.784 L105.54,16.784 L104.388,20.192 C104.244,20.612 104.124,21.056 104.016,21.404 L103.992,21.404 C103.896,21.056 103.752,20.6 103.608,20.216 L102.348,16.784 L101.196,16.784 Z" id="y"></path>
                </g>
            </g>
        </g>
    </g>
</svg>