<svg width="471" height="512" viewBox="0 0 471 512" fill="none" xmlns="http://www.w3.org/2000/svg"><script xmlns=""/>
<path d="M121.002 48.7314C176.881 16.2438 204.82 0 235.5 0C266.18 0 294.119 16.2438 349.998 48.7314L356.502 52.5132C412.381 85.0008 440.32 101.245 455.66 128C471 154.755 471 187.243 471 252.218V259.782C471 324.757 471 357.245 455.66 384C440.32 410.755 412.381 426.999 356.502 459.487L349.998 463.269C294.119 495.756 266.18 512 235.5 512C204.82 512 176.881 495.756 121.002 463.269L114.498 459.487C58.6189 426.999 30.6796 410.755 15.3398 384C0 357.245 0 324.757 0 259.782V252.218C0 187.243 0 154.755 15.3398 128C30.6796 101.245 58.6189 85.0008 114.498 52.5132L121.002 48.7314Z" fill="#5959D8"/>
<path d="M113.116 141.03C110.864 141.797 108.798 142.967 107.005 144.455C105.119 146.014 103.598 147.871 102.46 149.908C100.893 152.703 100 155.927 100 159.359V352.928C100 356.743 101.103 360.3 103.008 363.297C103.805 364.554 104.756 365.731 105.855 366.799C109.342 370.194 114.105 372.285 119.357 372.285C122.845 372.285 126.118 371.363 128.945 369.748C130.956 368.604 132.788 367.082 134.326 365.202C134.678 364.773 135.012 364.329 135.327 363.87L178.792 302.294L155.099 268.728L139 291.94V220.344L219.686 335.055C223.313 340.193 229.21 343.249 235.5 343.249C241.79 343.249 247.687 340.193 251.314 335.055L332 220.349V291.936L315.902 268.73L292.209 302.296L335.584 363.744C336.23 364.701 336.959 365.597 337.761 366.421C338.785 367.478 339.912 368.397 341.113 369.175C344.143 371.143 347.758 372.285 351.64 372.285C356.414 372.285 360.784 370.557 364.159 367.693C366.189 365.976 367.786 363.912 368.925 361.651C369.956 359.611 370.637 357.364 370.889 354.988C370.975 354.182 371.012 353.371 370.997 352.558V159.726C371.013 158.855 370.97 157.984 370.869 157.12C370.638 155.114 370.1 153.201 369.303 151.429C367.938 148.382 365.767 145.648 362.848 143.576C361.935 142.926 360.963 142.354 359.942 141.868C356.787 140.366 353.361 139.787 350.021 140.069C347.399 140.286 344.925 141.026 342.704 142.184C340.515 143.321 338.518 144.891 336.85 146.87C336.42 147.379 336.016 147.911 335.639 148.463L235.5 290.326L135.172 148.196C133.148 145.328 130.486 143.177 127.514 141.8C125.549 140.885 123.404 140.291 121.147 140.084C118.469 139.834 115.73 140.139 113.116 141.03Z" fill="white"/>
<path d="M235.5 221.958L250.745 243.555L274.439 209.989L251.314 177.229C247.687 172.091 241.79 169.035 235.5 169.035C229.21 169.035 223.313 172.091 219.686 177.229L196.563 209.988L220.256 243.554L235.5 221.958Z" fill="white"/>
</svg>