<svg width="140" height="140" viewBox="0 0 140 140" fill="none" xmlns="http://www.w3.org/2000/svg">
<g clip-path="url(#clip0_358_1265)">
<path fill-rule="evenodd" clip-rule="evenodd" d="M21.1527 56.1656C20.6373 55.9832 19.9788 55.7524 19.3467 55.6058L17.7649 62.4247C17.9551 62.4689 18.2534 62.565 18.8174 62.7646C18.8904 62.7904 18.9672 62.8177 19.0472 62.8462C19.52 63.0144 20.1085 63.2237 20.7367 63.4203C22.2305 63.8879 24.1565 64.3552 26.3757 64.3324C31.0595 64.2843 36.1093 62.0791 41.0677 55.7778L35.5665 51.4491C31.6445 56.4334 28.4583 57.3106 26.3038 57.3328C25.1038 57.3451 23.9602 57.0944 22.8279 56.74C22.3381 56.5866 21.8888 56.427 21.4137 56.2582C21.3277 56.2277 21.2408 56.1968 21.1527 56.1656Z" fill="#2B2B4C"/>
<path d="M30.1001 36.4653C28.8056 35.7762 27.2288 35.6588 25.858 36.1628C23.9368 36.9466 21.6047 39.2497 21.1034 41.2109C20.8424 42.2172 20.872 43.1367 20.901 44.0398C20.9369 45.1498 20.9717 46.2355 20.4652 47.426C20.0182 48.0644 19.2165 47.4304 18.3071 46.7111C18.026 46.4888 17.7345 46.2584 17.4401 46.0549C15.5437 44.7537 13.6017 43.6396 11.3018 43.0563C9.75597 42.6358 7.9656 42.4671 6.59926 43.4672C5.63856 44.2051 4.60305 45.2494 4.34058 46.6989C4.05213 48.291 5.21276 49.8647 6.3174 50.7697C8.25159 52.4427 10.2055 53.9532 12.6974 54.6379C13.7312 54.88 15.3299 54.457 16.2289 53.772C17.4838 52.8036 17.9305 51.0167 17.4403 49.5429C17.0069 48.3503 16.1252 47.3821 15.1416 46.6077C15.4281 46.3925 15.6859 46.5943 15.9336 46.7883L15.9348 46.7893C16.0353 46.8679 16.1339 46.9451 16.2322 46.9927C17.7042 48.0935 19.2899 49.6182 19.2439 51.6151C19.0322 52.9879 18.5049 54.5033 17.2004 55.1739C17.066 55.2628 16.9125 55.3378 16.758 55.4132C16.3482 55.6133 15.9309 55.817 15.8412 56.2956C15.1143 58.8331 15.7033 61.5944 17.0848 63.7834C17.1464 63.8909 17.2152 63.9955 17.2841 64.1002C17.4668 64.3779 17.6506 64.6574 17.7054 64.9965C16.1337 64.13 15.1906 62.5229 14.7292 60.8438C14.5583 61.038 14.3916 61.234 14.2249 61.4299C15.6214 63.8439 15.8412 66.5 14.0547 68.5C14.2188 68.5242 14.8323 68.6074 14.9956 68.6334C15.0834 68.6474 15.1713 68.6615 15.2592 68.6752C21.4447 69.6424 26.2032 63.0411 26.1202 57.2888C26.114 56.8035 26.1407 56.3161 26.1676 55.8272C26.2002 55.2347 26.2329 54.64 26.2073 54.0442C26.2003 53.5007 26.1522 52.9585 26.104 52.4153L26.1036 52.4107C26.0408 51.7038 25.9779 50.9954 26.0051 50.2812C26.1658 46.7713 28.5053 43.8525 30.8659 41.4369C30.9058 41.3915 30.9465 41.3456 30.9877 41.2993C31.5332 40.685 32.1552 39.9843 32.0741 39.1042C32.0605 37.8925 31.1693 36.9005 30.1001 36.4653Z" fill="#DB5E73"/>
<path fill-rule="evenodd" clip-rule="evenodd" d="M4.78248 50.3646C7.19523 52.8936 10.1892 54.9781 13.6177 55.7647C16.2289 57 13.7491 63.7834 7.68322 61.3145C6.0724 60.6589 4.26998 59.8983 2.84295 58.876C1.1911 57.6316 0.664879 55.3269 1.20317 53.4271C1.65578 51.8297 2.86099 50.5185 4.78248 50.3646Z" fill="#DB5E73"/>
<path fill-rule="evenodd" clip-rule="evenodd" d="M9.40163 62.4911C7.06606 62.13 4.63856 61.0448 2.55469 60C0.923569 60.7912 0.797257 63.1563 1.55469 64.5C2.6162 66.1971 4.59211 67.5238 6.3868 68.3269C8.1364 69.19 10.1857 69.7072 12.0547 69C14.9956 68 15.0587 64.2487 13.5493 62.0023C12.5547 62.5 10.6645 62.6936 9.40163 62.4911Z" fill="#DB5E73"/>
<path d="M71.5552 12.3278C77.0551 7.82786 82.0557 3.82805 87.5556 3.82801C106.056 3.82789 116.435 48.221 108.378 80.2826C98.9929 117.633 68.4104 130.098 54.4167 132.454C44.6393 134.1 38.8617 133.141 35.9356 130.318C31.5995 126.134 33.5454 120.262 34.0146 114.593C34.7416 105.807 31.2331 96.6196 29.5947 88.0985C27.3125 76.2288 27.3816 63.2684 31.7341 52.1375C42.6083 24.3279 60.8802 21.0619 71.5552 12.3278Z" fill="#D65A6E"/>
<path fill-rule="evenodd" clip-rule="evenodd" d="M117.1 72.9978C117.099 72.9981 117.097 72.9984 117.692 76.4474C118.288 79.8964 118.286 79.8967 118.284 79.897L118.28 79.8977L118.271 79.8992L118.252 79.9024L118.206 79.9097C118.171 79.9151 118.129 79.9212 118.08 79.9278C117.983 79.9409 117.858 79.9559 117.708 79.9701C117.407 79.9984 117.003 80.0236 116.515 80.0235C115.543 80.0232 114.212 79.9222 112.699 79.5261C109.606 78.7161 105.896 76.6993 103.084 72.176L109.028 68.4796C110.78 71.2968 112.889 72.3398 114.472 72.7544C115.298 72.9708 116.02 73.0233 116.517 73.0235C116.763 73.0235 116.947 73.0108 117.051 73.0009C117.103 72.9961 117.134 72.992 117.143 72.9908C117.147 72.9903 117.146 72.9904 117.138 72.9916L117.122 72.9942L117.111 72.9961L117.104 72.9972L117.1 72.9978Z" fill="#2B2B4C"/>
<path d="M58.5871 121.86C51.9792 134.321 41.6683 132.65 36.208 130.279C39.1085 133.083 44.8173 134.047 54.4587 132.446C68.4714 130.073 99.0023 117.595 108.378 80.2825C114.52 55.8393 109.947 24.2287 99.2295 10.5864C101.753 16.1116 103.084 22.3709 103.556 27.3279C106.557 58.8279 105.314 89.8016 71.8517 108.756C65.8521 113.011 60.9739 118.533 58.5871 121.86Z" fill="#C03148"/>
<path fill-rule="evenodd" clip-rule="evenodd" d="M91.965 14.766C92.1478 14.7623 92.0035 14.3295 91.7485 14.1168C90.4598 12.7921 85.2033 9.06402 84.7174 11.4704C85.1519 11.6142 85.5813 11.6599 86.0108 11.7057C86.4402 11.7515 86.8697 11.7972 87.3042 11.941C88.8527 12.3889 90.6244 13.6167 91.965 14.766ZM75.8467 15.8242C75.7428 16.1749 75.2462 16.0107 74.8083 15.8017C72.8827 14.8168 70.979 14.2585 69.1457 14.1903C69.4646 13.9681 69.7785 13.7437 70.0872 13.5167C70.3261 13.5496 70.543 13.5845 70.7298 13.6184C72.3889 13.8463 74.1924 14.5069 75.8467 15.8242ZM32.7198 100.866C32.9894 100.858 33.5964 100.741 34.3067 100.603C35.2991 100.411 36.4931 100.18 37.2503 100.154C37.7195 100.137 38.2321 100.15 38.7031 100.163C39.6057 100.186 40.3558 100.205 40.3558 100.005C39.9831 99.4003 38.4511 99.2642 36.7006 99.3958C35.145 99.5128 33.7964 100.057 32.8386 100.631C32.7767 100.664 32.7262 100.693 32.6865 100.718C32.6976 100.768 32.7087 100.817 32.7198 100.866ZM29.3005 85.8483C29.5847 85.7708 29.8751 85.7084 30.1582 85.6516C30.6414 85.5547 31.121 85.453 31.6006 85.3512C33.0393 85.0461 34.478 84.7409 36.0149 84.5645C37.1757 84.4313 38.4002 84.5205 39.6078 84.6085H39.6079H39.608H39.608H39.6081H39.6082H39.6083H39.6084H39.6085H39.6085H39.6086H39.6087H39.6088H39.6089H39.609H39.609H39.6091H39.6092H39.6093H39.6094H39.6095H39.6096H39.6097H39.6098H39.6099H39.61H39.6101H39.6102H39.6103H39.6104H39.6105H39.6106H39.6107C40.534 84.6759 41.4474 84.7425 42.3149 84.7081C41.129 83.8023 39.7583 83.5202 38.6143 83.4271C35.1398 82.9839 31.8844 83.5045 29.1406 84.8493C29.1919 85.183 29.2453 85.516 29.3005 85.8483ZM103.383 31.1294C102.236 30.3755 100.997 29.7236 99.7914 29.4685C98.7619 29.3289 97.5739 28.8624 96.5545 28.2107C96.8156 27.9237 97.3067 27.9991 97.7728 28.0707L97.773 28.0707L97.7731 28.0707L97.7731 28.0708L97.7732 28.0708L97.7733 28.0708C97.8391 28.0809 97.9044 28.0909 97.9685 28.0998L98.1131 28.1333C99.3991 28.4312 100.797 28.7551 102.084 29.3492C103.55 29.9838 104.896 30.9093 105.815 32.1446C105.216 32.3833 104.434 31.847 103.7 31.3448C103.593 31.2714 103.487 31.1988 103.383 31.1294ZM109.325 48.4164C109.345 48.8069 108.69 48.4944 108.309 48.1764C105.444 45.6938 102.414 43.5403 99.4044 41.7773C98.6178 41.2986 97.6907 40.8978 96.7484 40.4905C95.2086 39.825 93.6282 39.1419 92.5545 38.0725C98.0519 38.5475 104.365 42.4585 109.011 47.6411C109.207 47.8977 109.402 48.1543 109.325 48.4164ZM97.5612 62.2958C97.3764 62.2153 97.1906 62.1362 97.0048 62.0572C96.0757 61.662 95.1467 61.2669 94.335 60.6876C94.0249 60.49 93.7486 60.2394 93.7287 59.9285C97.3166 60.798 100.998 62.5471 104.119 64.8338L104.198 64.892C104.98 65.4679 106.654 66.7005 106.669 67.5026C106.699 68.4504 105.547 67.3593 104.794 66.6468L104.794 66.6466L104.793 66.6459C104.64 66.501 104.504 66.3717 104.397 66.2786C102.328 64.7365 99.9346 63.3607 97.5612 62.2958ZM73.5684 82.9523C72.1781 82.0931 70.8405 81.1103 69.6424 80.0211C70.9811 80.8624 72.4182 81.4727 73.8462 82.0792L73.8463 82.0792C74.9781 82.5599 76.1041 83.0381 77.1707 83.6268C79.6232 85.0112 82.0195 87.1895 82.439 89.9573C81.4891 89.3266 80.8008 88.5527 80.0991 87.7636C79.5908 87.192 79.0754 86.6125 78.4485 86.0739C77.3761 85.166 76.1228 84.4416 74.8784 83.7223C74.4378 83.4676 73.9984 83.2136 73.5684 82.9523ZM29.2321 69.6988C30.8287 68.743 32.8068 68.3461 34.9369 68.6178C35.5567 68.6682 36.2994 68.8211 36.9419 69.3118C36.4714 69.3305 35.976 69.2944 35.4752 69.2579C34.8209 69.2102 34.1575 69.1618 33.5286 69.234C32.6959 69.3296 31.9165 69.4949 31.137 69.6602L31.1369 69.6603C30.8771 69.7154 30.6172 69.7705 30.3554 69.823C29.7736 69.9398 29.1353 70.0996 28.8372 70.5884C28.6666 70.1301 28.9461 69.8516 29.2321 69.6988ZM60.9783 30.2761C61.0753 29.9581 57.1388 28.776 52.9775 29.1002C50.4304 29.2986 45.3492 30.5602 45.0567 31.4397C44.8904 31.94 46.241 31.6864 48.1848 31.3215C49.6586 31.0448 51.4734 30.7041 53.2266 30.5794C54.8038 30.4672 56.5535 30.4615 57.991 30.4569C59.6719 30.4515 60.926 30.4475 60.9783 30.2761ZM72.1251 105.662C72.7256 105.476 73.6735 106.11 74.3145 106.707C76.4202 108.495 80.2928 112.599 80.3689 115.256C80.1675 115.019 79.7069 114.4 79.0994 113.583L79.0982 113.582L79.098 113.581C76.9625 110.712 73.0142 105.407 72.1251 105.662ZM60.9925 121.425C59.8693 120.463 58.6731 119.746 57.4997 119.043C57.2726 118.906 57.0463 118.771 56.8215 118.634C56.7463 118.591 56.6705 118.548 56.5943 118.504L56.5942 118.504C55.8431 118.075 55.0546 117.624 54.3906 117.637C55.7109 118.395 56.9206 119.373 57.961 120.615C58.2194 120.893 58.4484 121.194 58.6774 121.494L58.6775 121.494L58.6776 121.494C58.9066 121.795 59.1356 122.095 59.394 122.373C60.4276 123.485 62.899 125.265 63.845 124.679C63.2358 123.515 62.078 122.362 60.9925 121.425ZM45.3244 124.29C42.7089 122.029 39.1427 120.67 36.2813 120.64L35.952 120.222C36.8889 119.611 38.3497 119.727 39.7966 120.135C41.2435 120.543 42.6023 121.335 43.9611 122.128C44.4387 122.361 44.8422 122.687 45.1714 123.104C45.5007 123.521 45.6815 124.123 45.3244 124.29ZM100.005 52.4739C100.384 52.7277 100.743 52.5897 100.723 52.1979C100.703 51.8062 100.251 51.336 99.951 51.4292C99.5853 51.4366 99.4881 51.9179 99.8153 52.347L100.005 52.4739ZM35.8067 57.5194C35.8269 57.9112 35.4679 58.0492 35.0888 57.7954L34.8992 57.6685C34.572 57.2394 34.6691 56.7582 35.0348 56.7507C35.3351 56.6575 35.7865 57.1277 35.8067 57.5194ZM97.1597 23.055C97.4215 23.3983 97.8526 23.4767 98.022 23.2118C98.1914 22.9469 98.047 22.5141 97.8507 22.2566C97.5889 21.9133 97.1578 21.8349 96.9817 21.9692C96.8055 22.1035 96.6949 22.3236 96.7671 22.54C96.9047 22.8423 97.2184 23.0102 97.3945 22.8759L97.1597 23.055ZM97.4675 47.3799C97.4809 47.6411 97.2461 47.8202 96.9911 47.6075L96.9189 47.391C96.7948 47.35 96.7293 47.2642 96.6639 47.1783C96.5917 46.9619 96.8265 46.7829 97.0094 46.7792C97.1922 46.7755 97.454 47.1188 97.4675 47.3799ZM88.7112 65.8195L88.4764 65.9985C88.5034 66.5208 89.0202 67.0769 89.51 67.1105C89.9344 67.0583 90.149 66.4875 89.7564 65.9726C89.4878 65.4987 88.8084 65.3382 88.5803 65.6478L88.7112 65.8195ZM88.9799 81.1374C88.6729 81.1 88.2283 80.7604 88.2735 80.4545L87.9733 80.5477C87.8876 80.0702 87.8674 79.6784 87.9713 79.3277C88.134 78.9322 88.5584 78.8801 88.9375 79.1338C89.4409 79.4287 89.5332 80.0368 89.4361 80.5181C89.3908 80.8241 89.2215 81.0889 88.9799 81.1374ZM66.489 98.3949C67.0167 98.8992 67.6805 99.2287 68.0076 99.2026C68.3346 99.1765 68.0886 98.7044 67.5608 98.2001C66.651 97.3984 65.6602 97.0949 64.8603 96.9402C64.9558 97.0145 65.04 97.1034 65.1242 97.1923L65.1242 97.1923C65.2084 97.2812 65.2926 97.3701 65.3881 97.4445L66.489 98.3949ZM81.3558 100.116C81.1662 99.989 80.9698 99.7316 80.8389 99.5599L80.6359 99.1719C80.3809 98.9592 80.3606 98.5674 80.6022 98.5189C80.8437 98.4705 81.1575 98.6384 81.3538 98.8959C81.681 99.325 81.7802 100.064 81.3558 100.116ZM82.1035 109.861C81.6864 109.786 81.3603 109.259 81.4336 108.908C81.3577 108.823 81.323 108.662 81.3635 108.526C81.4809 108.436 81.5396 108.391 81.7224 108.388C82.0294 108.425 82.474 108.765 82.6184 109.197C82.7628 109.63 82.476 109.985 82.1035 109.861ZM69.8341 121.744C69.6771 121.592 69.5202 121.441 69.311 121.329L69.3562 121.023C69.6565 120.929 70.0222 120.922 70.3359 121.09C70.7151 121.344 70.9836 121.818 70.8142 122.083C70.6381 122.217 70.3311 122.179 70.0761 121.967C69.9911 121.896 69.9126 121.82 69.8341 121.744ZM73.1197 36.803C73.3572 37.068 73.8414 37.0381 73.9598 36.7676C74.0781 36.497 73.7417 36.1887 73.4451 36.059C73.1188 35.9969 72.7334 36.0701 72.6447 36.273C72.5855 36.4083 72.6945 36.6977 72.9515 36.6489L73.1197 36.803ZM90.2121 93.7725C90.1333 93.7727 90.097 93.9271 90.1943 94.0548C90.2598 94.1406 90.3382 94.1826 90.4167 94.2246C90.4951 94.2666 90.5735 94.3085 90.639 94.3944C90.8083 94.1295 90.9123 93.7788 90.7679 93.346C90.689 92.999 90.1789 92.5736 89.9441 92.7526C89.7093 92.9317 89.9124 93.3197 90.1154 93.7078L90.2121 93.7725ZM53.7563 107.995C53.8285 108.212 53.9007 108.428 54.0316 108.6C54.3588 109.029 54.9593 108.842 54.8737 108.365C54.788 107.887 54.0364 107.51 53.8083 107.82L53.7563 107.995ZM39.0189 92.7975C38.888 92.6259 38.8158 92.4095 38.7437 92.1931L38.7956 92.0177C39.0237 91.7081 39.7753 92.085 39.861 92.5626C39.9466 93.0402 39.3461 93.2267 39.0189 92.7975ZM51.2307 91.655C51.4975 91.623 51.6772 91.362 51.4528 91.1059C50.932 90.5114 48.9126 90.5727 48.6366 90.9027C48.0848 91.5625 50.4677 91.6642 51.2307 91.655ZM39.7362 69.2466C39.5521 69.4402 39.1543 69.443 38.8417 69.4024L38.7774 69.2854L38.4647 69.2448C38.5637 69.0946 38.5845 68.9342 38.6053 68.7738C38.7824 68.6336 39.102 68.6207 39.4077 68.7147C39.7134 68.8087 39.8351 69.0963 39.7362 69.2466ZM63.3485 25.9097C63.0932 25.6501 62.0178 25.6427 61.7367 25.8741C60.7738 26.6666 64.4376 26.799 63.3485 25.9097ZM74.0681 25.8246C73.9342 25.7665 73.8064 25.7206 73.6892 25.7064C73.6873 25.7078 73.6863 25.7085 73.6863 25.7085L73.6868 25.7081L73.6882 25.707L73.6887 25.7067C73.7164 25.685 73.9845 25.4749 74.1703 25.279C74.1605 25.3822 74.1664 25.4958 74.1723 25.6094C74.1787 25.7338 74.1125 25.7904 74.0681 25.8246ZM74.1436 25.8582L74.1358 25.8856L74.127 25.9154C74.0029 25.8743 74.0176 25.8631 74.0616 25.8296L74.0681 25.8246L74.0984 25.8379L74.1436 25.8582ZM74.1436 25.8582L74.1647 25.7832C74.2467 25.4898 74.3146 25.2468 74.5764 25.1655C74.8767 25.0723 75.38 25.3671 75.4589 25.7141C75.5379 26.0611 75.1202 26.2439 74.7478 26.1207C74.5946 26.07 74.4403 25.9973 74.2903 25.9266L74.2902 25.9265C74.2408 25.9032 74.1919 25.8802 74.1436 25.8582ZM74.3214 24.9528C74.2219 25.0287 74.1829 25.145 74.1703 25.279C74.3048 25.1372 74.3961 25.0028 74.3214 24.9528ZM35.7795 108.403C36.2174 108.612 36.4907 107.996 36.2221 107.522C35.8949 107.093 35.2222 107.063 35.2492 107.586C35.2627 107.847 35.4003 108.149 35.5899 108.276L35.7795 108.403ZM42.4391 112.192C43.0747 112.854 42.8741 113.963 42.1844 113.916L42.0001 113.674C41.4756 113.5 41.0054 112.712 41.1517 112.218C41.2981 111.725 41.9878 111.772 42.4391 112.192ZM46.2099 76.6561C46.7064 76.8203 47.1963 76.854 47.4831 76.4996C47.7111 76.1899 47.4879 75.4101 46.9845 75.1153C46.9225 75.0947 46.8457 75.0854 46.769 75.076C46.6922 75.0667 46.6155 75.0574 46.5534 75.0368C46.0116 75.1785 45.6728 75.7083 45.772 76.447L46.2099 76.6561ZM84.0264 33.9987C84.4123 34.3831 85.085 34.413 85.1822 33.9317C85.2794 33.4504 84.6971 32.8086 84.214 32.9056C83.9138 32.9988 83.8753 33.4353 83.9542 33.7823L84.0264 33.9987ZM78.7677 16.9999C78.8466 17.3469 78.5531 17.5707 78.2393 17.4027L78.0565 17.4065C78.0237 17.3635 77.96 17.3104 77.8962 17.2572C77.8325 17.204 77.7687 17.1508 77.736 17.1079C77.5984 16.8057 77.761 16.4102 78.0026 16.3618C78.3028 16.2685 78.6887 16.6529 78.7677 16.9999Z" fill="#AA3751"/>
<path d="M58.0642 67.8279C58.0527 67.8755 58.0415 67.9226 58.0305 67.9691C58.0078 68.0656 57.9846 68.1625 57.9614 68.2599C57.6577 69.5306 57.3382 70.8674 57.7552 72.0924C58.2216 73.4627 59.4569 74.58 61.0926 74.9205C62.779 75.2716 64.4444 74.704 65.4681 73.5785C66.2312 72.7396 66.4852 71.5929 66.7336 70.4717C66.7744 70.2872 66.8151 70.1033 66.858 69.9217C66.8831 69.8151 66.9092 69.7046 66.9361 69.5911L58.0642 67.8279Z" fill="url(#paint0_linear_358_1265)"/>
<circle cx="54.9727" cy="49.2447" r="13.8267" transform="rotate(17.9625 54.9727 49.2447)" fill="#F1F3F3"/>
<circle cx="78.7965" cy="55.5653" r="13.6606" transform="rotate(17.9625 78.7965 55.5653)" fill="#F1F3F3"/>
<ellipse cx="54.7879" cy="49.4026" rx="8.2935" ry="8.52387" transform="rotate(17.9625 54.7879 49.4026)" fill="#2B2B4D"/>
<ellipse cx="78.6206" cy="55.7209" rx="8.22832" ry="8.45688" transform="rotate(17.9625 78.6206 55.7209)" fill="#2B2B4D"/>
<path d="M97.5001 133.738C104.379 133.979 112.728 130.124 115.327 124.387C125.743 101.397 109.881 78.6636 91.4906 74.5406C90.5692 74.3563 89.6991 74.1822 88.7581 74.0927C80.4396 73.3222 73.3686 78.2312 68.892 84.777C60.6447 98.1317 67.3475 132.889 97.5001 133.738Z" fill="#A82A3E"/>
<path d="M114.186 126.885C113.511 127.512 112.836 128.139 112.083 128.703C103.286 134.846 86.2469 129.69 79.6724 122.808C77.4318 120.401 76.0596 117.6 74.3107 114.743C71.9334 110.942 69.4588 105.069 69.6877 100.488C69.7699 98.6873 70.2147 96.9785 70.3077 95.2502C70.4725 93.0637 70.0125 90.9001 70.3137 88.6923C71.4465 80.3191 80.7364 74.2488 88.042 73.6297C94.4501 73.0763 100.869 75.427 106.302 79.124C109.713 81.4229 113.005 84.3364 115.533 87.7418C118.061 91.1472 119.1 96.2754 120.817 100.329C124.742 109.403 120.74 120.72 114.186 126.885Z" fill="#FDDF96"/>
<path d="M104.792 128.319C95.0344 129.843 84.8651 125.723 78.8833 117.825C75.2008 112.75 71.1885 105.919 72.0816 99.2255C72.3684 96.9207 73.0071 94.6363 73.0893 92.3635C73.1905 90.6904 72.997 88.9126 73.4611 87.3335C74.2499 84.649 76.9268 81.5191 78.755 79.727C81.8165 76.8383 85.2678 77.0527 89.0002 75.8673C89.535 75.7085 90.0589 75.476 90.6727 75.3802C93.663 74.8379 96.3718 77.579 99.0454 78.6682C100.45 79.2022 101.948 79.4203 103.342 79.8806C106.788 81 109.69 83.6354 111.965 86.7455C114.172 89.8663 115.809 93.3774 117.377 96.8992C118.732 99.9269 120.211 103.312 120.087 106.721C119.975 110.204 119.027 114.011 117.638 117.252C115.323 122.345 110.309 127.458 104.792 128.319Z" fill="#FF9500"/>
<path d="M101.084 87.2602C100.786 87.0881 100.855 86.643 100.944 86.3395C101.56 84.5793 102.197 82.9607 103.034 81.3119L103.754 81.13C103.203 83.3151 102.298 85.4091 101.084 87.2602ZM103.333 86.411C103.881 85.0959 104.867 82.1926 106.547 82.5168C106.279 82.9922 106.331 83.7814 107.028 83.8929C107.514 83.9638 108.013 83.6706 108.446 83.3874C108.474 84.4699 107.663 85.3904 106.886 86.0882C105.82 87.1199 104.82 88.1414 103.753 89.1731C104.534 87.6051 105.326 86.108 106.107 84.5401C104.945 84.4993 104.484 86.381 103.333 86.411ZM106.399 91.3793C104.647 92.3703 106.184 89.9629 106.717 89.447C106.95 89.1942 110.103 86.686 110.19 86.8176C110.465 87.283 110.009 87.8596 109.51 88.1528C109.078 88.436 108.512 88.7393 108.455 89.2553C109.453 88.6688 110.539 88.2138 111.713 87.8904C110.059 89.0838 108.182 91.0358 106.299 91.612C106.232 91.6221 106.399 91.3793 106.399 91.3793ZM86.5152 116.575C85.4579 118.113 84.3899 119.58 83.3326 121.117C83.1728 119.62 84.2624 118.295 85.3179 117.192C85.7847 116.687 86.2191 115.968 85.8008 115.452C84.4456 116.818 83.0795 118.112 81.7242 119.478C82.182 118.466 82.7169 117.515 83.1747 116.504C82.3095 117.07 81.3671 117.576 80.5019 118.142C82.4441 116.615 83.5481 114.491 85.8099 113.277C85.3647 113.924 84.9195 114.572 84.4743 115.219C85.3952 114.572 86.404 114.056 87.5008 113.672C87.7844 114.643 87.1274 115.685 86.5152 116.575ZM91.1229 123.193C90.9775 123.578 90.7657 123.972 90.4659 124.235C90.4731 122.495 90.6132 120.735 91.0297 119.005L91.0386 119.511C91.3959 118.732 91.9075 118.074 92.5842 117.609C93.0275 120.078 92.8623 122.567 92.0007 124.944C91.8086 123.234 91.8266 121.565 92.1103 119.855C91.2774 120.634 91.5035 122.121 91.1229 123.193ZM88.4556 118.164C88.0607 120.036 87.1793 121.837 85.9676 123.253C86.0197 121.361 87.2655 119.722 88.4 118.245L88.4556 118.164ZM111.885 99.7477C111.364 99.8993 110.822 99.9092 110.336 99.8383C110.68 99.4236 111.179 99.1303 111.7 98.9787L111.456 99.1608C112.687 98.3214 114.105 97.8159 115.609 97.877C114.678 98.4535 113.757 99.1007 112.836 99.7479C113.567 99.6368 114.231 99.5359 114.972 99.4956C115.304 99.4451 115.791 99.516 115.845 99.8702C114.105 100.497 112.323 100.84 110.486 100.83C110.908 100.476 111.396 100.112 111.885 99.7477ZM114.803 105.535C114.141 105.201 113.301 105.039 112.549 105.009C112.35 105.039 112.073 105.009 111.919 104.887C111.676 104.634 111.822 104.25 112.066 104.068C112.31 103.886 112.653 103.906 112.996 103.926L112.987 103.42C114.525 103.259 116.173 103.371 117.731 103.786C118.085 103.877 118.46 104.11 118.37 104.413C117.318 104.646 116.146 104.534 115.13 104.109C115.094 104.767 115.834 105.161 116.464 105.283C117.105 105.475 117.823 105.728 117.864 106.447C116.778 106.902 115.764 106.042 114.803 105.535ZM112.104 108.337L112.235 108.752C112.235 108.752 112.168 108.762 112.157 108.691C112.003 108.57 111.971 108.357 112.104 108.337ZM110.924 109.966C111.522 109.875 112.197 109.845 112.795 109.754C112.629 109.561 112.541 109.43 112.376 109.238L112.213 108.61C113.437 109.511 115.119 109.4 116.455 110.139C116.598 110.19 116.753 110.311 116.785 110.524C116.916 110.939 116.263 111.11 115.853 111.1C114.195 110.918 112.515 110.593 110.924 109.966ZM111.832 112.364L111.723 112.09C112.927 112.415 114.153 112.88 115.257 113.437C115.776 113.72 116.306 114.075 116.259 114.661C114.6 114.479 112.978 113.639 111.832 112.364ZM80.3836 106.639C78.8309 107.599 77.0251 108.236 75.2211 108.438C74.9554 108.479 74.5354 108.398 74.4259 108.124C76.133 107.285 77.9604 106.79 79.8523 106.72L80.3836 106.639ZM100.929 119.311C100.963 119.088 101.008 118.937 101.109 118.704C101.952 120.677 102.419 122.852 102.476 125.018C102.464 125.382 102.329 125.837 101.986 125.817C101.776 125.776 101.6 125.513 101.568 125.301C101.022 123.5 100.676 121.668 100.518 119.736L100.929 119.311ZM103.58 120.212L104.011 120.364C104.001 120.293 104.001 120.293 104.056 120.212C104.189 120.192 104.277 120.324 104.298 120.465C104.824 121.69 105.284 122.924 105.677 124.169C105.918 124.857 106.124 125.767 105.668 126.344C104.315 124.593 103.571 122.387 103.58 120.212ZM98.4736 121.931C98.5005 123.448 98.1289 125.026 97.4593 126.433C97.068 124.753 97.4737 122.952 98.4969 121.637L98.4736 121.931ZM81.6693 87.3863L82.1091 88.0441C81.8542 88.1553 81.5562 87.9832 81.3911 87.7909C80.1238 86.6069 78.8565 85.4228 77.5785 84.168C77.4241 84.0465 77.259 83.8543 77.2931 83.6317C77.3721 83.2574 77.8585 83.3283 78.1565 83.5004C79.7235 84.4215 80.9459 85.7573 81.6693 87.3863ZM84.3619 83.6438C84.5019 84.5645 84.7191 85.5459 84.4498 86.4563C83.6277 84.6249 82.8721 82.7834 82.05 80.952C82.0607 81.0228 82.0607 81.0228 82.0051 81.1037L82.1182 80.5069C82.0302 80.3753 82.0087 80.2337 81.9315 80.1729C82.6836 80.2035 83.3119 80.7601 83.696 81.4988C84.0586 82.0958 84.177 82.8748 84.3619 83.6438ZM86.9055 83.8367C86.4244 82.4606 86.0098 81.0745 85.6616 79.6782L86.1157 79.5367C86.105 79.4659 86.017 79.3344 86.0062 79.2635C86.9504 81.0039 87.584 82.9365 87.7419 84.8689C87.3219 84.7878 87.0365 84.2515 86.9055 83.8367ZM93.6441 78.1022C94.4967 80.5811 94.3853 83.424 93.3909 85.8214C93.2652 84.1015 93.206 82.3715 93.0912 80.7224C91.8041 81.6427 92.5795 84.0608 91.4684 85.2442C91.244 83.3219 90.9013 80.6206 91.7162 78.8301C91.7934 78.8908 92.7394 80.1962 92.673 80.2063C93.1846 79.5488 93.4861 78.8508 93.6441 78.1022ZM96.9629 86.0754C97.0366 84.3251 97.3202 82.6154 97.7475 80.9563L98.1909 80.744C98.1693 80.6024 98.2034 80.3798 98.1819 80.2381C98.3596 80.0662 98.6468 80.1675 98.6791 80.3799C98.7778 80.5823 98.6773 80.815 98.6432 81.0375C98.2501 82.474 97.8569 83.9106 97.5302 85.337C97.4512 85.7113 97.3058 86.0957 96.9629 86.0754ZM75.5984 92.1498C76.6288 91.7758 77.8781 91.9481 78.8492 92.525C79.6677 92.5455 80.5401 92.9201 81.1683 93.4767C80.637 93.5575 80.05 93.7192 79.5618 94.0833C80.0913 94.4375 80.5652 94.8727 80.917 95.3989C80.4521 95.4695 79.9656 95.3986 79.4792 95.3276C77.7991 95.0034 76.1853 94.6691 74.4944 94.2741C74.218 94.2437 73.8877 93.8591 74.0762 93.758C75.6253 93.6674 77.2175 93.86 78.7648 94.2044C78.106 93.0003 76.9034 92.2412 75.5984 92.1498ZM79.6855 98.9193C80.2599 99.1218 80.7231 99.4861 81.0749 100.012C81.152 100.073 81.1736 100.215 81.1844 100.285C81.161 100.579 80.8397 100.7 80.574 100.741C79.5114 100.902 78.4487 101.064 77.3196 101.235C78.3697 101.438 79.4198 101.641 80.4591 101.772C80.8128 101.864 81.2436 102.016 81.231 102.38C81.2184 102.744 80.8307 102.875 80.4986 102.926C78.5833 103.29 76.6465 103.512 74.6989 103.663C76.2839 102.915 78.0556 102.5 79.8147 102.45C77.8797 102.237 75.9554 102.095 74.0204 101.882C74.5768 101.073 75.6844 100.759 76.625 100.689C77.632 100.608 78.6605 100.669 79.5581 100.315C78.0341 99.6776 76.354 99.3534 74.7277 99.3833C76.3019 98.5642 78.1723 98.3523 79.9512 98.8789C79.874 98.8181 79.7412 98.8383 79.6855 98.9193ZM78.199 113.275C79.2544 112.173 80.2435 111.08 81.299 109.978C79.7266 110.362 78.1864 110.958 76.7342 111.686C77.98 110.048 79.7876 108.976 81.7694 108.602C81.6365 108.622 81.4929 108.571 81.3493 108.521L82.1571 108.47C82.4228 108.43 82.6884 108.39 82.9541 108.349C83.0743 108.693 82.7961 109.098 82.4963 109.361C81.0298 110.888 79.486 112.355 78.0194 113.882C77.8866 113.902 78.032 113.518 78.199 113.275ZM108.054 95.113C108.166 94.9511 108.354 94.85 108.542 94.7489L108.666 94.2228C109.266 93.6969 109.876 93.2418 110.542 92.7058C111.142 92.1799 111.941 91.6237 112.725 91.8667C111.915 92.3521 111.127 92.9791 110.494 93.7276C110.993 93.4344 111.558 93.131 112.133 93.3335C110.957 94.092 109.77 94.7796 108.517 95.4773C108.451 95.4874 108.395 95.5683 108.329 95.5784C108.063 95.6188 107.954 95.3456 108.054 95.113ZM109.897 117.513C109.213 117.037 108.973 116.349 109.869 116.43C110.411 116.42 111.491 117.27 111.999 117.483C112.794 117.797 113.622 118.323 113.818 119.163C112.812 118.808 111.908 118.221 111.114 117.473C111.432 118.221 111.672 118.909 111.99 119.658C112.078 119.79 112.1 119.931 112.055 120.083C112.01 120.235 111.899 120.397 111.755 120.346C111.506 119.152 110.879 118.16 109.897 117.513ZM107.372 118.331L107.736 118.493C108.616 119.809 109.317 121.296 109.554 122.854C108.686 121.61 108.005 120.264 107.447 118.827C107.359 118.696 107.26 118.493 107.372 118.331Z" fill="#FFB237"/>
<path d="M101.936 99.3308C103.024 98.0231 103.377 96.3064 102.292 94.0952C100.82 91.0645 98.0613 90.9194 94.8289 91.8259L93.1613 87.487L90.7347 88.4196L92.3559 92.638C91.7256 92.8802 91.0861 93.1457 90.4467 93.4112L88.8123 89.1585L86.3856 90.0911L88.0532 94.43C87.1723 94.8023 86.1277 95.1873 83.1842 96.3013L84.2694 99.125C86.1711 98.3516 87.1246 97.8307 87.8708 99.0845L92.4368 110.965C92.6999 112.086 91.8609 112.232 90.1113 112.866L90.8338 116.205C95.2583 114.505 95.7095 114.351 95.7095 114.351L97.1375 118.067L99.5642 117.134L98.156 113.47C98.8243 113.233 99.4704 112.984 100.085 112.748L101.487 116.395L103.913 115.463L102.485 111.747C106.458 109.943 108.745 107.78 107.5 103.456C106.493 99.99 104.468 99.0492 101.936 99.3308ZM91.6852 96.4922C93.056 95.9654 97.1634 93.8533 98.3611 96.9697C99.5059 99.9484 95.0876 101.251 93.7167 101.778L91.6852 96.4922ZM96.9724 110.249L94.7357 104.43C96.3745 103.8 101.201 101.372 102.511 104.781C103.775 108.07 98.6112 109.619 96.9724 110.249Z" fill="#FDDF96"/>
<path d="M120.924 52.128C122.438 52.1118 123.94 52.7542 124.957 53.8683C126.346 55.5008 127.389 58.7218 126.916 60.7585C126.676 61.8053 126.212 62.6344 125.756 63.4486C125.195 64.4494 124.646 65.4282 124.545 66.7607C124.651 67.5586 125.687 67.3587 126.863 67.1317C127.227 67.0616 127.604 66.989 127.97 66.9423C130.328 66.6513 132.639 66.5534 135.025 67.1126C136.642 67.4622 138.364 68.1591 139.141 69.726C139.671 70.8595 140.124 72.3096 139.675 73.7635C139.182 75.3606 137.37 76.2514 135.926 76.5558C133.357 77.1698 130.847 77.6255 128.237 77.068C127.174 76.7983 125.909 75.6501 125.41 74.5943C124.721 73.1095 125.161 71.2586 126.311 70.1405C127.276 69.2531 128.545 68.7847 129.815 68.5425C129.655 68.2088 129.322 68.2714 129.003 68.3314L129.001 68.3317C128.872 68.356 128.745 68.3799 128.632 68.3768C126.759 68.6859 124.579 69.3298 123.672 71.1826C123.213 72.5421 122.976 74.1823 123.853 75.4177C123.934 75.5631 124.039 75.7049 124.145 75.8475C124.425 76.2259 124.711 76.6111 124.566 77.0927C124.025 79.7651 122.172 82.0168 119.864 83.3668C119.756 83.4361 119.644 83.4992 119.53 83.5625C119.231 83.7303 118.929 83.8991 118.718 84.1839C120.571 84.137 122.2 83.112 123.422 81.7919C123.486 82.0511 123.546 82.31 123.605 82.5688C123.665 82.8279 123.725 83.0869 123.789 83.3464C122.583 83.4804 121.396 84.1057 120.631 85.065C119.835 86.1913 119.743 87.6355 119.959 88.971C119.797 88.9151 119.635 88.8613 119.472 88.8074L119.469 88.8065C119.383 88.7779 119.297 88.7493 119.211 88.7204C113.08 86.6652 111.856 78.3491 114.668 73.1143C114.905 72.6723 115.112 72.2126 115.32 71.7515C115.572 71.1928 115.825 70.6319 116.132 70.0978C116.397 69.6028 116.699 69.1285 117.001 68.6534L117.004 68.6494C117.398 68.0311 117.792 67.4115 118.107 66.7436C119.629 63.449 118.872 59.66 117.857 56.3222L117.832 56.222L117.811 56.1382C117.603 55.3154 117.365 54.3772 117.858 53.6087C118.447 52.5042 119.736 52.0185 120.924 52.128Z" fill="#D65A6E"/>
<path fill-rule="evenodd" clip-rule="evenodd" d="M139.616 81.1067C139.876 79.4117 138.935 77.7945 137.526 76.9143C134.111 78.0856 130.374 78.5728 126.856 77.6633C123.205 81.0684 124.297 84.651 129.658 85.5741C131.428 85.879 133.461 85.8991 135.256 85.6404C138.008 85.1762 139.294 83.7951 139.558 81.1505L139.596 81.124L139.616 81.1067Z" fill="#D65A6E"/>
<path d="M124.657 83.9562C125.424 84.9193 126.338 85.4443 127.522 85.8363C129.835 86.6161 132.296 86.6909 134.704 86.7241C135.191 88.5429 135.013 90.6658 133.712 91.5161C131.192 93.0042 127.591 93.0192 124.855 92.0739C123.15 91.4848 121.942 90.6449 121.239 89.425C120.417 88.0005 121.249 83.5551 124.657 83.9562Z" fill="#D65A6E"/>
</g>
<defs>
<linearGradient id="paint0_linear_358_1265" x1="64.3029" y1="61.3271" x2="61.1985" y2="75.5193" gradientUnits="userSpaceOnUse">
<stop stop-color="#2B2B4C"/>
<stop offset="1" stop-color="#0C0C22"/>
</linearGradient>
<clipPath id="clip0_358_1265">
<rect width="140" height="140" fill="white"/>
</clipPath>
</defs>
</svg>
