<svg width="24" height="24" viewBox="0 0 24 24" fill="none" xmlns="http://www.w3.org/2000/svg">
<path fill-rule="evenodd" clip-rule="evenodd" d="M14.9658 9.6426C14.7691 9.60882 14.5806 9.51602 14.4288 9.3642C14.0383 8.97367 14.0383 8.34051 14.4288 7.94998L17.8354 4.54339L20.0856 2.29293C20.4761 1.90237 21.1093 1.90236 21.4999 2.29289C21.8904 2.6834 21.8904 3.31654 21.4999 3.70707L20.4777 4.72932C20.4778 4.72935 20.4778 4.72938 20.4778 4.7294L19.2305 5.97671L15.8433 9.36421C15.6046 9.60301 15.2751 9.69581 14.9658 9.6426ZM13.7217 7.24288L18.1035 2.86105C17.753 2.76066 17.3828 2.7069 17 2.7069H7C4.79086 2.7069 3 4.49776 3 6.7069V18.7069C3 20.916 4.79086 22.7069 7 22.7069H17C19.2091 22.7069 21 20.916 21 18.7069V6.70689C21 6.37323 20.9591 6.0491 20.8822 5.73925L16.5501 10.0713C15.7691 10.8524 14.5027 10.8524 13.7217 10.0713C12.9406 9.29026 12.9406 8.02393 13.7217 7.24288ZM9 7.7069C8.44772 7.7069 8 8.15461 8 8.7069C8 9.25918 8.44772 9.7069 9 9.7069H11C11.5523 9.7069 12 9.25918 12 8.7069C12 8.15461 11.5523 7.7069 11 7.7069H9ZM9 11.7069C8.44772 11.7069 8 12.1546 8 12.7069C8 13.2592 8.44772 13.7069 9 13.7069H15C15.5523 13.7069 16 13.2592 16 12.7069C16 12.1546 15.5523 11.7069 15 11.7069H9ZM8 16.7069C8 16.1546 8.44772 15.7069 9 15.7069H15C15.5523 15.7069 16 16.1546 16 16.7069C16 17.2592 15.5523 17.7069 15 17.7069H9C8.44772 17.7069 8 17.2592 8 16.7069Z" fill="currentColor"/>
</svg>
