<svg width="24" height="24" viewBox="0 0 24 24" fill="currentColor" xmlns="http://www.w3.org/2000/svg">
<path d="M13.4388 4.45647L12.4397 4.41465L12.4026 5.30105L13.2782 5.4435L13.4388 4.45647ZM10.5612 4.45647L10.7218 5.4435L11.5974 5.30105L11.5603 4.41465L10.5612 4.45647ZM14.4379 4.49829C14.4393 4.46519 14.44 4.43197 14.44 4.39865H12.44C12.44 4.40407 12.4399 4.4094 12.4397 4.41465L14.4379 4.49829ZM18.76 8.59461C18.76 7.17676 17.988 5.97419 17.0301 5.12292C16.0683 4.26819 14.8148 3.66715 13.5993 3.46944L13.2782 5.4435C14.1066 5.57824 15.0136 6.00652 15.7015 6.61787C16.3933 7.23268 16.76 7.93296 16.76 8.59461H18.76ZM18.76 14.371V8.59461H16.76V14.371H18.76ZM18.5067 16.1177H18.5589V14.1177H18.5067V16.1177ZM18.5589 17H5.44115V19H18.5589V17ZM5.44115 16.1177H5.49333V14.1177H5.44115V16.1177ZM5.24 8.59461V14.371H7.24V8.59461H5.24ZM10.4007 3.46944C9.18522 3.66715 7.93167 4.26819 6.96991 5.12292C6.01204 5.97419 5.24 7.17676 5.24 8.59461H7.24C7.24 7.93296 7.60669 7.23268 8.29849 6.61787C8.98639 6.00652 9.89344 5.57824 10.7218 5.4435L10.4007 3.46944ZM9.56 4.39865C9.56 4.43196 9.5607 4.46518 9.56208 4.49829L11.5603 4.41465C11.5601 4.40941 11.56 4.40408 11.56 4.39865H9.56ZM12 2C10.6801 2 9.56 3.04665 9.56 4.39865H11.56C11.56 4.20575 11.7293 4 12 4V2ZM14.44 4.39865C14.44 3.04665 13.3199 2 12 2V4C12.2707 4 12.44 4.20574 12.44 4.39865H14.44ZM5.49333 16.1177C6.45799 16.1177 7.24 15.3357 7.24 14.371H5.24C5.24 14.2311 5.35342 14.1177 5.49333 14.1177V16.1177ZM5 16.5589C5 16.3152 5.19751 16.1177 5.44115 16.1177V14.1177C4.09294 14.1177 3 15.2106 3 16.5589H5ZM5.44115 17C5.19751 17 5 16.8025 5 16.5589H3C3 17.9071 4.09294 19 5.44115 19V17ZM19 16.5589C19 16.8025 18.8025 17 18.5589 17V19C19.9071 19 21 17.9071 21 16.5589H19ZM18.5589 16.1177C18.8025 16.1177 19 16.3152 19 16.5589H21C21 15.2106 19.9071 14.1177 18.5589 14.1177V16.1177ZM16.76 14.371C16.76 15.3357 17.542 16.1177 18.5067 16.1177V14.1177C18.6466 14.1177 18.76 14.2311 18.76 14.371H16.76Z" />
<path d="M9 21C9 20.4477 9.44772 20 10 20H14C14.5523 20 15 20.4477 15 21C15 21.5523 14.5523 22 14 22H10C9.44772 22 9 21.5523 9 21Z" />
</svg>
