<svg width="24" height="24" viewBox="0 0 24 24" fill="none" xmlns="http://www.w3.org/2000/svg">
<path fill-rule="evenodd" clip-rule="evenodd" d="M12 24C18.6274 24 24 18.6274 24 12C24 5.37258 18.6274 0 12 0C5.37258 0 0 5.37258 0 12C0 18.6274 5.37258 24 12 24Z" fill="#B1B6C6"/>
<path d="M15.2345 7.76609C15.6575 7.34303 16.3435 7.34303 16.7665 7.76609C17.1896 8.18916 17.1896 8.87509 16.7665 9.29816L8.57413 17.4905C8.15106 17.9136 7.46514 17.9136 7.04207 17.4905C6.619 17.0675 6.619 16.3815 7.04207 15.9585L15.2345 7.76609Z" fill="white"/>
<path d="M8.76554 7.76609C8.34248 7.34303 7.65655 7.34303 7.23348 7.76609C6.81041 8.18916 6.81041 8.87509 7.23348 9.29816L15.4259 17.4905C15.8489 17.9136 16.5349 17.9136 16.9579 17.4905C17.381 17.0675 17.381 16.3815 16.9579 15.9585L8.76554 7.76609Z" fill="white"/>
</svg>
