<svg width="16" height="16" viewBox="0 0 16 16" fill="currentColor" xmlns="http://www.w3.org/2000/svg">
<path d="M10.6086 10.9748C10.8417 10.7581 11 10.4671 11 10.1513L11 2.99977C11 2.44921 10.5472 2.0029 9.98855 2.0029H3.79398C3.28704 2.0029 2.8584 2.37277 2.7914 2.86802L1.1688 8.98103C0.952497 9.66303 0.935137 10.1838 1.1688 10.5217C1.37424 10.8189 1.77375 10.9748 2.40272 10.9748L4.81556 10.9748L6.5 10.9998C5.71803 12.001 5.13329 15 7 15C8.5 15 8.51805 13.8198 9 12.9998C9.39567 12.3266 10.2757 11.2842 10.6086 10.9748Z"/>
<path d="M15 3V10C15 10.5523 14.5523 11 14 11H13C12.4477 11 12 10.5523 12 10V3C12 2.44771 12.4477 2 13 2H14C14.5523 2 15 2.44771 15 3Z"/>
</svg>
