<svg width="24" height="24" viewBox="0 0 24 24" fill="none" xmlns="http://www.w3.org/2000/svg">
<path fill-rule="evenodd" clip-rule="evenodd" d="M5.49949 7.44598C5.95317 7.1844 6.53564 7.06332 7.05956 7.02005C7.31223 6.99919 7.53117 6.99797 7.68476 7.00189C7.76114 7.00383 7.82019 7.00701 7.85783 7.00948C7.87662 7.01072 7.88998 7.01176 7.89738 7.01238L7.90384 7.01294C8.4523 7.06596 8.94056 6.66514 8.9951 6.11649C9.04973 5.56691 8.64849 5.0771 8.09892 5.02248L8 6.01757C8.09892 5.02248 8.09813 5.0224 8.09788 5.02237L8.09668 5.02226L8.09379 5.02198L8.08609 5.02126L8.06321 5.01927C8.04469 5.01773 8.01969 5.0158 7.98876 5.01377C7.92697 5.00972 7.84114 5.00522 7.73569 5.00253C7.52564 4.99718 7.23321 4.99891 6.89496 5.02684C6.23705 5.08117 5.31952 5.24113 4.50051 5.71334C3.53756 6.26854 2.87912 7.2041 2.42095 8.15989C1.95728 9.12712 1.65129 10.2144 1.44637 11.2071C1.24029 12.2055 1.12935 13.1438 1.06966 13.83C1.042 14.148 1.02515 14.4142 1.015 14.6099C1.00506 14.7386 1 14.8687 1 15C1 17.7614 3.23858 20 6 20C8.61281 20 10.7575 17.9959 10.9808 15.441C11.2124 15.2512 11.5159 15.0794 11.8312 15.0213C12.1336 14.9656 12.538 14.9923 13.0178 15.4254C13.2337 17.9877 15.3819 20 18 20C20.7614 20 23 17.7614 23 15C23 14.8687 22.9949 14.7386 22.985 14.6099C22.9749 14.4142 22.958 14.148 22.9303 13.83C22.8707 13.1438 22.7597 12.2055 22.5536 11.2071C22.3487 10.2144 22.0427 9.12712 21.5791 8.15989C21.1209 7.2041 20.4624 6.26854 19.4995 5.71334C18.6805 5.24113 17.763 5.08117 17.105 5.02684C16.7668 4.99891 16.4744 4.99718 16.2643 5.00253C16.1589 5.00522 16.073 5.00972 16.0112 5.01377C15.9803 5.0158 15.9553 5.01773 15.9368 5.01927L15.9139 5.02126L15.9062 5.02198L15.9033 5.02226L15.9021 5.02237C15.9019 5.0224 15.9011 5.02248 16 6.01757L15.9011 5.02248C15.3515 5.0771 14.9503 5.56691 15.0049 6.11649C15.0594 6.66514 15.5477 7.06596 16.0962 7.01294L16.1026 7.01238C16.11 7.01176 16.1234 7.01072 16.1422 7.00948C16.1798 7.00701 16.2389 7.00383 16.3152 7.00189C16.4688 6.99797 16.6878 6.99919 16.9404 7.02005C17.4644 7.06332 18.0468 7.1844 18.5005 7.44598C18.9699 7.71663 19.4027 8.24654 19.7756 9.02443C20.0034 9.4997 20.1918 10.032 20.3467 10.5838C19.6469 10.2112 18.8481 10 18 10C15.8506 10 14.018 11.3562 13.3112 13.2596C12.6967 12.9961 12.068 12.944 11.4688 13.0544C11.1957 13.1048 10.9384 13.1869 10.6998 13.2897C10.0013 11.3705 8.16069 10 6 10C5.15187 10 4.35306 10.2112 3.65328 10.5838C3.80816 10.032 3.9966 9.4997 4.22443 9.02443C4.59733 8.24654 5.03008 7.71663 5.49949 7.44598ZM15 15.0057C15 15.0017 15 14.9977 15 14.9938C15.0034 13.3398 16.3452 12 18 12C19.5708 12 20.8596 13.2072 20.9893 14.7444L20.9898 14.7553C20.9942 14.8439 20.9968 14.9123 20.9983 14.9574L20.9999 15.0073L21 15.0113C20.9939 16.6629 19.6531 18 18 18C16.345 18 15.0031 16.6599 15 15.0057ZM3.00002 15.0113L3.00012 15.0073L3.00165 14.9574C3.00318 14.9123 3.00582 14.8439 3.0102 14.7553L3.01073 14.7444C3.14042 13.2072 4.42923 12 6 12C7.65685 12 9 13.3431 9 15C9 16.6569 7.65685 18 6 18C4.34692 18 3.00611 16.663 3.00002 15.0113Z" fill="currentColor"/>
</svg>
