<svg width="24" height="24" viewBox="0 0 24 24" fill="none" xmlns="http://www.w3.org/2000/svg">
<path fill-rule="evenodd" clip-rule="evenodd" d="M5.49949 7.44585C5.95317 7.18428 6.53564 7.0632 7.05956 7.01993L7.90384 7.01282C8.4523 7.06583 8.94056 6.66502 8.9951 6.11636C9.04973 5.56679 8.64849 5.07698 8.09892 5.02235L8 6.01745C8.09892 5.02235 8.09917 5.02238 8.09892 5.02235L8.09667 5.02213L8.09378 5.02185L8.08609 5.02114L8.0632 5.01914C8.04468 5.0176 8.01969 5.01568 7.98876 5.01365C7.92697 5.0096 7.84113 5.0051 7.73569 5.00241C7.52563 4.99706 7.2332 4.99878 6.89496 5.02672C6.23704 5.08105 5.31951 5.24101 4.50051 5.71321C3.53756 6.26842 2.87912 7.20398 2.42094 8.15976C1.95728 9.127 1.65128 10.2142 1.44637 11.207C1.24028 12.2054 1.12934 13.1437 1.06966 13.8298C1.04198 14.148 1.02514 14.4142 1.01498 14.6099C1.00511 14.7379 1.00006 14.8671 1 14.9976V15.0028C1.00158 17.7629 3.23955 19.9999 6 19.9999C8.61282 19.9999 10.7575 17.9958 10.9808 15.4409C11.2124 15.2511 11.5159 15.0793 11.8312 15.0212C12.1336 14.9655 12.538 14.9922 13.0178 15.4253C13.2337 17.9876 15.3819 19.9999 18 19.9999C20.7603 19.9999 22.9981 17.7632 23 15.0033V14.9961C22.9999 14.8662 22.9948 14.7374 22.985 14.61C22.9749 14.4143 22.958 14.148 22.9303 13.8298C22.8707 13.1437 22.7597 12.2054 22.5536 11.207C22.3487 10.2142 22.0427 9.127 21.5791 8.15976C21.1209 7.20398 20.4624 6.26842 19.4995 5.71321C18.6805 5.24101 17.763 5.08105 17.105 5.02672C16.7668 4.99878 16.4744 4.99706 16.2643 5.00241C16.1589 5.0051 16.073 5.0096 16.0112 5.01365C15.9803 5.01568 15.9553 5.0176 15.9368 5.01914L15.9139 5.02114L15.9062 5.02185L15.9033 5.02213L15.9021 5.02225C15.9019 5.02228 15.9011 5.02235 16 6.01745L15.9011 5.02235C15.3515 5.07698 14.9503 5.56679 15.0049 6.11636C15.0594 6.66502 15.5477 7.06583 16.0962 7.01282L16.9404 7.01993C17.4644 7.0632 18.0468 7.18428 18.5005 7.44585C18.9699 7.7165 19.4027 8.24642 19.7756 9.0243C20.0034 9.49959 20.1918 10.0319 20.3467 10.5837C19.6469 10.2111 18.8481 9.99991 18 9.99991C15.8506 9.99991 14.018 11.3561 13.3112 13.2595C12.6967 12.9959 12.068 12.9439 11.4688 13.0543C11.1957 13.1046 10.9384 13.1868 10.6998 13.2896C10.0013 11.3704 8.16069 9.99991 6 9.99991C5.15187 9.99991 4.35305 10.2111 3.65327 10.5837C3.80815 10.0319 3.99659 9.49959 4.22443 9.0243C4.59733 8.24642 5.03007 7.7165 5.49949 7.44585ZM16.9404 7.01993C16.6878 6.99907 16.4688 6.99785 16.3152 7.00176C16.2389 7.00371 16.1798 7.00689 16.1422 7.00936C16.1234 7.01059 16.11 7.01164 16.1026 7.01226L16.0962 7.01282L16.9404 7.01993ZM7.05956 7.01993L7.90384 7.01282L7.89738 7.01226C7.88998 7.01164 7.87662 7.01059 7.85783 7.00936C7.82019 7.00689 7.76113 7.00371 7.68476 7.00176C7.53117 6.99785 7.31223 6.99907 7.05956 7.01993Z" fill="currentColor"/>
</svg>
