<svg width="24" height="24" viewBox="0 0 24 24" fill="none" xmlns="http://www.w3.org/2000/svg">
<path fill-rule="evenodd" clip-rule="evenodd" d="M9.82618 4.29888C6.77494 5.15843 4.46311 7.78254 4.0619 11H8.02644C8.16143 8.45826 8.80729 6.12525 9.82618 4.29888ZM2 12V13H2.04937C2.55109 18.0533 6.81465 22 12 22C17.1854 22 21.4489 18.0533 21.9506 13H22V12V11H21.9506C21.4489 5.94667 17.1853 2 12 2C6.81466 2 2.55111 5.94667 2.04938 11H2V12ZM19.9381 11C19.5369 7.78254 17.2251 5.15844 14.1738 4.29888C15.1927 6.12525 15.8386 8.45826 15.9736 11H19.9381ZM19.9381 13H15.9736C15.8386 15.5417 15.1927 17.8748 14.1738 19.7011C17.2251 18.8416 19.5369 16.2175 19.9381 13ZM9.82619 19.7011C6.77494 18.8416 4.4631 16.2175 4.06189 13H8.02644C8.16144 15.5417 8.8073 17.8748 9.82619 19.7011ZM12.1359 4.78725C13.1276 6.32691 13.8223 8.50699 13.9705 11H10.0295C10.1777 8.50698 10.8724 6.32691 11.8641 4.78725C11.9089 4.71771 11.9542 4.64959 12 4.58289C12.0458 4.64959 12.0912 4.71771 12.1359 4.78725ZM11.8641 19.2127C10.8724 17.673 10.1777 15.493 10.0295 13H13.9705C13.8223 15.493 13.1276 17.6731 12.1359 19.2127C12.0911 19.2823 12.0458 19.3504 12 19.4171C11.9542 19.3504 11.9088 19.2823 11.8641 19.2127Z" fill="#222222" fill-opacity="0.6"/>
</svg>
