<svg width="24" height="24" viewBox="0 0 24 24" fill="none" xmlns="http://www.w3.org/2000/svg">
<path d="M12.7709 6.18767L19.3275 10.4501C19.5337 10.5582 19.7034 10.7074 19.8209 10.8838C19.9384 11.0602 20 11.2581 20 11.4593V19.8029C20 20.1203 19.8468 20.4247 19.574 20.6491C19.3012 20.8735 18.9312 20.9996 18.5455 20.9996L14 21V17H10V20.9996L5.45455 21C5.06878 21 4.69881 20.8739 4.42603 20.6495C4.15325 20.4251 4 20.1207 4 19.8033V11.3552C3.99997 11.1514 4.06314 10.9511 4.18354 10.7731C4.30394 10.5951 4.47757 10.4453 4.688 10.338L11.2228 6.17969C11.4556 6.06089 11.7245 5.99861 11.9985 6.00002C12.2725 6.00143 12.5399 6.06648 12.7709 6.18767Z" fill="currentColor"/>
<path d="M4 8L11.47 3.33125C11.7943 3.12858 12.2057 3.12858 12.53 3.33125L20 8" stroke="currentColor" stroke-width="2" stroke-linecap="round"/>
</svg>
