<svg width="24" height="24" viewBox="0 0 24 24" fill="none" stroke="currentColor" xmlns="http://www.w3.org/2000/svg">
  <path d="M18.5454 19.9996L15 19.9999V17V16H14H10H9V17V19.9997L5.45455 20C5.45453 20 5.4545 20 5.45448 20C5.27767 20 5.13827 19.9405 5.06136 19.8773C5.02523 19.8475 5.00969 19.8231 5.00391 19.8116C5.00138 19.8066 5.00037 19.8035 5 19.802V11.3563C5.00007 11.3561 5.00017 11.3557 5.00032 11.3552C5.0011 11.3527 5.00385 11.3452 5.01186 11.3334C5.02839 11.3089 5.06727 11.2671 5.14244 11.2288L5.18477 11.2072L5.22486 11.1817L11.7094 7.05534C11.7883 7.02121 11.8862 6.99946 11.9933 7.00001C12.1003 7.00056 12.1972 7.02327 12.275 7.05802L18.7825 11.2885L18.8216 11.3139L18.8629 11.3356C18.9357 11.3738 18.973 11.4147 18.9887 11.4383C18.9964 11.4498 18.999 11.457 18.9997 11.4594C18.9998 11.4598 18.9999 11.4601 19 11.4604V19.8016C18.9996 19.8031 18.9986 19.8062 18.9961 19.8112C18.9903 19.8227 18.9748 19.8471 18.9386 19.8769C18.8617 19.9401 18.7223 19.9996 18.5455 19.9996H18.5454ZM19 11.4591V11.4593V11.4591ZM19.0002 19.8008C19.0002 19.8006 19.0002 19.8008 19.0001 19.8013L19.0002 19.8008Z" stroke-width="2"/>
  <path d="M4 8L11.47 3.33125C11.7943 3.12858 12.2057 3.12858 12.53 3.33125L20 8" stroke-width="2" stroke-linecap="round"/>
</svg>
