<svg width="16" height="16" viewBox="0 0 16 16" fill="none" xmlns="http://www.w3.org/2000/svg">
<ellipse cx="8" cy="4" rx="7" ry="3" fill="#B1B6C6"/>
<path d="M15 10C13.8559 11.1282 11.1526 11.921 8 11.921C4.84736 11.921 2.14405 11.1282 1 10V11.921C1 13.6469 4.13401 15 8 15C11.866 15 15 13.6009 15 11.875V10Z" fill="#B1B6C6"/>
<path d="M15 6.00001C13.8559 7.12819 11.1526 7.92097 8 7.92097C4.84736 7.92097 2.14405 7.12818 1 6.00001V7.96693C1 9.69282 4.13401 11 8 11C11.866 11 15 9.64686 15 7.92097V6.00001Z" fill="#B1B6C6"/>
</svg>
