<svg width="16" height="16" viewBox="0 0 16 16" fill="currentColor" xmlns="http://www.w3.org/2000/svg">
<path d="M5.39143 5.02521C5.1583 5.24192 5 5.5329 5 5.84875L5 13.0002C5 13.5508 5.45284 13.9971 6.01145 13.9971H12.206C12.713 13.9971 13.1416 13.6272 13.2086 13.132L14.8312 7.01897C15.0475 6.33697 15.0649 5.81624 14.8312 5.47826C14.6258 5.1811 14.2262 5.02521 13.5973 5.02521L11.1844 5.02521L9.5 5.00023C10.282 3.99901 10.8667 1 9 1C7.5 1 7.48195 2.18023 7 3.00023C6.60433 3.67344 5.72429 4.7158 5.39143 5.02521Z"/>
<path d="M1 13V6C1 5.44772 1.44772 5 2 5H3C3.55228 5 4 5.44772 4 6V13C4 13.5523 3.55228 14 3 14H2C1.44772 14 1 13.5523 1 13Z"/>
</svg>
