<svg width="24" height="24" viewBox="0 0 24 24" fill="currentColor" xmlns="http://www.w3.org/2000/svg">
<path d="M19.9981 16.131L19.11 15.6713L19.9981 16.131ZM18.5646 13.8473C18.0594 13.9474 17.5363 14 17 14V16C17.6676 16 18.3208 15.9345 18.9533 15.8092L18.5646 13.8473ZM17 14C12.5817 14 9 10.4183 9 6.00004H7C7 11.5229 11.4772 16 17 16V14ZM9 6.00004C9 5.95898 9.00031 5.91799 9.00092 5.87709L7.00115 5.84704C7.00038 5.89795 7 5.94896 7 6.00004H9ZM4 12C4 9.42524 5.21527 7.13477 7.1076 5.66984L5.8833 4.08835C3.52276 5.91575 2 8.78029 2 12H4ZM12 20C7.58172 20 4 16.4183 4 12H2C2 17.5229 6.47715 22 12 22V20ZM19.11 15.6713C17.7781 18.2448 15.0932 20 12 20V22C15.8697 22 19.2243 19.8018 20.8862 16.5906L19.11 15.6713ZM9.00092 5.87709C9.0123 5.12003 8.63607 4.43492 8.0721 4.04296C7.47568 3.62845 6.61212 3.52415 5.8833 4.08835L7.1076 5.66984C7.10784 5.66965 7.10493 5.67192 7.09863 5.67534C7.0923 5.67878 7.08346 5.68287 7.07225 5.68667C7.04875 5.69465 7.02244 5.6988 6.99656 5.6984C6.94488 5.6976 6.92349 5.68026 6.9307 5.68527C6.93842 5.69064 6.95866 5.7088 6.97626 5.74278C6.99283 5.77478 7.0017 5.81056 7.00115 5.84704L9.00092 5.87709ZM18.9533 15.8092C18.9895 15.802 19.0268 15.8043 19.0617 15.8149C19.0986 15.8262 19.1203 15.843 19.127 15.8496C19.1332 15.8558 19.1121 15.8377 19.1019 15.7865C19.0968 15.7609 19.0961 15.7341 19.0997 15.7094C19.1014 15.6976 19.1039 15.6881 19.1061 15.6812C19.1084 15.6743 19.1101 15.671 19.11 15.6713L20.8862 16.5906C21.3101 15.7716 21.0511 14.9409 20.5352 14.4294C20.0477 13.946 19.3063 13.7004 18.5646 13.8473L18.9533 15.8092Z"/>
</svg>
