<svg width="16" height="16" viewBox="0 0 16 16" fill="none" xmlns="http://www.w3.org/2000/svg">
<path d="M7.21436 12.4414C7.22517 12.5163 7.21792 12.5925 7.19317 12.6642C7.16843 12.736 7.12687 12.8011 7.07174 12.8547L7.06735 12.8581C7.01928 12.9067 6.96157 12.9454 6.89767 12.9719C6.83377 12.9984 6.765 13.0121 6.69548 13.0122C6.53362 13.0122 6.39537 12.936 6.29999 12.825L1.14982 7.38258C1.09844 7.33296 1.05859 7.27329 1.03294 7.20756C1.00729 7.14184 0.996424 7.07157 1.00107 7.00146C0.996367 6.93134 1.00721 6.86105 1.03286 6.79532C1.05851 6.72959 1.09839 6.66992 1.14982 6.62033L6.32887 1.14738C6.42805 1.05293 6.56161 1 6.70074 1C6.83987 1 6.97343 1.05293 7.07261 1.14738C7.12747 1.20109 7.1688 1.26632 7.19339 1.338C7.21797 1.40968 7.22515 1.48589 7.21436 1.56069V4.50806C11.514 4.50806 15 7.86704 15 12.012C15.0003 13.0405 14.7804 14.0579 14.3543 15C13.74 11.8748 10.6443 9.5008 7.2231 9.5008L7.21436 12.4414Z" fill="#B1B6C6"/>
</svg>
