<svg width="16" height="16" viewBox="0 0 16 16" fill="none" xmlns="http://www.w3.org/2000/svg">
<path d="M8.78564 12.4414C8.77483 12.5163 8.78208 12.5925 8.80683 12.6642C8.83157 12.736 8.87313 12.8011 8.92826 12.8547L8.93265 12.8581C8.98072 12.9067 9.03843 12.9454 9.10233 12.9719C9.16623 12.9984 9.235 13.0121 9.30452 13.0122C9.46638 13.0122 9.60463 12.936 9.70001 12.825L14.8502 7.38258C14.9016 7.33296 14.9414 7.27329 14.9671 7.20756C14.9927 7.14184 15.0036 7.07157 14.9989 7.00146C15.0036 6.93134 14.9928 6.86105 14.9671 6.79532C14.9415 6.72959 14.9016 6.66992 14.8502 6.62033L9.67113 1.14738C9.57195 1.05293 9.43839 1 9.29926 1C9.16013 1 9.02657 1.05293 8.92739 1.14738C8.87253 1.20109 8.8312 1.26632 8.80661 1.338C8.78203 1.40968 8.77485 1.48589 8.78564 1.56069V4.50806C4.48596 4.50806 1 7.86704 1 12.012C0.999704 13.0405 1.21957 14.0579 1.64575 15C2.26 11.8748 5.3557 9.5008 8.7769 9.5008L8.78564 12.4414Z" fill="#B1B6C6"/>
</svg>
