<svg width="24" height="24" viewBox="0 0 24 24" fill="none" xmlns="http://www.w3.org/2000/svg">
<path fill-rule="evenodd" clip-rule="evenodd" d="M17.249 9H6.75106L5.28439 20H18.7157L17.249 9ZM6.75106 7C5.74865 7 4.90108 7.74206 4.7686 8.73567L3.30193 19.7357C3.14207 20.9346 4.07481 22 5.28439 22H18.7157C19.9252 22 20.858 20.9346 20.6981 19.7357L19.2314 8.73567C19.099 7.74206 18.2514 7 17.249 7H6.75106Z" fill="#222222" fill-opacity="0.6"/>
<path fill-rule="evenodd" clip-rule="evenodd" d="M15 7H17C17 4.23858 14.7614 2 12 2C9.23858 2 7 4.23858 7 7H9C9 5.34315 10.3431 4 12 4C13.6569 4 15 5.34315 15 7Z" fill="#222222" fill-opacity="0.6"/>
</svg>
