<svg width="24" height="24" viewBox="0 0 24 24" fill="none" xmlns="http://www.w3.org/2000/svg">
<path d="M20.0446 21.0339C20.5736 21.0339 21 21.475 21 22.0169C21 22.5588 20.5736 22.9976 20.0469 23H2.95539C2.42643 23 2 22.5588 2 22.0169C2 21.4727 2.42876 21.0339 2.95539 21.0339H20.0446Z" fill="currentColor"/>
<path fill-rule="evenodd" clip-rule="evenodd" d="M19.2928 9.70712L13.2928 3.70712C14.0739 2.92607 15.3402 2.92607 16.1213 3.70712L19.2928 6.87869C20.0739 7.65974 20.0739 8.92607 19.2928 9.70712Z" fill="currentColor"/>
<path d="M5.00781 13.4094V13.3455L5.0029 13.3073C6.10062 12.1195 7.90136 10.3189 9.49548 8.76079C10.2966 7.97775 11.0407 7.26065 11.6099 6.72C11.7398 6.59657 11.8603 6.4827 11.9699 6.37961L16.6232 11.0017L9.6935 17.9181C9.68993 17.921 9.6858 17.9244 9.68119 17.9281C9.65689 17.9477 9.62466 17.9723 9.59084 17.9949C9.5882 17.9966 9.58561 17.9983 9.58308 18H5.00781V13.4094ZM9.70905 17.9049C9.70911 17.9049 9.70798 17.9059 9.70577 17.9078L9.70598 17.9077L9.70679 17.9069L9.70802 17.9058L9.70905 17.9049ZM4.90288 18.1468L4.93621 18.1398L4.93625 18.1398L5.01278 18.1238L5.01279 18.1238L5.01185 18.1194L5.00843 18.1033L5.00791 18.1007L5.0079 18.1007C5.00787 18.1004 5.00784 18.1001 5.00781 18.0999L4.90288 18.1468Z" stroke="currentColor" stroke-width="2"/>
</svg>
